  0
SECTION
  2
HEADER
  9
$ACADVER
  1
AC1027
  9
$ACADMAINTVER
 70
   105
  9
$DWGCODEPAGE
  3
ANSI_1252
  9
$REQUIREDVERSIONS
160
                 0
  9
$INSBASE
 10
0.0
 20
0.0
 30
0.0
  9
$EXTMIN
 10
1.000000000000000E+20
 20
1.000000000000000E+20
 30
1.000000000000000E+20
  9
$EXTMAX
 10
-1.000000000000000E+20
 20
-1.000000000000000E+20
 30
-1.000000000000000E+20
  9
$LIMMIN
 10
0.0
 20
0.0
  9
$LIMMAX
 10
12.0
 20
9.0
  9
$ORTHOMODE
 70
     0
  9
$REGENMODE
 70
     1
  9
$FILLMODE
 70
     1
  9
$QTEXTMODE
 70
     0
  9
$MIRRTEXT
 70
     1
  9
$LTSCALE
 40
1.0
  9
$ATTMODE
 70
     1
  9
$TEXTSIZE
 40
0.2
  9
$TRACEWID
 40
0.05
  9
$TEXTSTYLE
  7
Standard
  9
$CLAYER
  8
0
  9
$CELTYPE
  6
ByLayer
  9
$CECOLOR
 62
   256
  9
$CELTSCALE
 40
1.0
  9
$DISPSILH
 70
     0
  9
$DIMSCALE
 40
1.0
  9
$DIMASZ
 40
2.5
  9
$DIMEXO
 40
0.625
  9
$DIMDLI
 40
0.38
  9
$DIMRND
 40
0.0
  9
$DIMDLE
 40
0.0
  9
$DIMEXE
 40
1.25
  9
$DIMTP
 40
0.0
  9
$DIMTM
 40
0.0
  9
$DIMTXT
 40
2.5
  9
$DIMCEN
 40
0.09
  9
$DIMTSZ
 40
0.0
  9
$DIMTOL
 70
     0
  9
$DIMLIM
 70
     0
  9
$DIMTIH
 70
     1
  9
$DIMTOH
 70
     1
  9
$DIMSE1
 70
     0
  9
$DIMSE2
 70
     0
  9
$DIMTAD
 70
     0
  9
$DIMZIN
 70
     8
  9
$DIMBLK
  1

  9
$DIMASO
 70
     1
  9
$DIMSHO
 70
     1
  9
$DIMPOST
  1

  9
$DIMAPOST
  1

  9
$DIMALT
 70
     0
  9
$DIMALTD
 70
     2
  9
$DIMALTF
 40
25.4
  9
$DIMLFAC
 40
1.0
  9
$DIMTOFL
 70
     0
  9
$DIMTVP
 40
0.0
  9
$DIMTIX
 70
     0
  9
$DIMSOXD
 70
     0
  9
$DIMSAH
 70
     0
  9
$DIMBLK1
  1

  9
$DIMBLK2
  1

  9
$DIMSTYLE
  2
Standard
  9
$DIMCLRD
 70
     0
  9
$DIMCLRE
 70
     0
  9
$DIMCLRT
 70
     0
  9
$DIMTFAC
 40
1.0
  9
$DIMGAP
 40
0.625
  9
$DIMJUST
 70
     0
  9
$DIMSD1
 70
     0
  9
$DIMSD2
 70
     0
  9
$DIMTOLJ
 70
     1
  9
$DIMTZIN
 70
     0
  9
$DIMALTZ
 70
     0
  9
$DIMALTTZ
 70
     0
  9
$DIMUPT
 70
     0
  9
$DIMDEC
 70
     4
  9
$DIMTDEC
 70
     4
  9
$DIMALTU
 70
     2
  9
$DIMALTTD
 70
     2
  9
$DIMTXSTY
  7
Standard
  9
$DIMAUNIT
 70
     0
  9
$DIMADEC
 70
     0
  9
$DIMALTRND
 40
0.0
  9
$DIMAZIN
 70
     2
  9
$DIMDSEP
 70
    46
  9
$DIMATFIT
 70
     3
  9
$DIMFRAC
 70
     0
  9
$DIMLDRBLK
  1

  9
$DIMLUNIT
 70
     2
  9
$DIMLWD
 70
    -2
  9
$DIMLWE
 70
    -2
  9
$DIMTMOVE
 70
     0
  9
$DIMFXL
 40
1.0
  9
$DIMFXLON
 70
     0
  9
$DIMJOGANG
 40
0.7853981633974483
  9
$DIMTFILL
 70
     0
  9
$DIMTFILLCLR
 70
     0
  9
$DIMARCSYM
 70
     0
  9
$DIMLTYPE
  6

  9
$DIMLTEX1
  6

  9
$DIMLTEX2
  6

  9
$DIMTXTDIRECTION
 70
     0
  9
$LUNITS
 70
     2
  9
$LUPREC
 70
     4
  9
$SKETCHINC
 40
0.1
  9
$FILLETRAD
 40
0.5
  9
$AUNITS
 70
     0
  9
$AUPREC
 70
     0
  9
$MENU
  1
.
  9
$ELEVATION
 40
0.0
  9
$PELEVATION
 40
0.0
  9
$THICKNESS
 40
0.0
  9
$LIMCHECK
 70
     0
  9
$CHAMFERA
 40
0.0
  9
$CHAMFERB
 40
0.0
  9
$CHAMFERC
 40
0.0
  9
$CHAMFERD
 40
0.0
  9
$SKPOLY
 70
     0
  9
$TDCREATE
 40
2459371.083614005
  9
$TDUCREATE
 40
2459371.083614005
  9
$TDUPDATE
 40
2459371.083614074
  9
$TDUUPDATE
 40
2459371.083614074
  9
$TDINDWG
 40
0.0000000116
  9
$TDUSRTIMER
 40
0.0000000116
  9
$USRTIMER
 70
     1
  9
$ANGBASE
 50
0.0
  9
$ANGDIR
 70
     0
  9
$PDMODE
 70
     0
  9
$PDSIZE
 40
0.0
  9
$PLINEWID
 40
0.0
  9
$SPLFRAME
 70
     0
  9
$SPLINETYPE
 70
     6
  9
$SPLINESEGS
 70
     8
  9
$HANDSEED
  5
512
  9
$SURFTAB1
 70
     6
  9
$SURFTAB2
 70
     6
  9
$SURFTYPE
 70
     6
  9
$SURFU
 70
     6
  9
$SURFV
 70
     6
  9
$UCSBASE
  2

  9
$UCSNAME
  2

  9
$UCSORG
 10
0.0
 20
0.0
 30
0.0
  9
$UCSXDIR
 10
1.0
 20
0.0
 30
0.0
  9
$UCSYDIR
 10
0.0
 20
1.0
 30
0.0
  9
$UCSORTHOREF
  2

  9
$UCSORTHOVIEW
 70
     0
  9
$UCSORGTOP
 10
0.0
 20
0.0
 30
0.0
  9
$UCSORGBOTTOM
 10
0.0
 20
0.0
 30
0.0
  9
$UCSORGLEFT
 10
0.0
 20
0.0
 30
0.0
  9
$UCSORGRIGHT
 10
0.0
 20
0.0
 30
0.0
  9
$UCSORGFRONT
 10
0.0
 20
0.0
 30
0.0
  9
$UCSORGBACK
 10
0.0
 20
0.0
 30
0.0
  9
$PUCSBASE
  2

  9
$PUCSNAME
  2

  9
$PUCSORG
 10
0.0
 20
0.0
 30
0.0
  9
$PUCSXDIR
 10
1.0
 20
0.0
 30
0.0
  9
$PUCSYDIR
 10
0.0
 20
1.0
 30
0.0
  9
$PUCSORTHOREF
  2

  9
$PUCSORTHOVIEW
 70
     0
  9
$PUCSORGTOP
 10
0.0
 20
0.0
 30
0.0
  9
$PUCSORGBOTTOM
 10
0.0
 20
0.0
 30
0.0
  9
$PUCSORGLEFT
 10
0.0
 20
0.0
 30
0.0
  9
$PUCSORGRIGHT
 10
0.0
 20
0.0
 30
0.0
  9
$PUCSORGFRONT
 10
0.0
 20
0.0
 30
0.0
  9
$PUCSORGBACK
 10
0.0
 20
0.0
 30
0.0
  9
$USERI1
 70
     0
  9
$USERI2
 70
     0
  9
$USERI3
 70
     0
  9
$USERI4
 70
     0
  9
$USERI5
 70
     0
  9
$USERR1
 40
0.0
  9
$USERR2
 40
0.0
  9
$USERR3
 40
0.0
  9
$USERR4
 40
0.0
  9
$USERR5
 40
0.0
  9
$WORLDVIEW
 70
     1
  9
$SHADEDGE
 70
     3
  9
$SHADEDIF
 70
    70
  9
$TILEMODE
 70
     1
  9
$MAXACTVP
 70
    64
  9
$PINSBASE
 10
0.0
 20
0.0
 30
0.0
  9
$PLIMCHECK
 70
     0
  9
$PEXTMIN
 10
0.0
 20
0.0
 30
0.0
  9
$PEXTMAX
 10
0.0
 20
0.0
 30
0.0
  9
$PLIMMIN
 10
-20.0
 20
-7.5
  9
$PLIMMAX
 10
277.0
 20
202.5
  9
$UNITMODE
 70
     0
  9
$VISRETAIN
 70
     1
  9
$PLINEGEN
 70
     0
  9
$PSLTSCALE
 70
     1
  9
$TREEDEPTH
 70
  3020
  9
$CMLSTYLE
  2
Standard
  9
$CMLJUST
 70
     0
  9
$CMLSCALE
 40
1.0
  9
$PROXYGRAPHICS
 70
     1
  9
$MEASUREMENT
 70
     1
  9
$CELWEIGHT
370
    -1
  9
$ENDCAPS
280
     0
  9
$JOINSTYLE
280
     0
  9
$LWDISPLAY
290
     0
  9
$INSUNITS
 70
     4
  9
$HYPERLINKBASE
  1

  9
$STYLESHEET
  1

  9
$XEDIT
290
     1
  9
$CEPSNTYPE
380
     0
  9
$PSTYLEMODE
290
     1
  9
$FINGERPRINTGUID
  2
{363033b2-7376-7475-3465-797233f63371}
  9
$VERSIONGUID
  2
{FAEB1C32-E019-11D5-929B-00C0DF256EC4}
  9
$EXTNAMES
290
     1
  9
$PSVPSCALE
 40
0.0
  9
$OLESTARTUP
290
     0
  9
$SORTENTS
280
   127
  9
$INDEXCTL
280
     0
  9
$HIDETEXT
280
     1
  9
$XCLIPFRAME
280
     2
  9
$HALOGAP
280
     0
  9
$OBSCOLOR
 70
   257
  9
$OBSLTYPE
280
     0
  9
$INTERSECTIONDISPLAY
280
     0
  9
$INTERSECTIONCOLOR
 70
   257
  9
$DIMASSOC
280
     2
  9
$PROJECTNAME
  1

  9
$CAMERADISPLAY
290
     0
  9
$LENSLENGTH
 40
50.0
  9
$CAMERAHEIGHT
 40
0.0
  9
$STEPSPERSEC
 40
2.0
  9
$STEPSIZE
 40
6.0
  9
$3DDWFPREC
 40
2.0
  9
$PSOLWIDTH
 40
0.25
  9
$PSOLHEIGHT
 40
4.0
  9
$LOFTANG1
 40
1.570796326794897
  9
$LOFTANG2
 40
1.570796326794897
  9
$LOFTMAG1
 40
0.0
  9
$LOFTMAG2
 40
0.0
  9
$LOFTPARAM
 70
     7
  9
$LOFTNORMALS
280
     1
  9
$LATITUDE
 40
37.795
  9
$LONGITUDE
 40
-122.394
  9
$NORTHDIRECTION
 40
0.0
  9
$TIMEZONE
 70
 -8000
  9
$LIGHTGLYPHDISPLAY
280
     1
  9
$TILEMODELIGHTSYNCH
280
     1
  9
$CMATERIAL
347
46F
  9
$SOLIDHIST
280
     0
  9
$SHOWHIST
280
     1
  9
$DWFFRAME
280
     2
  9
$DGNFRAME
280
     2
  9
$REALWORLDSCALE
290
     1
  9
$INTERFERECOLOR
 62
   256
  9
$CSHADOW
280
     0
  9
$SHADOWPLANELOCATION
 40
0.0
  0
ENDSEC
  0
SECTION
  2
CLASSES
  0
CLASS
  1
ACDBDICTIONARYWDFLT
  2
AcDbDictionaryWithDefault
  3
ObjectDBX Classes
 90
        0
 91
        3
280
     0
281
     0
  0
CLASS
  1
VISUALSTYLE
  2
AcDbVisualStyle
  3
ObjectDBX Classes
 90
     4095
 91
        3
280
     0
281
     0
  0
CLASS
  1
MATERIAL
  2
AcDbMaterial
  3
ObjectDBX Classes
 90
     1153
 91
        3
280
     0
281
     0
  0
CLASS
  1
SCALE
  2
AcDbScale
  3
ObjectDBX Classes
 90
     1153
 91
        3
280
     0
281
     0
  0
CLASS
  1
TABLESTYLE
  2
AcDbTableStyle
  3
ObjectDBX Classes
 90
     4095
 91
        3
280
     0
281
     0
  0
CLASS
  1
MLEADERSTYLE
  2
AcDbMLeaderStyle
  3
ACDB_MLEADERSTYLE_CLASS
 90
     4095
 91
        3
280
     0
281
     0
  0
CLASS
  1
SUN
  2
AcDbSun
  3
SCENEOE
 90
     1153
 91
        3
280
     0
281
     0
  0
CLASS
  1
DICTIONARYVAR
  2
AcDbDictionaryVar
  3
ObjectDBX Classes
 90
        0
 91
        3
280
     0
281
     0
  0
CLASS
  1
CELLSTYLEMAP
  2
AcDbCellStyleMap
  3
ObjectDBX Classes
 90
     1152
 91
        3
280
     0
281
     0
  0
ENDSEC
  0
SECTION
  2
TABLES
  0
TABLE
  2
VPORT
  5
434
330
0
100
AcDbSymbolTable
 70
     1
  0
VPORT
  5
454
330
434
100
AcDbSymbolTableRecord
100
AcDbViewportTableRecord
  2
*Active
 70
     0
 10
0.0
 20
0.0
 11
1.0
 21
1.0
 12
70.72525808959361
 22
67.71692777463585
 13
0.0
 23
0.0
 14
0.5
 24
0.5
 15
0.5
 25
0.5
 16
0.0
 26
0.0
 36
1.0
 17
0.0
 27
0.0
 37
0.0
 40
186.20928
 41
1.651447661469933
 42
50.0
 43
0.0
 44
0.0
 50
0.0
 51
0.0
 71
     0
 72
   100
 73
     1
 74
     3
 75
     0
 76
     0
 77
     0
 78
     0
281
     0
 65
     1
110
0.0
120
0.0
130
0.0
111
1.0
121
0.0
131
0.0
112
0.0
122
1.0
132
0.0
 79
     0
146
0.0
348
45A
 60
     3
 61
     5
292
     1
282
     1
141
0.0
142
0.0
 63
   250
361
498
  0
ENDTAB
  0
TABLE
  2
LTYPE
  5
431
330
0
100
AcDbSymbolTable
 70
    48
  0
LTYPE
  5
43F
330
431
100
AcDbSymbolTableRecord
100
AcDbLinetypeTableRecord
  2
ByBlock
 70
     0
  3

 72
    65
 73
     0
 40
0.0
  0
LTYPE
  5
440
330
431
100
AcDbSymbolTableRecord
100
AcDbLinetypeTableRecord
  2
ByLayer
 70
     0
  3

 72
    65
 73
     0
 40
0.0
  0
LTYPE
  5
441
330
431
100
AcDbSymbolTableRecord
100
AcDbLinetypeTableRecord
  2
Continuous
 70
     0
  3
Solid line
 72
    65
 73
     0
 40
0.0
  0
LTYPE
  5
4CD
330
431
100
AcDbSymbolTableRecord
100
AcDbLinetypeTableRecord
  2
ACAD_ISO04W100
 70
     0
  3
ISO long-dash dot ____ . ____ . ____ . ____ . _
 72
    65
 73
     4
 40
30.0
 49
24.0
 74
     0
 49
-3.0
 74
     0
 49
0.0
 74
     0
 49
-3.0
 74
     0
  0
LTYPE
  5
4CE
330
431
100
AcDbSymbolTableRecord
100
AcDbLinetypeTableRecord
  2
ACAD_ISO05W100
 70
     0
  3
ISO long-dash double-dot ____ .. ____ .. ____ . 
 72
    65
 73
     6
 40
33.0
 49
24.0
 74
     0
 49
-3.0
 74
     0
 49
0.0
 74
     0
 49
-3.0
 74
     0
 49
0.0
 74
     0
 49
-3.0
 74
     0
  0
LTYPE
  5
4CF
330
431
100
AcDbSymbolTableRecord
100
AcDbLinetypeTableRecord
  2
ACAD_ISO02W100
 70
     0
  3
ISO dash __ __ __ __ __ __ __ __ __ __ __ __ __
 72
    65
 73
     2
 40
15.0
 49
12.0
 74
     0
 49
-3.0
 74
     0
  0
LTYPE
  5
4D0
330
431
100
AcDbSymbolTableRecord
100
AcDbLinetypeTableRecord
  2
ACAD_ISO03W100
 70
     0
  3
ISO dash space __    __    __    __    __    __
 72
    65
 73
     2
 40
30.0
 49
12.0
 74
     0
 49
-18.0
 74
     0
  0
LTYPE
  5
4D1
330
431
100
AcDbSymbolTableRecord
100
AcDbLinetypeTableRecord
  2
ACAD_ISO08W100
 70
     0
  3
ISO long-dash short-dash ____ __ ____ __ ____ _
 72
    65
 73
     4
 40
36.0
 49
24.0
 74
     0
 49
-3.0
 74
     0
 49
6.0
 74
     0
 49
-3.0
 74
     0
  0
LTYPE
  5
4D2
330
431
100
AcDbSymbolTableRecord
100
AcDbLinetypeTableRecord
  2
ACAD_ISO09W100
 70
     0
  3
ISO long-dash double-short-dash ____ __ __ ____
 72
    65
 73
     6
 40
45.0
 49
24.0
 74
     0
 49
-3.0
 74
     0
 49
6.0
 74
     0
 49
-3.0
 74
     0
 49
6.0
 74
     0
 49
-3.0
 74
     0
  0
LTYPE
  5
4D3
330
431
100
AcDbSymbolTableRecord
100
AcDbLinetypeTableRecord
  2
ACAD_ISO06W100
 70
     0
  3
ISO long-dash triple-dot ____ ... ____ ... ____
 72
    65
 73
     8
 40
36.0
 49
24.0
 74
     0
 49
-3.0
 74
     0
 49
0.0
 74
     0
 49
-3.0
 74
     0
 49
0.0
 74
     0
 49
-3.0
 74
     0
 49
0.0
 74
     0
 49
-3.0
 74
     0
  0
LTYPE
  5
4D4
330
431
100
AcDbSymbolTableRecord
100
AcDbLinetypeTableRecord
  2
ACAD_ISO07W100
 70
     0
  3
ISO dot . . . . . . . . . . . . . . . . . . . . 
 72
    65
 73
     2
 40
3.0
 49
0.0
 74
     0
 49
-3.0
 74
     0
  0
LTYPE
  5
4D5
330
431
100
AcDbSymbolTableRecord
100
AcDbLinetypeTableRecord
  2
ACAD_ISO12W100
 70
     0
  3
ISO dash double-dot __ . . __ . . __ . . __ . . 
 72
    65
 73
     6
 40
21.0
 49
12.0
 74
     0
 49
-3.0
 74
     0
 49
0.0
 74
     0
 49
-3.0
 74
     0
 49
0.0
 74
     0
 49
-3.0
 74
     0
  0
LTYPE
  5
4D6
330
431
100
AcDbSymbolTableRecord
100
AcDbLinetypeTableRecord
  2
ACAD_ISO13W100
 70
     0
  3
ISO double-dash double-dot __ __ . . __ __ . . _
 72
    65
 73
     8
 40
36.0
 49
12.0
 74
     0
 49
-3.0
 74
     0
 49
12.0
 74
     0
 49
-3.0
 74
     0
 49
0.0
 74
     0
 49
-3.0
 74
     0
 49
0.0
 74
     0
 49
-3.0
 74
     0
  0
LTYPE
  5
4D7
330
431
100
AcDbSymbolTableRecord
100
AcDbLinetypeTableRecord
  2
ACAD_ISO10W100
 70
     0
  3
ISO dash dot __ . __ . __ . __ . __ . __ . __ . 
 72
    65
 73
     4
 40
18.0
 49
12.0
 74
     0
 49
-3.0
 74
     0
 49
0.0
 74
     0
 49
-3.0
 74
     0
  0
LTYPE
  5
4D8
330
431
100
AcDbSymbolTableRecord
100
AcDbLinetypeTableRecord
  2
ACAD_ISO11W100
 70
     0
  3
ISO double-dash dot __ __ . __ __ . __ __ . __ _
 72
    65
 73
     6
 40
33.0
 49
12.0
 74
     0
 49
-3.0
 74
     0
 49
12.0
 74
     0
 49
-3.0
 74
     0
 49
0.0
 74
     0
 49
-3.0
 74
     0
  0
LTYPE
  5
4DB
330
431
100
AcDbSymbolTableRecord
100
AcDbLinetypeTableRecord
  2
BATTING
 70
     0
  3
Batting SSSSSSSSSSSSSSSSSSSSSSSSSSSSSSSSSSSSSSSSSSSSSSS
 72
    65
 73
     4
 40
10.16254
 49
0.00254
 74
     0
 49
-2.54
 74
     2
 75
     0
340
4D9
 46
2.54
 50
0.0
 44
-2.54
 45
0.0
  9
BAT
 49
-5.08
 74
     2
 75
     0
340
4DA
 46
2.54
 50
180.0
 44
2.54
 45
0.0
  9
BAT
 49
-2.54
 74
     0
  0
LTYPE
  5
4DC
330
431
100
AcDbSymbolTableRecord
100
AcDbLinetypeTableRecord
  2
BORDER
 70
     0
  3
Border __ __ . __ __ . __ __ . __ __ . __ __ .
 72
    65
 73
     6
 40
44.45
 49
12.7
 74
     0
 49
-6.35
 74
     0
 49
12.7
 74
     0
 49
-6.35
 74
     0
 49
0.0
 74
     0
 49
-6.35
 74
     0
  0
LTYPE
  5
4DD
330
431
100
AcDbSymbolTableRecord
100
AcDbLinetypeTableRecord
  2
ACAD_ISO14W100
 70
     0
  3
ISO dash triple-dot __ . . . __ . . . __ . . . _
 72
    65
 73
     8
 40
24.0
 49
12.0
 74
     0
 49
-3.0
 74
     0
 49
0.0
 74
     0
 49
-3.0
 74
     0
 49
0.0
 74
     0
 49
-3.0
 74
     0
 49
0.0
 74
     0
 49
-3.0
 74
     0
  0
LTYPE
  5
4DE
330
431
100
AcDbSymbolTableRecord
100
AcDbLinetypeTableRecord
  2
ACAD_ISO15W100
 70
     0
  3
ISO double-dash triple-dot __ __ . . . __ __ . .
 72
    65
 73
    10
 40
39.0
 49
12.0
 74
     0
 49
-3.0
 74
     0
 49
12.0
 74
     0
 49
-3.0
 74
     0
 49
0.0
 74
     0
 49
-3.0
 74
     0
 49
0.0
 74
     0
 49
-3.0
 74
     0
 49
0.0
 74
     0
 49
-3.0
 74
     0
  0
LTYPE
  5
4DF
330
431
100
AcDbSymbolTableRecord
100
AcDbLinetypeTableRecord
  2
CENTER
 70
     0
  3
Center ____ _ ____ _ ____ _ ____ _ ____ _ ____
 72
    65
 73
     4
 40
50.8
 49
31.75
 74
     0
 49
-6.35
 74
     0
 49
6.35
 74
     0
 49
-6.35
 74
     0
  0
LTYPE
  5
4E0
330
431
100
AcDbSymbolTableRecord
100
AcDbLinetypeTableRecord
  2
CENTER2
 70
     0
  3
Center (.5x) ___ _ ___ _ ___ _ ___ _ ___ _ ___
 72
    65
 73
     4
 40
28.575
 49
19.05
 74
     0
 49
-3.175
 74
     0
 49
3.175
 74
     0
 49
-3.175
 74
     0
  0
LTYPE
  5
4E1
330
431
100
AcDbSymbolTableRecord
100
AcDbLinetypeTableRecord
  2
BORDER2
 70
     0
  3
Border (.5x) __.__.__.__.__.__.__.__.__.__.__.
 72
    65
 73
     6
 40
22.225
 49
6.35
 74
     0
 49
-3.175
 74
     0
 49
6.35
 74
     0
 49
-3.175
 74
     0
 49
0.0
 74
     0
 49
-3.175
 74
     0
  0
LTYPE
  5
4E2
330
431
100
AcDbSymbolTableRecord
100
AcDbLinetypeTableRecord
  2
BORDERX2
 70
     0
  3
Border (2x) ____  ____  .  ____  ____  .  ___
 72
    65
 73
     6
 40
88.89999999999999
 49
25.4
 74
     0
 49
-12.7
 74
     0
 49
25.4
 74
     0
 49
-12.7
 74
     0
 49
0.0
 74
     0
 49
-12.7
 74
     0
  0
LTYPE
  5
4E3
330
431
100
AcDbSymbolTableRecord
100
AcDbLinetypeTableRecord
  2
DASHDOT2
 70
     0
  3
Dash dot (.5x) _._._._._._._._._._._._._._._.
 72
    65
 73
     4
 40
12.7
 49
6.35
 74
     0
 49
-3.175
 74
     0
 49
0.0
 74
     0
 49
-3.175
 74
     0
  0
LTYPE
  5
4E4
330
431
100
AcDbSymbolTableRecord
100
AcDbLinetypeTableRecord
  2
DASHDOTX2
 70
     0
  3
Dash dot (2x) ____  .  ____  .  ____  .  ___
 72
    65
 73
     4
 40
50.8
 49
25.4
 74
     0
 49
-12.7
 74
     0
 49
0.0
 74
     0
 49
-12.7
 74
     0
  0
LTYPE
  5
4E5
330
431
100
AcDbSymbolTableRecord
100
AcDbLinetypeTableRecord
  2
CENTERX2
 70
     0
  3
Center (2x) ________  __  ________  __  _____
 72
    65
 73
     4
 40
101.6
 49
63.5
 74
     0
 49
-12.7
 74
     0
 49
12.7
 74
     0
 49
-12.7
 74
     0
  0
LTYPE
  5
4E6
330
431
100
AcDbSymbolTableRecord
100
AcDbLinetypeTableRecord
  2
DASHDOT
 70
     0
  3
Dash dot __ . __ . __ . __ . __ . __ . __ . __
 72
    65
 73
     4
 40
25.4
 49
12.7
 74
     0
 49
-6.35
 74
     0
 49
0.0
 74
     0
 49
-6.35
 74
     0
  0
LTYPE
  5
4E7
330
431
100
AcDbSymbolTableRecord
100
AcDbLinetypeTableRecord
  2
DASHEDX2
 70
     0
  3
Dashed (2x) ____  ____  ____  ____  ____  ___
 72
    65
 73
     2
 40
38.09999999999999
 49
25.4
 74
     0
 49
-12.7
 74
     0
  0
LTYPE
  5
4E8
330
431
100
AcDbSymbolTableRecord
100
AcDbLinetypeTableRecord
  2
DIVIDE
 70
     0
  3
Divide ____ . . ____ . . ____ . . ____ . . ____
 72
    65
 73
     6
 40
31.75
 49
12.7
 74
     0
 49
-6.35
 74
     0
 49
0.0
 74
     0
 49
-6.35
 74
     0
 49
0.0
 74
     0
 49
-6.35
 74
     0
  0
LTYPE
  5
4E9
330
431
100
AcDbSymbolTableRecord
100
AcDbLinetypeTableRecord
  2
DASHED
 70
     0
  3
Dashed __ __ __ __ __ __ __ __ __ __ __ __ __ _
 72
    65
 73
     2
 40
19.05
 49
12.7
 74
     0
 49
-6.35
 74
     0
  0
LTYPE
  5
4EA
330
431
100
AcDbSymbolTableRecord
100
AcDbLinetypeTableRecord
  2
DASHED2
 70
     0
  3
Dashed (.5x) _ _ _ _ _ _ _ _ _ _ _ _ _ _ _ _ _ 
 72
    65
 73
     2
 40
9.524999999999999
 49
6.35
 74
     0
 49
-3.175
 74
     0
  0
LTYPE
  5
4EB
330
431
100
AcDbSymbolTableRecord
100
AcDbLinetypeTableRecord
  2
DOT
 70
     0
  3
Dot . . . . . . . . . . . . . . . . . . . . . . . .
 72
    65
 73
     2
 40
6.35
 49
0.0
 74
     0
 49
-6.35
 74
     0
  0
LTYPE
  5
4EC
330
431
100
AcDbSymbolTableRecord
100
AcDbLinetypeTableRecord
  2
DOT2
 70
     0
  3
Dot (.5x) ........................................
 72
    65
 73
     2
 40
3.175
 49
0.0
 74
     0
 49
-3.175
 74
     0
  0
LTYPE
  5
4ED
330
431
100
AcDbSymbolTableRecord
100
AcDbLinetypeTableRecord
  2
DIVIDE2
 70
     0
  3
Divide (.5x) __..__..__..__..__..__..__..__.._
 72
    65
 73
     6
 40
15.875
 49
6.35
 74
     0
 49
-3.175
 74
     0
 49
0.0
 74
     0
 49
-3.175
 74
     0
 49
0.0
 74
     0
 49
-3.175
 74
     0
  0
LTYPE
  5
4EE
330
431
100
AcDbSymbolTableRecord
100
AcDbLinetypeTableRecord
  2
DIVIDEX2
 70
     0
  3
Divide (2x) ________  .  .  ________  .  .  _
 72
    65
 73
     6
 40
63.5
 49
25.4
 74
     0
 49
-12.7
 74
     0
 49
0.0
 74
     0
 49
-12.7
 74
     0
 49
0.0
 74
     0
 49
-12.7
 74
     0
  0
LTYPE
  5
4F0
330
431
100
AcDbSymbolTableRecord
100
AcDbLinetypeTableRecord
  2
DRAINAGE2
 70
     0
  3
Drainage reversed----<----<----<----
 72
    65
 73
     2
 40
10.16
 49
5.08
 74
     2
 75
     0
340
4EF
 46
2.54
 50
0.0
 44
0.0
 45
0.0
  9
RIGHT_ARROW
 49
5.08
 74
     0
  0
LTYPE
  5
4F2
330
431
100
AcDbSymbolTableRecord
100
AcDbLinetypeTableRecord
  2
FENCELINE1
 70
     0
  3
Fenceline circle ----0-----0----0-----0----0-----0--
 72
    65
 73
     4
 40
36.83
 49
6.35
 74
     0
 49
-2.54
 74
     2
 75
     0
340
4F1
 46
2.54
 50
0.0
 44
-2.54
 45
0.0
  9
CIRC1
 49
-2.54
 74
     0
 49
25.4
 74
     0
  0
LTYPE
  5
4F3
330
431
100
AcDbSymbolTableRecord
100
AcDbLinetypeTableRecord
  2
DOTX2
 70
     0
  3
Dot (2x) .  .  .  .  .  .  .  .  .  .  .  .  .  .
 72
    65
 73
     2
 40
12.7
 49
0.0
 74
     0
 49
-12.7
 74
     0
  0
LTYPE
  5
4F5
330
431
100
AcDbSymbolTableRecord
100
AcDbLinetypeTableRecord
  2
DRAINAGE
 70
     0
  3
Drainage ---->---->---->----
 72
    65
 73
     2
 40
10.16
 49
5.08
 74
     2
 75
     0
340
4F4
 46
2.54
 50
180.0
 44
0.0
 45
0.0
  9
RIGHT_ARROW
 49
5.08
 74
     0
  0
LTYPE
  5
4F6
330
431
100
AcDbSymbolTableRecord
100
AcDbLinetypeTableRecord
  2
HIDDEN
 70
     0
  3
Hidden __ __ __ __ __ __ __ __ __ __ __ __ __ __
 72
    65
 73
     2
 40
9.524999999999999
 49
6.35
 74
     0
 49
-3.175
 74
     0
  0
LTYPE
  5
4F7
330
431
100
AcDbSymbolTableRecord
100
AcDbLinetypeTableRecord
  2
HIDDEN2
 70
     0
  3
Hidden (.5x) _ _ _ _ _ _ _ _ _ _ _ _ _ _ _ _ _ 
 72
    65
 73
     2
 40
4.762499999999999
 49
3.175
 74
     0
 49
-1.5875
 74
     0
  0
LTYPE
  5
4F9
330
431
100
AcDbSymbolTableRecord
100
AcDbLinetypeTableRecord
  2
FENCELINE2
 70
     0
  3
Fenceline square ----[]-----[]----[]-----[]----[]---
 72
    65
 73
     4
 40
36.83
 49
6.35
 74
     0
 49
-2.54
 74
     2
 75
     0
340
4F8
 46
2.54
 50
0.0
 44
-2.54
 45
0.0
  9
BOX
 49
-2.54
 74
     0
 49
25.4
 74
     0
  0
LTYPE
  5
4FB
330
431
100
AcDbSymbolTableRecord
100
AcDbLinetypeTableRecord
  2
GAS_LINE
 70
     0
  3
Gas line ----GAS----GAS----GAS----GAS----GAS----GAS--
 72
    65
 73
     3
 40
24.13
 49
12.7
 74
     0
 49
-5.08
 74
     2
 75
     0
340
4FA
 46
2.54
 50
0.0
 44
-2.54
 45
-1.27
  9
GAS
 49
-6.35
 74
     0
  0
LTYPE
  5
4FC
330
431
100
AcDbSymbolTableRecord
100
AcDbLinetypeTableRecord
  2
PHANTOM
 70
     0
  3
Phantom ______  __  __  ______  __  __  ______ 
 72
    65
 73
     6
 40
63.50000000000001
 49
31.75
 74
     0
 49
-6.35
 74
     0
 49
6.35
 74
     0
 49
-6.35
 74
     0
 49
6.35
 74
     0
 49
-6.35
 74
     0
  0
LTYPE
  5
4FD
330
431
100
AcDbSymbolTableRecord
100
AcDbLinetypeTableRecord
  2
PHANTOM2
 70
     0
  3
Phantom (.5x) ___ _ _ ___ _ _ ___ _ _ ___ _ _
 72
    65
 73
     6
 40
31.75
 49
15.875
 74
     0
 49
-3.175
 74
     0
 49
3.175
 74
     0
 49
-3.175
 74
     0
 49
3.175
 74
     0
 49
-3.175
 74
     0
  0
LTYPE
  5
4FE
330
431
100
AcDbSymbolTableRecord
100
AcDbLinetypeTableRecord
  2
HIDDENX2
 70
     0
  3
Hidden (2x) ____ ____ ____ ____ ____ ____ ____ 
 72
    65
 73
     2
 40
19.05
 49
12.7
 74
     0
 49
-6.35
 74
     0
  0
LTYPE
  5
500
330
431
100
AcDbSymbolTableRecord
100
AcDbLinetypeTableRecord
  2
HOT_WATER_SUPPLY
 70
     0
  3
Hot water supply ---- HW ---- HW ---- HW ----
 72
    65
 73
     3
 40
22.86
 49
12.7
 74
     0
 49
-5.08
 74
     2
 75
     0
340
4FF
 46
2.54
 50
0.0
 44
-2.54
 45
-1.27
  9
HW
 49
-5.08
 74
     0
  0
LTYPE
  5
503
330
431
100
AcDbSymbolTableRecord
100
AcDbLinetypeTableRecord
  2
ZIGZAG
 70
     0
  3
Zig zag /\/\/\/\/\/\/\/\/\/\/\/\/\/\/\/\/\/\/\/\/\/\/\/
 72
    65
 73
     4
 40
20.32254
 49
0.00254
 74
     0
 49
-5.08
 74
     2
 75
     0
340
501
 46
5.08
 50
0.0
 44
-5.08
 45
0.0
  9
ZIG
 49
-10.16
 74
     2
 75
     0
340
502
 46
5.08
 50
180.0
 44
5.08
 45
0.0
  9
ZIG
 49
-5.08
 74
     0
  0
LTYPE
  5
504
330
431
100
AcDbSymbolTableRecord
100
AcDbLinetypeTableRecord
  2
PHANTOMX2
 70
     0
  3
Phantom (2x) ____________    ____    ____   _
 72
    65
 73
     6
 40
127.0
 49
63.5
 74
     0
 49
-12.7
 74
     0
 49
12.7
 74
     0
 49
-12.7
 74
     0
 49
12.7
 74
     0
 49
-12.7
 74
     0
  0
LTYPE
  5
506
330
431
100
AcDbSymbolTableRecord
100
AcDbLinetypeTableRecord
  2
TRACKS
 70
     0
  3
Tracks -|-|-|-|-|-|-|-|-|-|-|-|-|-|-|-|-|-|-|-|-|-|-|-|-
 72
    65
 73
     2
 40
7.62
 49
3.81
 74
     2
 75
     0
340
505
 46
6.35
 50
0.0
 44
0.0
 45
0.0
  9
TRACK1
 49
3.81
 74
     0
  0
ENDTAB
  0
TABLE
  2
LAYER
  5
42F
330
0
100
AcDbSymbolTable
 70
     1
  0
LAYER
  5
43C
330
42F
100
AcDbSymbolTableRecord
100
AcDbLayerTableRecord
  2
0
 70
     0
 62
   178
420
        0
  6
Continuous
370
    25
390
43B
347
471
348
0
  0
ENDTAB
  0
TABLE
  2
STYLE
  5
430
330
0
100
AcDbSymbolTable
 70
    12
  0
STYLE
  5
43D
330
430
100
AcDbSymbolTableRecord
100
AcDbTextStyleTableRecord
  2
Standard
 70
     0
 40
0.0
 41
1.0
 50
0.0
 71
     0
 42
0.2
  3
txt
  4

  0
STYLE
  5
4D9
330
430
100
AcDbSymbolTableRecord
100
AcDbTextStyleTableRecord
  2
textstyle0
 70
     0
 40
0.0
 41
1.0
 50
0.0
 71
     0
 42
0.2
  3
ltypeshp.shx
  4

  0
STYLE
  5
4DA
330
430
100
AcDbSymbolTableRecord
100
AcDbTextStyleTableRecord
  2
textstyle1
 70
     0
 40
0.0
 41
1.0
 50
0.0
 71
     0
 42
0.2
  3
ltypeshp.shx
  4

  0
STYLE
  5
4EF
330
430
100
AcDbSymbolTableRecord
100
AcDbTextStyleTableRecord
  2
textstyle2
 70
     0
 40
0.0
 41
1.0
 50
0.0
 71
     0
 42
0.2
  3
qcadshp.shx
  4

  0
STYLE
  5
4F1
330
430
100
AcDbSymbolTableRecord
100
AcDbTextStyleTableRecord
  2
textstyle3
 70
     0
 40
0.0
 41
1.0
 50
0.0
 71
     0
 42
0.2
  3
ltypeshp.shx
  4

  0
STYLE
  5
4F4
330
430
100
AcDbSymbolTableRecord
100
AcDbTextStyleTableRecord
  2
textstyle4
 70
     0
 40
0.0
 41
1.0
 50
0.0
 71
     0
 42
0.2
  3
qcadshp.shx
  4

  0
STYLE
  5
4F8
330
430
100
AcDbSymbolTableRecord
100
AcDbTextStyleTableRecord
  2
textstyle5
 70
     0
 40
0.0
 41
1.0
 50
0.0
 71
     0
 42
0.2
  3
ltypeshp.shx
  4

  0
STYLE
  5
4FA
330
430
100
AcDbSymbolTableRecord
100
AcDbTextStyleTableRecord
  2
textstyle6
 70
     0
 40
0.0
 41
1.0
 50
0.0
 71
     0
 42
0.2
  3
STANDARD
  4

  0
STYLE
  5
4FF
330
430
100
AcDbSymbolTableRecord
100
AcDbTextStyleTableRecord
  2
textstyle7
 70
     0
 40
0.0
 41
1.0
 50
0.0
 71
     0
 42
0.2
  3
STANDARD
  4

  0
STYLE
  5
501
330
430
100
AcDbSymbolTableRecord
100
AcDbTextStyleTableRecord
  2
textstyle8
 70
     0
 40
0.0
 41
1.0
 50
0.0
 71
     0
 42
0.2
  3
ltypeshp.shx
  4

  0
STYLE
  5
502
330
430
100
AcDbSymbolTableRecord
100
AcDbTextStyleTableRecord
  2
textstyle9
 70
     0
 40
0.0
 41
1.0
 50
0.0
 71
     0
 42
0.2
  3
ltypeshp.shx
  4

  0
STYLE
  5
505
330
430
100
AcDbSymbolTableRecord
100
AcDbTextStyleTableRecord
  2
textstyle10
 70
     0
 40
0.0
 41
1.0
 50
0.0
 71
     0
 42
0.2
  3
ltypeshp.shx
  4

  0
ENDTAB
  0
TABLE
  2
VIEW
  5
432
330
0
100
AcDbSymbolTable
 70
     0
  0
ENDTAB
  0
TABLE
  2
UCS
  5
433
330
0
100
AcDbSymbolTable
 70
     0
  0
ENDTAB
  0
TABLE
  2
APPID
  5
435
330
0
100
AcDbSymbolTable
 70
     2
  0
APPID
  5
43E
330
435
100
AcDbSymbolTableRecord
100
AcDbRegAppTableRecord
  2
ACAD
 70
     0
  0
APPID
  5
499
330
435
100
AcDbSymbolTableRecord
100
AcDbRegAppTableRecord
  2
QCAD
 70
     0
  0
ENDTAB
  0
TABLE
  2
DIMSTYLE
  5
436
330
0
100
AcDbSymbolTable
 70
     2
100
AcDbDimStyleTable
  0
DIMSTYLE
105
452
330
436
100
AcDbSymbolTableRecord
100
AcDbDimStyleTableRecord
  2
Standard
 70
     0
178
     0
340
43D
  0
DIMSTYLE
105
4CC
330
436
100
AcDbSymbolTableRecord
100
AcDbDimStyleTableRecord
  2
QCADDimStyle
 70
     0
 41
2.5
 42
0.625
 44
1.25
 73
     0
 77
     1
140
2.5
147
0.625
178
     0
340
43D
  0
ENDTAB
  0
TABLE
  2
BLOCK_RECORD
  5
42E
330
0
100
AcDbSymbolTable
 70
     0
  0
BLOCK_RECORD
  5
44A
330
42E
100
AcDbSymbolTableRecord
100
AcDbBlockTableRecord
  2
*Model_Space
340
44D
 70
     0
280
     1
281
     0
  0
BLOCK_RECORD
  5
446
330
42E
100
AcDbSymbolTableRecord
100
AcDbBlockTableRecord
  2
*Paper_Space
340
449
 70
     0
280
     1
281
     0
  0
ENDTAB
  0
ENDSEC
  0
SECTION
  2
BLOCKS
  0
BLOCK
  5
44B
330
44A
100
AcDbEntity
  8
0
100
AcDbBlockBegin
  2
*Model_Space
 70
     0
 10
0.0
 20
0.0
 30
0.0
  3
*Model_Space
  1

  0
ENDBLK
  5
44C
330
44A
100
AcDbEntity
  8
0
100
AcDbBlockEnd
  0
BLOCK
  5
447
330
446
100
AcDbEntity
 67
     1
  8
0
100
AcDbBlockBegin
  2
*Paper_Space
 70
     0
 10
0.0
 20
0.0
 30
0.0
  3
*Paper_Space
  1

  0
ENDBLK
  5
448
330
446
100
AcDbEntity
 67
     1
  8
0
100
AcDbBlockEnd
  0
ENDSEC
  0
SECTION
  2
ENTITIES
  0
LINE
  5
38
330
44A
100
AcDbEntity
  8
0
100
AcDbLine
 10
0.0
 20
0.0
 30
0.0
 11
150.0
 21
0.0
 31
0.0
  0
LINE
  5
3C
330
44A
100
AcDbEntity
  8
0
 62
     1
420
 16711680
370
     5
100
AcDbLine
 10
27.1363929581753
 20
47.60000000000002
 30
0.0
 11
29.2363929581753
 21
47.60000000000002
 31
0.0
  0
LINE
  5
66
330
44A
100
AcDbEntity
  8
0
 62
     1
420
 16711680
370
     5
100
AcDbLine
 10
60.40112625630081
 20
2.344797035768504
 30
0.0
 11
58.30112625630083
 21
2.344797035768504
 31
0.0
  0
LINE
  5
1DC
330
44A
100
AcDbEntity
  8
0
 62
     1
420
 16711680
370
     5
100
AcDbLine
 10
89.46864006116427
 20
47.60000000000002
 30
0.0
 11
91.56864006116426
 21
47.60000000000002
 31
0.0
  0
LINE
  5
208
330
44A
100
AcDbEntity
  8
0
 62
     1
420
 16711680
370
     5
100
AcDbLine
 10
122.7358920188531
 20
2.344797035768483
 30
0.0
 11
120.6358920188531
 21
2.344797035768483
 31
0.0
  0
LINE
  5
383
330
44A
100
AcDbEntity
  8
0
 62
     1
420
 16711680
370
     5
100
AcDbLine
 10
27.10005696566452
 20
97.54625887684671
 30
0.0
 11
29.20005696566452
 21
97.54625887684671
 31
0.0
  0
LINE
  5
384
330
44A
100
AcDbEntity
  8
0
 62
     1
420
 16711680
370
     5
100
AcDbLine
 10
60.36479026379003
 20
52.29105591261519
 30
0.0
 11
58.26479026379005
 21
52.29105591261519
 31
0.0
  0
LINE
  5
385
330
44A
100
AcDbEntity
  8
0
 62
     1
420
 16711680
370
     5
100
AcDbLine
 10
89.43230406865348
 20
97.54625887684671
 30
0.0
 11
91.53230406865347
 21
97.54625887684671
 31
0.0
  0
LINE
  5
386
330
44A
100
AcDbEntity
  8
0
 62
     1
420
 16711680
370
     5
100
AcDbLine
 10
122.6995560263423
 20
52.29105591261518
 30
0.0
 11
120.5995560263423
 21
52.29105591261518
 31
0.0
  0
LINE
  5
39
330
44A
100
AcDbEntity
  8
0
100
AcDbLine
 10
150.0
 20
0.0
 30
0.0
 11
150.0
 21
100.0
 31
0.0
  0
LINE
  5
3D
330
44A
100
AcDbEntity
  8
0
 62
     1
420
 16711680
370
     5
100
AcDbLine
 10
29.2363929581753
 20
47.60000000000002
 30
0.0
 11
29.2363929581753
 21
46.40000000000001
 31
0.0
  0
LINE
  5
67
330
44A
100
AcDbEntity
  8
0
 62
     1
420
 16711680
370
     5
100
AcDbLine
 10
58.30112625630083
 20
2.344797035768504
 30
0.0
 11
58.30112625630081
 21
3.544797035768507
 31
0.0
  0
LINE
  5
1DD
330
44A
100
AcDbEntity
  8
0
 62
     1
420
 16711680
370
     5
100
AcDbLine
 10
91.56864006116426
 20
47.60000000000002
 30
0.0
 11
91.56864006116426
 21
46.40000000000001
 31
0.0
  0
LINE
  5
209
330
44A
100
AcDbEntity
  8
0
 62
     1
420
 16711680
370
     5
100
AcDbLine
 10
120.6358920188531
 20
2.344797035768483
 30
0.0
 11
120.6358920188531
 21
3.544797035768486
 31
0.0
  0
LINE
  5
387
330
44A
100
AcDbEntity
  8
0
 62
     1
420
 16711680
370
     5
100
AcDbLine
 10
29.20005696566452
 20
97.54625887684671
 30
0.0
 11
29.20005696566452
 21
96.3462588768467
 31
0.0
  0
LINE
  5
388
330
44A
100
AcDbEntity
  8
0
 62
     1
420
 16711680
370
     5
100
AcDbLine
 10
58.26479026379005
 20
52.29105591261519
 30
0.0
 11
58.26479026379003
 21
53.4910559126152
 31
0.0
  0
LINE
  5
389
330
44A
100
AcDbEntity
  8
0
 62
     1
420
 16711680
370
     5
100
AcDbLine
 10
91.53230406865347
 20
97.54625887684671
 30
0.0
 11
91.53230406865347
 21
96.3462588768467
 31
0.0
  0
LINE
  5
38A
330
44A
100
AcDbEntity
  8
0
 62
     1
420
 16711680
370
     5
100
AcDbLine
 10
120.5995560263423
 20
52.29105591261518
 30
0.0
 11
120.5995560263423
 21
53.49105591261518
 31
0.0
  0
LINE
  5
3A
330
44A
100
AcDbEntity
  8
0
100
AcDbLine
 10
150.0
 20
100.0
 30
0.0
 11
0.0
 21
100.0
 31
0.0
  0
LINE
  5
3E
330
44A
100
AcDbEntity
  8
0
 62
     1
420
 16711680
370
     5
100
AcDbLine
 10
27.1363929581753
 20
46.40000000000001
 30
0.0
 11
27.1363929581753
 21
47.60000000000002
 31
0.0
  0
LINE
  5
68
330
44A
100
AcDbEntity
  8
0
 62
     1
420
 16711680
370
     5
100
AcDbLine
 10
60.40112625630082
 20
3.544797035768507
 30
0.0
 11
60.40112625630081
 21
2.344797035768504
 31
0.0
  0
LINE
  5
1DE
330
44A
100
AcDbEntity
  8
0
 62
     1
420
 16711680
370
     5
100
AcDbLine
 10
89.46864006116427
 20
46.40000000000001
 30
0.0
 11
89.46864006116427
 21
47.60000000000002
 31
0.0
  0
LINE
  5
20A
330
44A
100
AcDbEntity
  8
0
 62
     1
420
 16711680
370
     5
100
AcDbLine
 10
122.7358920188531
 20
3.544797035768486
 30
0.0
 11
122.7358920188531
 21
2.344797035768483
 31
0.0
  0
LINE
  5
38B
330
44A
100
AcDbEntity
  8
0
 62
     1
420
 16711680
370
     5
100
AcDbLine
 10
27.10005696566452
 20
96.3462588768467
 30
0.0
 11
27.10005696566452
 21
97.54625887684671
 31
0.0
  0
LINE
  5
38C
330
44A
100
AcDbEntity
  8
0
 62
     1
420
 16711680
370
     5
100
AcDbLine
 10
60.36479026379004
 20
53.4910559126152
 30
0.0
 11
60.36479026379003
 21
52.29105591261519
 31
0.0
  0
LINE
  5
38D
330
44A
100
AcDbEntity
  8
0
 62
     1
420
 16711680
370
     5
100
AcDbLine
 10
89.43230406865348
 20
96.3462588768467
 30
0.0
 11
89.43230406865348
 21
97.54625887684671
 31
0.0
  0
LINE
  5
38E
330
44A
100
AcDbEntity
  8
0
 62
     1
420
 16711680
370
     5
100
AcDbLine
 10
122.6995560263423
 20
53.49105591261518
 30
0.0
 11
122.6995560263423
 21
52.29105591261518
 31
0.0
  0
LINE
  5
3B
330
44A
100
AcDbEntity
  8
0
100
AcDbLine
 10
0.0
 20
100.0
 30
0.0
 11
0.0
 21
0.0
 31
0.0
  0
LINE
  5
3F
330
44A
100
AcDbEntity
  8
0
 62
     1
420
 16711680
370
     5
100
AcDbLine
 10
51.5604639581753
 20
6.423557000000024
 30
0.0
 11
49.3104639581753
 21
2.526443000000022
 31
0.0
  0
LINE
  5
69
330
44A
100
AcDbEntity
  8
0
 62
     1
420
 16711680
370
     5
100
AcDbLine
 10
35.97705525630082
 20
43.52124003576851
 30
0.0
 11
38.22705525630082
 21
47.41835403576854
 31
0.0
  0
LINE
  5
1DF
330
44A
100
AcDbEntity
  8
0
 62
     1
420
 16711680
370
     5
100
AcDbLine
 10
113.8927110611643
 20
6.423557000000024
 30
0.0
 11
111.6427110611643
 21
2.526443000000022
 31
0.0
  0
LINE
  5
20B
330
44A
100
AcDbEntity
  8
0
 62
     1
420
 16711680
370
     5
100
AcDbLine
 10
98.31182101885314
 20
43.52124003576849
 30
0.0
 11
100.5618210188531
 21
47.41835403576852
 31
0.0
  0
LINE
  5
38F
330
44A
100
AcDbEntity
  8
0
 62
     1
420
 16711680
370
     5
100
AcDbLine
 10
51.52412796566453
 20
56.36981587684672
 30
0.0
 11
49.27412796566453
 21
52.47270187684671
 31
0.0
  0
LINE
  5
390
330
44A
100
AcDbEntity
  8
0
 62
     1
420
 16711680
370
     5
100
AcDbLine
 10
35.94071926379004
 20
93.4674989126152
 30
0.0
 11
38.19071926379004
 21
97.36461291261523
 31
0.0
  0
LINE
  5
391
330
44A
100
AcDbEntity
  8
0
 62
     1
420
 16711680
370
     5
100
AcDbLine
 10
113.8563750686535
 20
56.36981587684672
 30
0.0
 11
111.6063750686535
 21
52.47270187684671
 31
0.0
  0
LINE
  5
392
330
44A
100
AcDbEntity
  8
0
 62
     1
420
 16711680
370
     5
100
AcDbLine
 10
98.27548502634235
 20
93.46749891261518
 30
0.0
 11
100.5254850263424
 21
97.3646129126152
 31
0.0
  0
LINE
  5
40
330
44A
100
AcDbEntity
  8
0
 62
     1
420
 16711680
370
     5
100
AcDbLine
 10
51.47552795817529
 20
1.276443000000022
 30
0.0
 11
51.6920339581753
 21
1.151443000000022
 31
0.0
  0
LINE
  5
6A
330
44A
100
AcDbEntity
  8
0
 62
     1
420
 16711680
370
     5
100
AcDbLine
 10
36.06199125630084
 20
48.66835403576848
 30
0.0
 11
35.84548525630083
 21
48.79335403576849
 31
0.0
  0
LINE
  5
1E0
330
44A
100
AcDbEntity
  8
0
 62
     1
420
 16711680
370
     5
100
AcDbLine
 10
113.8077750611643
 20
1.276443000000022
 30
0.0
 11
114.0242810611643
 21
1.151443000000022
 31
0.0
  0
LINE
  5
20C
330
44A
100
AcDbEntity
  8
0
 62
     1
420
 16711680
370
     5
100
AcDbLine
 10
98.39675701885314
 20
48.66835403576846
 30
0.0
 11
98.18025101885313
 21
48.79335403576847
 31
0.0
  0
LINE
  5
393
330
44A
100
AcDbEntity
  8
0
 62
     1
420
 16711680
370
     5
100
AcDbLine
 10
51.43919196566451
 20
51.22270187684671
 30
0.0
 11
51.65569796566452
 21
51.09770187684671
 31
0.0
  0
LINE
  5
394
330
44A
100
AcDbEntity
  8
0
 62
     1
420
 16711680
370
     5
100
AcDbLine
 10
36.02565526379006
 20
98.61461291261517
 30
0.0
 11
35.80914926379005
 21
98.73961291261519
 31
0.0
  0
LINE
  5
395
330
44A
100
AcDbEntity
  8
0
 62
     1
420
 16711680
370
     5
100
AcDbLine
 10
113.7714390686535
 20
51.22270187684671
 30
0.0
 11
113.9879450686535
 21
51.09770187684671
 31
0.0
  0
LINE
  5
396
330
44A
100
AcDbEntity
  8
0
 62
     1
420
 16711680
370
     5
100
AcDbLine
 10
98.36042102634235
 20
98.61461291261514
 30
0.0
 11
98.14391502634234
 21
98.73961291261517
 31
0.0
  0
LINE
  5
41
330
44A
100
AcDbEntity
  8
0
 62
     1
420
 16711680
370
     5
100
AcDbLine
 10
53.9420339581753
 20
5.048557000000024
 30
0.0
 11
51.5604639581753
 21
6.423557000000024
 31
0.0
  0
LINE
  5
6B
330
44A
100
AcDbEntity
  8
0
 62
     1
420
 16711680
370
     5
100
AcDbLine
 10
33.59548525630083
 20
44.89624003576849
 30
0.0
 11
35.97705525630082
 21
43.52124003576851
 31
0.0
  0
LINE
  5
1E1
330
44A
100
AcDbEntity
  8
0
 62
     1
420
 16711680
370
     5
100
AcDbLine
 10
116.2742810611643
 20
5.048557000000024
 30
0.0
 11
113.8927110611643
 21
6.423557000000024
 31
0.0
  0
LINE
  5
20D
330
44A
100
AcDbEntity
  8
0
 62
     1
420
 16711680
370
     5
100
AcDbLine
 10
95.93025101885313
 20
44.89624003576847
 30
0.0
 11
98.31182101885314
 21
43.52124003576849
 31
0.0
  0
LINE
  5
397
330
44A
100
AcDbEntity
  8
0
 62
     1
420
 16711680
370
     5
100
AcDbLine
 10
53.90569796566452
 20
54.99481587684672
 30
0.0
 11
51.52412796566453
 21
56.36981587684672
 31
0.0
  0
LINE
  5
398
330
44A
100
AcDbEntity
  8
0
 62
     1
420
 16711680
370
     5
100
AcDbLine
 10
33.55914926379005
 20
94.84249891261518
 30
0.0
 11
35.94071926379004
 21
93.4674989126152
 31
0.0
  0
LINE
  5
399
330
44A
100
AcDbEntity
  8
0
 62
     1
420
 16711680
370
     5
100
AcDbLine
 10
116.2379450686535
 20
54.99481587684672
 30
0.0
 11
113.8563750686535
 21
56.36981587684672
 31
0.0
  0
LINE
  5
39A
330
44A
100
AcDbEntity
  8
0
 62
     1
420
 16711680
370
     5
100
AcDbLine
 10
95.89391502634234
 20
94.84249891261516
 30
0.0
 11
98.27548502634235
 21
93.46749891261518
 31
0.0
  0
LINE
  5
42
330
44A
100
AcDbEntity
  8
0
 62
     1
420
 16711680
370
     5
100
AcDbLine
 10
49.3104639581753
 20
2.526443000000022
 30
0.0
 11
51.47552795817529
 21
1.276443000000022
 31
0.0
  0
LINE
  5
6C
330
44A
100
AcDbEntity
  8
0
 62
     1
420
 16711680
370
     5
100
AcDbLine
 10
38.22705525630082
 20
47.41835403576854
 30
0.0
 11
36.06199125630084
 21
48.66835403576848
 31
0.0
  0
LINE
  5
1E2
330
44A
100
AcDbEntity
  8
0
 62
     1
420
 16711680
370
     5
100
AcDbLine
 10
111.6427110611643
 20
2.526443000000022
 30
0.0
 11
113.8077750611643
 21
1.276443000000022
 31
0.0
  0
LINE
  5
20E
330
44A
100
AcDbEntity
  8
0
 62
     1
420
 16711680
370
     5
100
AcDbLine
 10
100.5618210188531
 20
47.41835403576852
 30
0.0
 11
98.39675701885314
 21
48.66835403576846
 31
0.0
  0
LINE
  5
39B
330
44A
100
AcDbEntity
  8
0
 62
     1
420
 16711680
370
     5
100
AcDbLine
 10
49.27412796566453
 20
52.47270187684671
 30
0.0
 11
51.43919196566451
 21
51.22270187684671
 31
0.0
  0
LINE
  5
39C
330
44A
100
AcDbEntity
  8
0
 62
     1
420
 16711680
370
     5
100
AcDbLine
 10
38.19071926379004
 20
97.36461291261523
 30
0.0
 11
36.02565526379006
 21
98.61461291261517
 31
0.0
  0
LINE
  5
39D
330
44A
100
AcDbEntity
  8
0
 62
     1
420
 16711680
370
     5
100
AcDbLine
 10
111.6063750686535
 20
52.47270187684671
 30
0.0
 11
113.7714390686535
 21
51.22270187684671
 31
0.0
  0
LINE
  5
39E
330
44A
100
AcDbEntity
  8
0
 62
     1
420
 16711680
370
     5
100
AcDbLine
 10
100.5254850263424
 20
97.3646129126152
 30
0.0
 11
98.36042102634235
 21
98.61461291261514
 31
0.0
  0
LINE
  5
43
330
44A
100
AcDbEntity
  8
0
 62
     1
420
 16711680
370
     5
100
AcDbLine
 10
4.812319958175302
 20
6.423557000000024
 30
0.0
 11
2.647255958175301
 21
5.173557000000024
 31
0.0
  0
LINE
  5
6D
330
44A
100
AcDbEntity
  8
0
 62
     1
420
 16711680
370
     5
100
AcDbLine
 10
82.72519925630081
 20
43.52124003576848
 30
0.0
 11
84.89026325630081
 21
44.77124003576849
 31
0.0
  0
LINE
  5
1E3
330
44A
100
AcDbEntity
  8
0
 62
     1
420
 16711680
370
     5
100
AcDbLine
 10
67.14456706116427
 20
6.423557000000024
 30
0.0
 11
64.97950306116427
 21
5.173557000000024
 31
0.0
  0
LINE
  5
20F
330
44A
100
AcDbEntity
  8
0
 62
     1
420
 16711680
370
     5
100
AcDbLine
 10
145.0599650188531
 20
43.52124003576846
 30
0.0
 11
147.2250290188531
 21
44.77124003576846
 31
0.0
  0
LINE
  5
39F
330
44A
100
AcDbEntity
  8
0
 62
     1
420
 16711680
370
     5
100
AcDbLine
 10
4.775983965664524
 20
56.36981587684672
 30
0.0
 11
2.610919965664523
 21
55.11981587684672
 31
0.0
  0
LINE
  5
3A0
330
44A
100
AcDbEntity
  8
0
 62
     1
420
 16711680
370
     5
100
AcDbLine
 10
82.68886326379004
 20
93.46749891261517
 30
0.0
 11
84.85392726379004
 21
94.71749891261518
 31
0.0
  0
LINE
  5
3A1
330
44A
100
AcDbEntity
  8
0
 62
     1
420
 16711680
370
     5
100
AcDbLine
 10
67.10823106865348
 20
56.36981587684672
 30
0.0
 11
64.94316706865348
 21
55.11981587684672
 31
0.0
  0
LINE
  5
3A2
330
44A
100
AcDbEntity
  8
0
 62
     1
420
 16711680
370
     5
100
AcDbLine
 10
145.0236290263423
 20
93.46749891261516
 30
0.0
 11
147.1886930263424
 21
94.71749891261516
 31
0.0
  0
LINE
  5
44
330
44A
100
AcDbEntity
  8
0
 62
     1
420
 16711680
370
     5
100
AcDbLine
 10
4.680749958175302
 20
1.151443000000022
 30
0.0
 11
7.062319958175302
 21
2.526443000000022
 31
0.0
  0
LINE
  5
6E
330
44A
100
AcDbEntity
  8
0
 62
     1
420
 16711680
370
     5
100
AcDbLine
 10
82.85676925630082
 20
48.79335403576844
 30
0.0
 11
80.47519925630081
 21
47.41835403576849
 31
0.0
  0
LINE
  5
1E4
330
44A
100
AcDbEntity
  8
0
 62
     1
420
 16711680
370
     5
100
AcDbLine
 10
67.01299706116427
 20
1.151443000000022
 30
0.0
 11
69.39456706116427
 21
2.526443000000022
 31
0.0
  0
LINE
  5
210
330
44A
100
AcDbEntity
  8
0
 62
     1
420
 16711680
370
     5
100
AcDbLine
 10
145.1915350188531
 20
48.79335403576842
 30
0.0
 11
142.8099650188531
 21
47.41835403576847
 31
0.0
  0
LINE
  5
3A3
330
44A
100
AcDbEntity
  8
0
 62
     1
420
 16711680
370
     5
100
AcDbLine
 10
4.644413965664524
 20
51.09770187684671
 30
0.0
 11
7.025983965664524
 21
52.47270187684671
 31
0.0
  0
LINE
  5
3A4
330
44A
100
AcDbEntity
  8
0
 62
     1
420
 16711680
370
     5
100
AcDbLine
 10
82.82043326379005
 20
98.73961291261513
 30
0.0
 11
80.43886326379004
 21
97.36461291261519
 31
0.0
  0
LINE
  5
3A5
330
44A
100
AcDbEntity
  8
0
 62
     1
420
 16711680
370
     5
100
AcDbLine
 10
66.9766610686535
 20
51.09770187684671
 30
0.0
 11
69.35823106865348
 21
52.47270187684671
 31
0.0
  0
LINE
  5
3A6
330
44A
100
AcDbEntity
  8
0
 62
     1
420
 16711680
370
     5
100
AcDbLine
 10
145.1551990263424
 20
98.73961291261512
 30
0.0
 11
142.7736290263423
 21
97.36461291261516
 31
0.0
  0
LINE
  5
45
330
44A
100
AcDbEntity
  8
0
 62
     1
420
 16711680
370
     5
100
AcDbLine
 10
7.062319958175302
 20
2.526443000000022
 30
0.0
 11
4.812319958175302
 21
6.423557000000024
 31
0.0
  0
LINE
  5
6F
330
44A
100
AcDbEntity
  8
0
 62
     1
420
 16711680
370
     5
100
AcDbLine
 10
80.47519925630081
 20
47.41835403576849
 30
0.0
 11
82.72519925630081
 21
43.52124003576848
 31
0.0
  0
LINE
  5
1E5
330
44A
100
AcDbEntity
  8
0
 62
     1
420
 16711680
370
     5
100
AcDbLine
 10
69.39456706116427
 20
2.526443000000022
 30
0.0
 11
67.14456706116427
 21
6.423557000000024
 31
0.0
  0
LINE
  5
211
330
44A
100
AcDbEntity
  8
0
 62
     1
420
 16711680
370
     5
100
AcDbLine
 10
142.8099650188531
 20
47.41835403576847
 30
0.0
 11
145.0599650188531
 21
43.52124003576846
 31
0.0
  0
LINE
  5
3A7
330
44A
100
AcDbEntity
  8
0
 62
     1
420
 16711680
370
     5
100
AcDbLine
 10
7.025983965664524
 20
52.47270187684671
 30
0.0
 11
4.775983965664524
 21
56.36981587684672
 31
0.0
  0
LINE
  5
3A8
330
44A
100
AcDbEntity
  8
0
 62
     1
420
 16711680
370
     5
100
AcDbLine
 10
80.43886326379004
 20
97.36461291261519
 30
0.0
 11
82.68886326379004
 21
93.46749891261517
 31
0.0
  0
LINE
  5
3A9
330
44A
100
AcDbEntity
  8
0
 62
     1
420
 16711680
370
     5
100
AcDbLine
 10
69.35823106865348
 20
52.47270187684671
 30
0.0
 11
67.10823106865348
 21
56.36981587684672
 31
0.0
  0
LINE
  5
3AA
330
44A
100
AcDbEntity
  8
0
 62
     1
420
 16711680
370
     5
100
AcDbLine
 10
142.7736290263423
 20
97.36461291261516
 30
0.0
 11
145.0236290263423
 21
93.46749891261516
 31
0.0
  0
LINE
  5
46
330
44A
100
AcDbEntity
  8
0
 62
     1
420
 16711680
370
     5
100
AcDbLine
 10
2.647255958175301
 20
5.173557000000024
 30
0.0
 11
2.430749958175302
 21
5.048557000000024
 31
0.0
  0
LINE
  5
70
330
44A
100
AcDbEntity
  8
0
 62
     1
420
 16711680
370
     5
100
AcDbLine
 10
84.89026325630081
 20
44.77124003576849
 30
0.0
 11
85.10676925630082
 21
44.89624003576849
 31
0.0
  0
LINE
  5
1E6
330
44A
100
AcDbEntity
  8
0
 62
     1
420
 16711680
370
     5
100
AcDbLine
 10
64.97950306116427
 20
5.173557000000024
 30
0.0
 11
64.76299706116427
 21
5.048557000000024
 31
0.0
  0
LINE
  5
212
330
44A
100
AcDbEntity
  8
0
 62
     1
420
 16711680
370
     5
100
AcDbLine
 10
147.2250290188531
 20
44.77124003576846
 30
0.0
 11
147.4415350188531
 21
44.89624003576847
 31
0.0
  0
LINE
  5
3AB
330
44A
100
AcDbEntity
  8
0
 62
     1
420
 16711680
370
     5
100
AcDbLine
 10
2.610919965664523
 20
55.11981587684672
 30
0.0
 11
2.394413965664524
 21
54.99481587684672
 31
0.0
  0
LINE
  5
3AC
330
44A
100
AcDbEntity
  8
0
 62
     1
420
 16711680
370
     5
100
AcDbLine
 10
84.85392726379004
 20
94.71749891261518
 30
0.0
 11
85.07043326379005
 21
94.84249891261518
 31
0.0
  0
LINE
  5
3AD
330
44A
100
AcDbEntity
  8
0
 62
     1
420
 16711680
370
     5
100
AcDbLine
 10
64.94316706865348
 20
55.11981587684672
 30
0.0
 11
64.7266610686535
 21
54.99481587684672
 31
0.0
  0
LINE
  5
3AE
330
44A
100
AcDbEntity
  8
0
 62
     1
420
 16711680
370
     5
100
AcDbLine
 10
147.1886930263424
 20
94.71749891261516
 30
0.0
 11
147.4051990263424
 21
94.84249891261516
 31
0.0
  0
LINE
  5
47
330
44A
100
AcDbEntity
  8
0
 62
     1
420
 16711680
370
     5
100
AcDbLine
 10
25.9363929581753
 20
43.05000000000002
 30
0.0
 11
30.4363929581753
 21
43.05000000000002
 31
0.0
  0
LINE
  5
71
330
44A
100
AcDbEntity
  8
0
 62
     1
420
 16711680
370
     5
100
AcDbLine
 10
61.60112625630082
 20
6.894797035768502
 30
0.0
 11
57.10112625630081
 21
6.894797035768502
 31
0.0
  0
LINE
  5
1E7
330
44A
100
AcDbEntity
  8
0
 62
     1
420
 16711680
370
     5
100
AcDbLine
 10
88.26864006116426
 20
43.05000000000002
 30
0.0
 11
92.76864006116426
 21
43.05000000000002
 31
0.0
  0
LINE
  5
213
330
44A
100
AcDbEntity
  8
0
 62
     1
420
 16711680
370
     5
100
AcDbLine
 10
123.9358920188531
 20
6.89479703576848
 30
0.0
 11
119.4358920188531
 21
6.89479703576848
 31
0.0
  0
LINE
  5
3AF
330
44A
100
AcDbEntity
  8
0
 62
     1
420
 16711680
370
     5
100
AcDbLine
 10
25.90005696566452
 20
92.99625887684671
 30
0.0
 11
30.40005696566452
 21
92.99625887684671
 31
0.0
  0
LINE
  5
3B0
330
44A
100
AcDbEntity
  8
0
 62
     1
420
 16711680
370
     5
100
AcDbLine
 10
61.56479026379004
 20
56.84105591261519
 30
0.0
 11
57.06479026379003
 21
56.84105591261519
 31
0.0
  0
LINE
  5
3B1
330
44A
100
AcDbEntity
  8
0
 62
     1
420
 16711680
370
     5
100
AcDbLine
 10
88.23230406865349
 20
92.99625887684671
 30
0.0
 11
92.73230406865349
 21
92.99625887684671
 31
0.0
  0
LINE
  5
3B2
330
44A
100
AcDbEntity
  8
0
 62
     1
420
 16711680
370
     5
100
AcDbLine
 10
123.8995560263423
 20
56.84105591261518
 30
0.0
 11
119.3995560263423
 21
56.84105591261518
 31
0.0
  0
LINE
  5
48
330
44A
100
AcDbEntity
  8
0
 62
     1
420
 16711680
370
     5
100
AcDbLine
 10
25.9363929581753
 20
45.80000000000002
 30
0.0
 11
25.9363929581753
 21
43.05000000000002
 31
0.0
  0
LINE
  5
72
330
44A
100
AcDbEntity
  8
0
 62
     1
420
 16711680
370
     5
100
AcDbLine
 10
61.60112625630082
 20
4.144797035768502
 30
0.0
 11
61.60112625630082
 21
6.894797035768502
 31
0.0
  0
LINE
  5
1E8
330
44A
100
AcDbEntity
  8
0
 62
     1
420
 16711680
370
     5
100
AcDbLine
 10
88.26864006116426
 20
45.80000000000002
 30
0.0
 11
88.26864006116426
 21
43.05000000000002
 31
0.0
  0
LINE
  5
214
330
44A
100
AcDbEntity
  8
0
 62
     1
420
 16711680
370
     5
100
AcDbLine
 10
123.9358920188531
 20
4.14479703576848
 30
0.0
 11
123.9358920188531
 21
6.89479703576848
 31
0.0
  0
LINE
  5
3B3
330
44A
100
AcDbEntity
  8
0
 62
     1
420
 16711680
370
     5
100
AcDbLine
 10
25.90005696566452
 20
95.74625887684671
 30
0.0
 11
25.90005696566452
 21
92.99625887684671
 31
0.0
  0
LINE
  5
3B4
330
44A
100
AcDbEntity
  8
0
 62
     1
420
 16711680
370
     5
100
AcDbLine
 10
61.56479026379004
 20
54.09105591261519
 30
0.0
 11
61.56479026379004
 21
56.84105591261519
 31
0.0
  0
LINE
  5
3B5
330
44A
100
AcDbEntity
  8
0
 62
     1
420
 16711680
370
     5
100
AcDbLine
 10
88.23230406865349
 20
95.74625887684671
 30
0.0
 11
88.23230406865349
 21
92.99625887684671
 31
0.0
  0
LINE
  5
3B6
330
44A
100
AcDbEntity
  8
0
 62
     1
420
 16711680
370
     5
100
AcDbLine
 10
123.8995560263423
 20
54.09105591261518
 30
0.0
 11
123.8995560263423
 21
56.84105591261518
 31
0.0
  0
LINE
  5
49
330
44A
100
AcDbEntity
  8
0
 62
     1
420
 16711680
370
     5
100
AcDbLine
 10
30.4363929581753
 20
45.55000000000002
 30
0.0
 11
30.4363929581753
 21
45.80000000000002
 31
0.0
  0
LINE
  5
73
330
44A
100
AcDbEntity
  8
0
 62
     1
420
 16711680
370
     5
100
AcDbLine
 10
57.10112625630082
 20
4.394797035768502
 30
0.0
 11
57.10112625630081
 21
4.144797035768509
 31
0.0
  0
LINE
  5
1E9
330
44A
100
AcDbEntity
  8
0
 62
     1
420
 16711680
370
     5
100
AcDbLine
 10
92.76864006116426
 20
45.55000000000002
 30
0.0
 11
92.76864006116426
 21
45.80000000000002
 31
0.0
  0
LINE
  5
215
330
44A
100
AcDbEntity
  8
0
 62
     1
420
 16711680
370
     5
100
AcDbLine
 10
119.4358920188531
 20
4.39479703576848
 30
0.0
 11
119.4358920188531
 21
4.144797035768487
 31
0.0
  0
LINE
  5
3B7
330
44A
100
AcDbEntity
  8
0
 62
     1
420
 16711680
370
     5
100
AcDbLine
 10
30.40005696566452
 20
95.49625887684671
 30
0.0
 11
30.40005696566452
 21
95.74625887684671
 31
0.0
  0
LINE
  5
3B8
330
44A
100
AcDbEntity
  8
0
 62
     1
420
 16711680
370
     5
100
AcDbLine
 10
57.06479026379004
 20
54.34105591261519
 30
0.0
 11
57.06479026379003
 21
54.0910559126152
 31
0.0
  0
LINE
  5
3B9
330
44A
100
AcDbEntity
  8
0
 62
     1
420
 16711680
370
     5
100
AcDbLine
 10
92.73230406865349
 20
95.49625887684671
 30
0.0
 11
92.73230406865349
 21
95.74625887684671
 31
0.0
  0
LINE
  5
3BA
330
44A
100
AcDbEntity
  8
0
 62
     1
420
 16711680
370
     5
100
AcDbLine
 10
119.3995560263423
 20
54.34105591261518
 30
0.0
 11
119.3995560263423
 21
54.09105591261518
 31
0.0
  0
LINE
  5
4A
330
44A
100
AcDbEntity
  8
0
 62
     1
420
 16711680
370
     5
100
AcDbLine
 10
30.4363929581753
 20
43.05000000000002
 30
0.0
 11
30.4363929581753
 21
45.55000000000002
 31
0.0
  0
LINE
  5
74
330
44A
100
AcDbEntity
  8
0
 62
     1
420
 16711680
370
     5
100
AcDbLine
 10
57.10112625630081
 20
6.894797035768502
 30
0.0
 11
57.10112625630082
 21
4.394797035768502
 31
0.0
  0
LINE
  5
1EA
330
44A
100
AcDbEntity
  8
0
 62
     1
420
 16711680
370
     5
100
AcDbLine
 10
92.76864006116426
 20
43.05000000000002
 30
0.0
 11
92.76864006116426
 21
45.55000000000002
 31
0.0
  0
LINE
  5
216
330
44A
100
AcDbEntity
  8
0
 62
     1
420
 16711680
370
     5
100
AcDbLine
 10
119.4358920188531
 20
6.89479703576848
 30
0.0
 11
119.4358920188531
 21
4.39479703576848
 31
0.0
  0
LINE
  5
3BB
330
44A
100
AcDbEntity
  8
0
 62
     1
420
 16711680
370
     5
100
AcDbLine
 10
30.40005696566452
 20
92.99625887684671
 30
0.0
 11
30.40005696566452
 21
95.49625887684671
 31
0.0
  0
LINE
  5
3BC
330
44A
100
AcDbEntity
  8
0
 62
     1
420
 16711680
370
     5
100
AcDbLine
 10
57.06479026379003
 20
56.84105591261519
 30
0.0
 11
57.06479026379004
 21
54.34105591261519
 31
0.0
  0
LINE
  5
3BD
330
44A
100
AcDbEntity
  8
0
 62
     1
420
 16711680
370
     5
100
AcDbLine
 10
92.73230406865349
 20
92.99625887684671
 30
0.0
 11
92.73230406865349
 21
95.49625887684671
 31
0.0
  0
LINE
  5
3BE
330
44A
100
AcDbEntity
  8
0
 62
     1
420
 16711680
370
     5
100
AcDbLine
 10
119.3995560263423
 20
56.84105591261518
 30
0.0
 11
119.3995560263423
 21
54.34105591261518
 31
0.0
  0
LINE
  5
4B
330
44A
100
AcDbEntity
  8
0
 62
     1
420
 16711680
370
     5
100
AcDbLine
 10
2.521903958175302
 20
1.290673000000034
 30
0.0
 11
1.471903958175301
 21
3.109327000000022
 31
0.0
  0
LINE
  5
75
330
44A
100
AcDbEntity
  8
0
 62
     1
420
 16711680
370
     5
100
AcDbLine
 10
85.01561525630083
 20
48.65412403576853
 30
0.0
 11
86.06561525630082
 21
46.83547003576887
 31
0.0
  0
LINE
  5
1EB
330
44A
100
AcDbEntity
  8
0
 62
     1
420
 16711680
370
     5
100
AcDbLine
 10
64.85415106116427
 20
1.290673000000034
 30
0.0
 11
63.80415106116426
 21
3.109327000000022
 31
0.0
  0
LINE
  5
217
330
44A
100
AcDbEntity
  8
0
 62
     1
420
 16711680
370
     5
100
AcDbLine
 10
147.3503810188531
 20
48.65412403576841
 30
0.0
 11
148.4003810188531
 21
46.83547003576885
 31
0.0
  0
LINE
  5
3BF
330
44A
100
AcDbEntity
  8
0
 62
     1
420
 16711680
370
     5
100
AcDbLine
 10
2.485567965664523
 20
51.23693187684673
 30
0.0
 11
1.435567965664522
 21
53.05558587684671
 31
0.0
  0
LINE
  5
3C0
330
44A
100
AcDbEntity
  8
0
 62
     1
420
 16711680
370
     5
100
AcDbLine
 10
84.97927926379006
 20
98.60038291261522
 30
0.0
 11
86.02927926379004
 21
96.78172891261556
 31
0.0
  0
LINE
  5
3C1
330
44A
100
AcDbEntity
  8
0
 62
     1
420
 16711680
370
     5
100
AcDbLine
 10
64.81781506865349
 20
51.23693187684673
 30
0.0
 11
63.76781506865348
 21
53.05558587684671
 31
0.0
  0
LINE
  5
3C2
330
44A
100
AcDbEntity
  8
0
 62
     1
420
 16711680
370
     5
100
AcDbLine
 10
147.3140450263423
 20
98.6003829126151
 30
0.0
 11
148.3640450263424
 21
96.78172891261553
 31
0.0
  0
LINE
  5
4C
330
44A
100
AcDbEntity
  8
0
 62
     1
420
 16711680
370
     5
100
AcDbLine
 10
1.471903958175301
 20
3.109327000000022
 30
0.0
 11
2.511133958175301
 21
3.709327000000023
 31
0.0
  0
LINE
  5
76
330
44A
100
AcDbEntity
  8
0
 62
     1
420
 16711680
370
     5
100
AcDbLine
 10
86.06561525630082
 20
46.83547003576887
 30
0.0
 11
85.02638525630081
 21
46.23547003576852
 31
0.0
  0
LINE
  5
1EC
330
44A
100
AcDbEntity
  8
0
 62
     1
420
 16711680
370
     5
100
AcDbLine
 10
63.80415106116426
 20
3.109327000000022
 30
0.0
 11
64.84338106116427
 21
3.709327000000023
 31
0.0
  0
LINE
  5
218
330
44A
100
AcDbEntity
  8
0
 62
     1
420
 16711680
370
     5
100
AcDbLine
 10
148.4003810188531
 20
46.83547003576885
 30
0.0
 11
147.3611510188531
 21
46.2354700357685
 31
0.0
  0
LINE
  5
3C3
330
44A
100
AcDbEntity
  8
0
 62
     1
420
 16711680
370
     5
100
AcDbLine
 10
1.435567965664522
 20
53.05558587684671
 30
0.0
 11
2.474797965664522
 21
53.65558587684671
 31
0.0
  0
LINE
  5
3C4
330
44A
100
AcDbEntity
  8
0
 62
     1
420
 16711680
370
     5
100
AcDbLine
 10
86.02927926379004
 20
96.78172891261556
 30
0.0
 11
84.99004926379004
 21
96.18172891261521
 31
0.0
  0
LINE
  5
3C5
330
44A
100
AcDbEntity
  8
0
 62
     1
420
 16711680
370
     5
100
AcDbLine
 10
63.76781506865348
 20
53.05558587684671
 30
0.0
 11
64.80704506865348
 21
53.65558587684671
 31
0.0
  0
LINE
  5
3C6
330
44A
100
AcDbEntity
  8
0
 62
     1
420
 16711680
370
     5
100
AcDbLine
 10
148.3640450263424
 20
96.78172891261553
 30
0.0
 11
147.3248150263424
 21
96.1817289126152
 31
0.0
  0
LINE
  5
4D
330
44A
100
AcDbEntity
  8
0
 62
     1
420
 16711680
370
     5
100
AcDbLine
 10
3.561133958175302
 20
1.890673000000021
 30
0.0
 11
2.521903958175302
 21
1.290673000000034
 31
0.0
  0
LINE
  5
77
330
44A
100
AcDbEntity
  8
0
 62
     1
420
 16711680
370
     5
100
AcDbLine
 10
83.97638525630083
 20
48.05412403576849
 30
0.0
 11
85.01561525630083
 21
48.65412403576853
 31
0.0
  0
LINE
  5
1ED
330
44A
100
AcDbEntity
  8
0
 62
     1
420
 16711680
370
     5
100
AcDbLine
 10
65.89338106116426
 20
1.890673000000021
 30
0.0
 11
64.85415106116427
 21
1.290673000000034
 31
0.0
  0
LINE
  5
219
330
44A
100
AcDbEntity
  8
0
 62
     1
420
 16711680
370
     5
100
AcDbLine
 10
146.3111510188531
 20
48.05412403576847
 30
0.0
 11
147.3503810188531
 21
48.65412403576841
 31
0.0
  0
LINE
  5
3C7
330
44A
100
AcDbEntity
  8
0
 62
     1
420
 16711680
370
     5
100
AcDbLine
 10
3.524797965664523
 20
51.83693187684671
 30
0.0
 11
2.485567965664523
 21
51.23693187684673
 31
0.0
  0
LINE
  5
3C8
330
44A
100
AcDbEntity
  8
0
 62
     1
420
 16711680
370
     5
100
AcDbLine
 10
83.94004926379006
 20
98.00038291261518
 30
0.0
 11
84.97927926379006
 21
98.60038291261522
 31
0.0
  0
LINE
  5
3C9
330
44A
100
AcDbEntity
  8
0
 62
     1
420
 16711680
370
     5
100
AcDbLine
 10
65.85704506865349
 20
51.83693187684671
 30
0.0
 11
64.81781506865349
 21
51.23693187684673
 31
0.0
  0
LINE
  5
3CA
330
44A
100
AcDbEntity
  8
0
 62
     1
420
 16711680
370
     5
100
AcDbLine
 10
146.2748150263424
 20
98.00038291261515
 30
0.0
 11
147.3140450263423
 21
98.6003829126151
 31
0.0
  0
LINE
  5
4E
330
44A
100
AcDbEntity
  8
0
 62
     1
420
 16711680
370
     5
100
AcDbLine
 10
54.90088095817531
 20
3.109327000000022
 30
0.0
 11
53.8508809581753
 21
1.290673000000034
 31
0.0
  0
LINE
  5
78
330
44A
100
AcDbEntity
  8
0
 62
     1
420
 16711680
370
     5
100
AcDbLine
 10
32.63663825630082
 20
46.83547003576866
 30
0.0
 11
33.68663825630082
 21
48.65412403576847
 31
0.0
  0
LINE
  5
1EE
330
44A
100
AcDbEntity
  8
0
 62
     1
420
 16711680
370
     5
100
AcDbLine
 10
117.2331280611643
 20
3.109327000000022
 30
0.0
 11
116.1831280611643
 21
1.290673000000034
 31
0.0
  0
LINE
  5
21A
330
44A
100
AcDbEntity
  8
0
 62
     1
420
 16711680
370
     5
100
AcDbLine
 10
94.97140401885314
 20
46.83547003576863
 30
0.0
 11
96.02140401885315
 21
48.65412403576845
 31
0.0
  0
LINE
  5
3CB
330
44A
100
AcDbEntity
  8
0
 62
     1
420
 16711680
370
     5
100
AcDbLine
 10
54.86454496566453
 20
53.05558587684671
 30
0.0
 11
53.81454496566452
 21
51.23693187684673
 31
0.0
  0
LINE
  5
3CC
330
44A
100
AcDbEntity
  8
0
 62
     1
420
 16711680
370
     5
100
AcDbLine
 10
32.60030226379004
 20
96.78172891261535
 30
0.0
 11
33.65030226379004
 21
98.60038291261516
 31
0.0
  0
LINE
  5
3CD
330
44A
100
AcDbEntity
  8
0
 62
     1
420
 16711680
370
     5
100
AcDbLine
 10
117.1967920686535
 20
53.05558587684671
 30
0.0
 11
116.1467920686535
 21
51.23693187684673
 31
0.0
  0
LINE
  5
3CE
330
44A
100
AcDbEntity
  8
0
 62
     1
420
 16711680
370
     5
100
AcDbLine
 10
94.93506802634235
 20
96.78172891261532
 30
0.0
 11
95.98506802634236
 21
98.60038291261515
 31
0.0
  0
LINE
  5
4F
330
44A
100
AcDbEntity
  8
0
 62
     1
420
 16711680
370
     5
100
AcDbLine
 10
53.8508809581753
 20
1.290673000000034
 30
0.0
 11
52.81165095817531
 21
1.890673000000021
 31
0.0
  0
LINE
  5
79
330
44A
100
AcDbEntity
  8
0
 62
     1
420
 16711680
370
     5
100
AcDbLine
 10
33.68663825630082
 20
48.65412403576847
 30
0.0
 11
34.72586825630082
 21
48.05412403576853
 31
0.0
  0
LINE
  5
1EF
330
44A
100
AcDbEntity
  8
0
 62
     1
420
 16711680
370
     5
100
AcDbLine
 10
116.1831280611643
 20
1.290673000000034
 30
0.0
 11
115.1438980611643
 21
1.890673000000021
 31
0.0
  0
LINE
  5
21B
330
44A
100
AcDbEntity
  8
0
 62
     1
420
 16711680
370
     5
100
AcDbLine
 10
96.02140401885315
 20
48.65412403576845
 30
0.0
 11
97.06063401885312
 21
48.05412403576852
 31
0.0
  0
LINE
  5
3CF
330
44A
100
AcDbEntity
  8
0
 62
     1
420
 16711680
370
     5
100
AcDbLine
 10
53.81454496566452
 20
51.23693187684673
 30
0.0
 11
52.77531496566453
 21
51.83693187684671
 31
0.0
  0
LINE
  5
3D0
330
44A
100
AcDbEntity
  8
0
 62
     1
420
 16711680
370
     5
100
AcDbLine
 10
33.65030226379004
 20
98.60038291261516
 30
0.0
 11
34.68953226379004
 21
98.00038291261522
 31
0.0
  0
LINE
  5
3D1
330
44A
100
AcDbEntity
  8
0
 62
     1
420
 16711680
370
     5
100
AcDbLine
 10
116.1467920686535
 20
51.23693187684673
 30
0.0
 11
115.1075620686535
 21
51.83693187684671
 31
0.0
  0
LINE
  5
3D2
330
44A
100
AcDbEntity
  8
0
 62
     1
420
 16711680
370
     5
100
AcDbLine
 10
95.98506802634236
 20
98.60038291261515
 30
0.0
 11
97.02429802634234
 21
98.00038291261521
 31
0.0
  0
LINE
  5
50
330
44A
100
AcDbEntity
  8
0
 62
     1
420
 16711680
370
     5
100
AcDbLine
 10
53.8616509581753
 20
3.709327000000023
 30
0.0
 11
54.90088095817531
 21
3.109327000000022
 31
0.0
  0
LINE
  5
7A
330
44A
100
AcDbEntity
  8
0
 62
     1
420
 16711680
370
     5
100
AcDbLine
 10
33.67586825630082
 20
46.23547003576842
 30
0.0
 11
32.63663825630082
 21
46.83547003576866
 31
0.0
  0
LINE
  5
1F0
330
44A
100
AcDbEntity
  8
0
 62
     1
420
 16711680
370
     5
100
AcDbLine
 10
116.1938980611643
 20
3.709327000000023
 30
0.0
 11
117.2331280611643
 21
3.109327000000022
 31
0.0
  0
LINE
  5
21C
330
44A
100
AcDbEntity
  8
0
 62
     1
420
 16711680
370
     5
100
AcDbLine
 10
96.01063401885314
 20
46.23547003576851
 30
0.0
 11
94.97140401885314
 21
46.83547003576863
 31
0.0
  0
LINE
  5
3D3
330
44A
100
AcDbEntity
  8
0
 62
     1
420
 16711680
370
     5
100
AcDbLine
 10
53.82531496566452
 20
53.65558587684671
 30
0.0
 11
54.86454496566453
 21
53.05558587684671
 31
0.0
  0
LINE
  5
3D4
330
44A
100
AcDbEntity
  8
0
 62
     1
420
 16711680
370
     5
100
AcDbLine
 10
33.63953226379004
 20
96.18172891261511
 30
0.0
 11
32.60030226379004
 21
96.78172891261535
 31
0.0
  0
LINE
  5
3D5
330
44A
100
AcDbEntity
  8
0
 62
     1
420
 16711680
370
     5
100
AcDbLine
 10
116.1575620686535
 20
53.65558587684671
 30
0.0
 11
117.1967920686535
 21
53.05558587684671
 31
0.0
  0
LINE
  5
3D6
330
44A
100
AcDbEntity
  8
0
 62
     1
420
 16711680
370
     5
100
AcDbLine
 10
95.97429802634235
 20
96.1817289126152
 30
0.0
 11
94.93506802634235
 21
96.78172891261532
 31
0.0
  0
LINE
  5
51
330
44A
100
AcDbEntity
  8
0
 62
     5
420
      255
370
     5
100
AcDbLine
 10
0.6863929581753014
 20
4.330127000000019
 30
0.0
 11
25.6863929581753
 21
47.63139700000001
 31
0.0
  0
LINE
  5
1F1
330
44A
100
AcDbEntity
  8
0
 62
     5
420
      255
370
     5
100
AcDbLine
 10
63.01864006116426
 20
4.330127000000019
 30
0.0
 11
88.01864006116426
 21
47.63139700000001
 31
0.0
  0
LINE
  5
21D
330
44A
100
AcDbEntity
  8
0
 62
     5
420
      255
370
     5
100
AcDbLine
 10
149.1858920188531
 20
45.61467003576847
 30
0.0
 11
124.1858920188531
 21
2.313400035768485
 31
0.0
  0
LINE
  5
3D7
330
44A
100
AcDbEntity
  8
0
 62
     5
420
      255
370
     5
100
AcDbLine
 10
0.6500569656645228
 20
54.27638587684671
 30
0.0
 11
25.65005696566452
 21
97.5776558768467
 31
0.0
  0
LINE
  5
3D8
330
44A
100
AcDbEntity
  8
0
 62
     5
420
      255
370
     5
100
AcDbLine
 10
62.98230406865348
 20
54.27638587684671
 30
0.0
 11
87.98230406865349
 21
97.5776558768467
 31
0.0
  0
LINE
  5
3D9
330
44A
100
AcDbEntity
  8
0
 62
     5
420
      255
370
     5
100
AcDbLine
 10
149.1495560263423
 20
95.56092891261517
 30
0.0
 11
124.1495560263423
 21
52.25965891261518
 31
0.0
  0
ARC
  5
52
330
44A
100
AcDbEntity
  8
0
 62
     5
420
      255
370
     5
100
AcDbCircle
 10
28.18639295817588
 20
46.18802199999991
 30
0.0
 40
2.886751
100
AcDbArc
 50
30.00001156758698
 51
150.0000115675807
  0
ARC
  5
7C
330
44A
100
AcDbEntity
  8
0
 62
     5
420
      255
370
     5
100
AcDbCircle
 10
59.35112625630024
 20
3.756775035768609
 30
0.0
 40
2.886751
100
AcDbArc
 50
210.000011567587
 51
330.0000115675807
  0
ARC
  5
1F2
330
44A
100
AcDbEntity
  8
0
 62
     5
420
      255
370
     5
100
AcDbCircle
 10
90.51864006116485
 20
46.18802199999991
 30
0.0
 40
2.886751
100
AcDbArc
 50
30.00001156758698
 51
150.0000115675807
  0
ARC
  5
21E
330
44A
100
AcDbEntity
  8
0
 62
     5
420
      255
370
     5
100
AcDbCircle
 10
121.6858920188525
 20
3.756775035768587
 30
0.0
 40
2.886751
100
AcDbArc
 50
210.000011567587
 51
330.0000115675807
  0
ARC
  5
3DA
330
44A
100
AcDbEntity
  8
0
 62
     5
420
      255
370
     5
100
AcDbCircle
 10
28.1500569656651
 20
96.1342808768466
 30
0.0
 40
2.886751
100
AcDbArc
 50
30.00001156758698
 51
150.0000115675807
  0
ARC
  5
3DB
330
44A
100
AcDbEntity
  8
0
 62
     5
420
      255
370
     5
100
AcDbCircle
 10
59.31479026378946
 20
53.7030339126153
 30
0.0
 40
2.886751
100
AcDbArc
 50
210.000011567587
 51
330.0000115675807
  0
ARC
  5
3DC
330
44A
100
AcDbEntity
  8
0
 62
     5
420
      255
370
     5
100
AcDbCircle
 10
90.48230406865406
 20
96.1342808768466
 30
0.0
 40
2.886751
100
AcDbArc
 50
30.00001156758698
 51
150.0000115675807
  0
ARC
  5
3DD
330
44A
100
AcDbEntity
  8
0
 62
     5
420
      255
370
     5
100
AcDbCircle
 10
121.6495560263417
 20
53.70303391261528
 30
0.0
 40
2.886751
100
AcDbArc
 50
210.000011567587
 51
330.0000115675807
  0
LINE
  5
53
330
44A
100
AcDbEntity
  8
0
 62
     5
420
      255
370
     5
100
AcDbLine
 10
3.186392958175301
 20
0.0000000000000213
 30
0.0
 11
53.1863929581753
 21
0.0000000000000213
 31
0.0
  0
LINE
  5
7D
330
44A
100
AcDbEntity
  8
0
 62
     5
420
      255
370
     5
100
AcDbLine
 10
84.35112625630083
 20
49.9447970357685
 30
0.0
 11
34.35112625630082
 21
49.94479703576851
 31
0.0
  0
LINE
  5
1F3
330
44A
100
AcDbEntity
  8
0
 62
     5
420
      255
370
     5
100
AcDbLine
 10
65.51864006116426
 20
0.0000000000000213
 30
0.0
 11
115.5186400611643
 21
0.0000000000000213
 31
0.0
  0
LINE
  5
21F
330
44A
100
AcDbEntity
  8
0
 62
     5
420
      255
370
     5
100
AcDbLine
 10
146.6858920188531
 20
49.94479703576847
 30
0.0
 11
96.68589201885312
 21
49.94479703576849
 31
0.0
  0
LINE
  5
3DF
330
44A
100
AcDbEntity
  8
0
 62
     5
420
      255
370
     5
100
AcDbLine
 10
84.31479026379006
 20
99.89105591261519
 30
0.0
 11
34.31479026379004
 21
99.8910559126152
 31
0.0
  0
LINE
  5
3E1
330
44A
100
AcDbEntity
  8
0
 62
     5
420
      255
370
     5
100
AcDbLine
 10
146.6495560263423
 20
99.89105591261517
 30
0.0
 11
96.64955602634234
 21
99.89105591261517
 31
0.0
  0
ARC
  5
54
330
44A
100
AcDbEntity
  8
0
 62
     5
420
      255
370
     5
100
AcDbCircle
 10
53.1863939581753
 20
2.886751999999852
 30
0.0
 40
2.886752
100
AcDbArc
 50
269.9999801521643
 51
29.99998015217941
  0
ARC
  5
7E
330
44A
100
AcDbEntity
  8
0
 62
     5
420
      255
370
     5
100
AcDbCircle
 10
34.35112525630083
 20
47.05804503576919
 30
0.0
 40
2.886752
100
AcDbArc
 50
89.99998015216433
 51
209.9999801521794
  0
ARC
  5
1F4
330
44A
100
AcDbEntity
  8
0
 62
     5
420
      255
370
     5
100
AcDbCircle
 10
115.5186410611643
 20
2.886751999999852
 30
0.0
 40
2.886752
100
AcDbArc
 50
269.9999801521643
 51
29.99998015217941
  0
ARC
  5
220
330
44A
100
AcDbEntity
  8
0
 62
     5
420
      255
370
     5
100
AcDbCircle
 10
96.68589101885313
 20
47.05804503576917
 30
0.0
 40
2.886752
100
AcDbArc
 50
89.99998015216433
 51
209.9999801521794
  0
ARC
  5
3E2
330
44A
100
AcDbEntity
  8
0
 62
     5
420
      255
370
     5
100
AcDbCircle
 10
53.15005796566452
 20
52.83301087684654
 30
0.0
 40
2.886752
100
AcDbArc
 50
269.9999801521643
 51
29.99998015217941
  0
ARC
  5
3E3
330
44A
100
AcDbEntity
  8
0
 62
     5
420
      255
370
     5
100
AcDbCircle
 10
34.31478926379005
 20
97.00430391261588
 30
0.0
 40
2.886752
100
AcDbArc
 50
89.99998015216433
 51
209.9999801521794
  0
ARC
  5
3E4
330
44A
100
AcDbEntity
  8
0
 62
     5
420
      255
370
     5
100
AcDbCircle
 10
115.4823050686535
 20
52.83301087684654
 30
0.0
 40
2.886752
100
AcDbArc
 50
269.9999801521643
 51
29.99998015217941
  0
ARC
  5
3E5
330
44A
100
AcDbEntity
  8
0
 62
     5
420
      255
370
     5
100
AcDbCircle
 10
96.64955502634234
 20
97.00430391261585
 30
0.0
 40
2.886752
100
AcDbArc
 50
89.99998015216433
 51
209.9999801521794
  0
LINE
  5
55
330
44A
100
AcDbEntity
  8
0
 62
     5
420
      255
370
     5
100
AcDbLine
 10
55.6863929581753
 20
4.330127000000019
 30
0.0
 11
30.6863929581753
 21
47.63139700000001
 31
0.0
  0
LINE
  5
221
330
44A
100
AcDbEntity
  8
0
 62
     5
420
      255
370
     5
100
AcDbLine
 10
94.18589201885312
 20
45.61467003576847
 30
0.0
 11
119.1858920188531
 21
2.313400035768485
 31
0.0
  0
LINE
  5
3E6
330
44A
100
AcDbEntity
  8
0
 62
     5
420
      255
370
     5
100
AcDbLine
 10
55.65005696566453
 20
54.27638587684671
 30
0.0
 11
30.65005696566452
 21
97.5776558768467
 31
0.0
  0
LINE
  5
3E7
330
44A
100
AcDbEntity
  8
0
 62
     5
420
      255
370
     5
100
AcDbLine
 10
94.14955602634234
 20
95.56092891261517
 30
0.0
 11
119.1495560263423
 21
52.25965891261518
 31
0.0
  0
ARC
  5
56
330
44A
100
AcDbEntity
  8
0
 62
     5
420
      255
370
     5
100
AcDbCircle
 10
3.186392958175028
 20
2.886750000000021
 30
0.0
 40
2.88675
100
AcDbArc
 50
150.0000000000001
 51
270.0000000000054
  0
ARC
  5
80
330
44A
100
AcDbEntity
  8
0
 62
     5
420
      255
370
     5
100
AcDbCircle
 10
84.35112625630109
 20
47.05804703576879
 30
0.0
 40
2.88675
100
AcDbArc
 50
330.0000000000002
 51
90.0000000000054
  0
ARC
  5
1F6
330
44A
100
AcDbEntity
  8
0
 62
     5
420
      255
370
     5
100
AcDbCircle
 10
65.51864006116399
 20
2.886750000000021
 30
0.0
 40
2.88675
100
AcDbArc
 50
150.0000000000001
 51
270.0000000000054
  0
ARC
  5
222
330
44A
100
AcDbEntity
  8
0
 62
     5
420
      255
370
     5
100
AcDbCircle
 10
146.6858920188534
 20
47.05804703576877
 30
0.0
 40
2.88675
100
AcDbArc
 50
330.0000000000002
 51
90.0000000000054
  0
ARC
  5
3E8
330
44A
100
AcDbEntity
  8
0
 62
     5
420
      255
370
     5
100
AcDbCircle
 10
3.150056965664249
 20
52.83300887684671
 30
0.0
 40
2.88675
100
AcDbArc
 50
150.0000000000001
 51
270.0000000000054
  0
ARC
  5
3E9
330
44A
100
AcDbEntity
  8
0
 62
     5
420
      255
370
     5
100
AcDbCircle
 10
84.31479026379031
 20
97.00430591261548
 30
0.0
 40
2.88675
100
AcDbArc
 50
330.0000000000002
 51
90.0000000000054
  0
ARC
  5
3EA
330
44A
100
AcDbEntity
  8
0
 62
     5
420
      255
370
     5
100
AcDbCircle
 10
65.4823040686532
 20
52.83300887684671
 30
0.0
 40
2.88675
100
AcDbArc
 50
150.0000000000001
 51
270.0000000000054
  0
ARC
  5
3EB
330
44A
100
AcDbEntity
  8
0
 62
     5
420
      255
370
     5
100
AcDbCircle
 10
146.6495560263426
 20
97.00430591261545
 30
0.0
 40
2.88675
100
AcDbArc
 50
330.0000000000002
 51
90.0000000000054
  0
CIRCLE
  5
57
330
44A
100
AcDbEntity
  8
0
 62
     1
420
 16711680
370
     5
100
AcDbCircle
 10
20.1863929581753
 20
3.000000000000021
 30
0.0
 40
2.0
  0
CIRCLE
  5
81
330
44A
100
AcDbEntity
  8
0
 62
     1
420
 16711680
370
     5
100
AcDbCircle
 10
67.35112625630083
 20
46.9447970357685
 30
0.0
 40
2.0
  0
CIRCLE
  5
1F7
330
44A
100
AcDbEntity
  8
0
 62
     1
420
 16711680
370
     5
100
AcDbCircle
 10
82.51864006116426
 20
3.000000000000021
 30
0.0
 40
2.0
  0
CIRCLE
  5
223
330
44A
100
AcDbEntity
  8
0
 62
     1
420
 16711680
370
     5
100
AcDbCircle
 10
129.6858920188531
 20
46.94479703576847
 30
0.0
 40
2.0
  0
CIRCLE
  5
3EC
330
44A
100
AcDbEntity
  8
0
 62
     1
420
 16711680
370
     5
100
AcDbCircle
 10
20.15005696566452
 20
52.94625887684671
 30
0.0
 40
2.0
  0
CIRCLE
  5
3ED
330
44A
100
AcDbEntity
  8
0
 62
     1
420
 16711680
370
     5
100
AcDbCircle
 10
67.31479026379006
 20
96.89105591261519
 30
0.0
 40
2.0
  0
CIRCLE
  5
3EE
330
44A
100
AcDbEntity
  8
0
 62
     1
420
 16711680
370
     5
100
AcDbCircle
 10
82.48230406865349
 20
52.94625887684671
 30
0.0
 40
2.0
  0
CIRCLE
  5
3EF
330
44A
100
AcDbEntity
  8
0
 62
     1
420
 16711680
370
     5
100
AcDbCircle
 10
129.6495560263423
 20
96.89105591261517
 30
0.0
 40
2.0
  0
CIRCLE
  5
58
330
44A
100
AcDbEntity
  8
0
 62
     1
420
 16711680
370
     5
100
AcDbCircle
 10
28.1863929581753
 20
3.000000000000021
 30
0.0
 40
2.0
  0
CIRCLE
  5
82
330
44A
100
AcDbEntity
  8
0
 62
     1
420
 16711680
370
     5
100
AcDbCircle
 10
59.35112625630082
 20
46.9447970357685
 30
0.0
 40
2.0
  0
CIRCLE
  5
1F8
330
44A
100
AcDbEntity
  8
0
 62
     1
420
 16711680
370
     5
100
AcDbCircle
 10
90.51864006116426
 20
3.000000000000021
 30
0.0
 40
2.0
  0
CIRCLE
  5
224
330
44A
100
AcDbEntity
  8
0
 62
     1
420
 16711680
370
     5
100
AcDbCircle
 10
121.6858920188531
 20
46.94479703576847
 30
0.0
 40
2.0
  0
CIRCLE
  5
3F0
330
44A
100
AcDbEntity
  8
0
 62
     1
420
 16711680
370
     5
100
AcDbCircle
 10
28.15005696566452
 20
52.94625887684671
 30
0.0
 40
2.0
  0
CIRCLE
  5
3F1
330
44A
100
AcDbEntity
  8
0
 62
     1
420
 16711680
370
     5
100
AcDbCircle
 10
59.31479026379004
 20
96.89105591261519
 30
0.0
 40
2.0
  0
CIRCLE
  5
3F2
330
44A
100
AcDbEntity
  8
0
 62
     1
420
 16711680
370
     5
100
AcDbCircle
 10
90.48230406865349
 20
52.94625887684671
 30
0.0
 40
2.0
  0
CIRCLE
  5
3F3
330
44A
100
AcDbEntity
  8
0
 62
     1
420
 16711680
370
     5
100
AcDbCircle
 10
121.6495560263423
 20
96.89105591261517
 30
0.0
 40
2.0
  0
CIRCLE
  5
59
330
44A
100
AcDbEntity
  8
0
 62
     1
420
 16711680
370
     5
100
AcDbCircle
 10
36.1863929581753
 20
3.000000000000021
 30
0.0
 40
2.0
  0
CIRCLE
  5
83
330
44A
100
AcDbEntity
  8
0
 62
     1
420
 16711680
370
     5
100
AcDbCircle
 10
51.35112625630082
 20
46.9447970357685
 30
0.0
 40
2.0
  0
CIRCLE
  5
1F9
330
44A
100
AcDbEntity
  8
0
 62
     1
420
 16711680
370
     5
100
AcDbCircle
 10
98.51864006116426
 20
3.000000000000021
 30
0.0
 40
2.0
  0
CIRCLE
  5
225
330
44A
100
AcDbEntity
  8
0
 62
     1
420
 16711680
370
     5
100
AcDbCircle
 10
113.6858920188531
 20
46.94479703576847
 30
0.0
 40
2.0
  0
CIRCLE
  5
3F4
330
44A
100
AcDbEntity
  8
0
 62
     1
420
 16711680
370
     5
100
AcDbCircle
 10
36.15005696566453
 20
52.94625887684671
 30
0.0
 40
2.0
  0
CIRCLE
  5
3F5
330
44A
100
AcDbEntity
  8
0
 62
     1
420
 16711680
370
     5
100
AcDbCircle
 10
51.31479026379004
 20
96.89105591261519
 30
0.0
 40
2.0
  0
CIRCLE
  5
3F6
330
44A
100
AcDbEntity
  8
0
 62
     1
420
 16711680
370
     5
100
AcDbCircle
 10
98.48230406865349
 20
52.94625887684671
 30
0.0
 40
2.0
  0
CIRCLE
  5
3F7
330
44A
100
AcDbEntity
  8
0
 62
     1
420
 16711680
370
     5
100
AcDbCircle
 10
113.6495560263423
 20
96.89105591261517
 30
0.0
 40
2.0
  0
CIRCLE
  5
5A
330
44A
100
AcDbEntity
  8
0
 62
     1
420
 16711680
370
     5
100
AcDbCircle
 10
11.7844689581753
 20
17.55255900000002
 30
0.0
 40
2.0
  0
CIRCLE
  5
84
330
44A
100
AcDbEntity
  8
0
 62
     1
420
 16711680
370
     5
100
AcDbCircle
 10
75.75305025630084
 20
32.39223803576851
 30
0.0
 40
2.0
  0
CIRCLE
  5
1FA
330
44A
100
AcDbEntity
  8
0
 62
     1
420
 16711680
370
     5
100
AcDbCircle
 10
74.11671606116427
 20
17.55255900000002
 30
0.0
 40
2.0
  0
CIRCLE
  5
226
330
44A
100
AcDbEntity
  8
0
 62
     1
420
 16711680
370
     5
100
AcDbCircle
 10
138.0878160188531
 20
32.39223803576847
 30
0.0
 40
2.0
  0
CIRCLE
  5
3F8
330
44A
100
AcDbEntity
  8
0
 62
     1
420
 16711680
370
     5
100
AcDbCircle
 10
11.74813296566452
 20
67.49881787684672
 30
0.0
 40
2.0
  0
CIRCLE
  5
3F9
330
44A
100
AcDbEntity
  8
0
 62
     1
420
 16711680
370
     5
100
AcDbCircle
 10
75.71671426379007
 20
82.3384969126152
 30
0.0
 40
2.0
  0
CIRCLE
  5
3FA
330
44A
100
AcDbEntity
  8
0
 62
     1
420
 16711680
370
     5
100
AcDbCircle
 10
74.08038006865348
 20
67.49881787684672
 30
0.0
 40
2.0
  0
CIRCLE
  5
3FB
330
44A
100
AcDbEntity
  8
0
 62
     1
420
 16711680
370
     5
100
AcDbCircle
 10
138.0514800263423
 20
82.33849691261517
 30
0.0
 40
2.0
  0
CIRCLE
  5
5B
330
44A
100
AcDbEntity
  8
0
 62
     1
420
 16711680
370
     5
100
AcDbCircle
 10
15.7844689581753
 20
24.48076200000002
 30
0.0
 40
2.0
  0
CIRCLE
  5
85
330
44A
100
AcDbEntity
  8
0
 62
     1
420
 16711680
370
     5
100
AcDbCircle
 10
71.75305025630081
 20
25.4640350357685
 30
0.0
 40
2.0
  0
CIRCLE
  5
1FB
330
44A
100
AcDbEntity
  8
0
 62
     1
420
 16711680
370
     5
100
AcDbCircle
 10
78.11671606116427
 20
24.48076200000002
 30
0.0
 40
2.0
  0
CIRCLE
  5
227
330
44A
100
AcDbEntity
  8
0
 62
     1
420
 16711680
370
     5
100
AcDbCircle
 10
134.0878160188531
 20
25.46403503576848
 30
0.0
 40
2.0
  0
CIRCLE
  5
3FC
330
44A
100
AcDbEntity
  8
0
 62
     1
420
 16711680
370
     5
100
AcDbCircle
 10
15.74813296566452
 20
74.42702087684671
 30
0.0
 40
2.0
  0
CIRCLE
  5
3FD
330
44A
100
AcDbEntity
  8
0
 62
     1
420
 16711680
370
     5
100
AcDbCircle
 10
71.71671426379004
 20
75.4102939126152
 30
0.0
 40
2.0
  0
CIRCLE
  5
3FE
330
44A
100
AcDbEntity
  8
0
 62
     1
420
 16711680
370
     5
100
AcDbCircle
 10
78.08038006865348
 20
74.42702087684671
 30
0.0
 40
2.0
  0
CIRCLE
  5
3FF
330
44A
100
AcDbEntity
  8
0
 62
     1
420
 16711680
370
     5
100
AcDbCircle
 10
134.0514800263423
 20
75.41029391261517
 30
0.0
 40
2.0
  0
CIRCLE
  5
5C
330
44A
100
AcDbEntity
  8
0
 62
     1
420
 16711680
370
     5
100
AcDbCircle
 10
19.7844689581753
 20
31.40896500000002
 30
0.0
 40
2.0
  0
CIRCLE
  5
86
330
44A
100
AcDbEntity
  8
0
 62
     1
420
 16711680
370
     5
100
AcDbCircle
 10
67.75305025630084
 20
18.53583203576851
 30
0.0
 40
2.0
  0
CIRCLE
  5
1FC
330
44A
100
AcDbEntity
  8
0
 62
     1
420
 16711680
370
     5
100
AcDbCircle
 10
82.11671606116427
 20
31.40896500000002
 30
0.0
 40
2.0
  0
CIRCLE
  5
228
330
44A
100
AcDbEntity
  8
0
 62
     1
420
 16711680
370
     5
100
AcDbCircle
 10
130.0878160188531
 20
18.53583203576848
 30
0.0
 40
2.0
  0
CIRCLE
  5
400
330
44A
100
AcDbEntity
  8
0
 62
     1
420
 16711680
370
     5
100
AcDbCircle
 10
19.74813296566452
 20
81.35522387684671
 30
0.0
 40
2.0
  0
CIRCLE
  5
401
330
44A
100
AcDbEntity
  8
0
 62
     1
420
 16711680
370
     5
100
AcDbCircle
 10
67.71671426379007
 20
68.4820909126152
 30
0.0
 40
2.0
  0
CIRCLE
  5
402
330
44A
100
AcDbEntity
  8
0
 62
     1
420
 16711680
370
     5
100
AcDbCircle
 10
82.08038006865348
 20
81.35522387684671
 30
0.0
 40
2.0
  0
CIRCLE
  5
403
330
44A
100
AcDbEntity
  8
0
 62
     1
420
 16711680
370
     5
100
AcDbCircle
 10
130.0514800263423
 20
68.48209091261518
 30
0.0
 40
2.0
  0
CIRCLE
  5
5D
330
44A
100
AcDbEntity
  8
0
 62
     1
420
 16711680
370
     5
100
AcDbCircle
 10
36.58831695817531
 20
31.40896500000002
 30
0.0
 40
2.0
  0
CIRCLE
  5
87
330
44A
100
AcDbEntity
  8
0
 62
     1
420
 16711680
370
     5
100
AcDbCircle
 10
50.94920225630081
 20
18.53583203576851
 30
0.0
 40
2.0
  0
CIRCLE
  5
1FD
330
44A
100
AcDbEntity
  8
0
 62
     1
420
 16711680
370
     5
100
AcDbCircle
 10
98.92056406116427
 20
31.40896500000002
 30
0.0
 40
2.0
  0
CIRCLE
  5
229
330
44A
100
AcDbEntity
  8
0
 62
     1
420
 16711680
370
     5
100
AcDbCircle
 10
113.2839680188531
 20
18.53583203576848
 30
0.0
 40
2.0
  0
CIRCLE
  5
404
330
44A
100
AcDbEntity
  8
0
 62
     1
420
 16711680
370
     5
100
AcDbCircle
 10
36.55198096566453
 20
81.35522387684671
 30
0.0
 40
2.0
  0
CIRCLE
  5
405
330
44A
100
AcDbEntity
  8
0
 62
     1
420
 16711680
370
     5
100
AcDbCircle
 10
50.91286626379004
 20
68.4820909126152
 30
0.0
 40
2.0
  0
CIRCLE
  5
406
330
44A
100
AcDbEntity
  8
0
 62
     1
420
 16711680
370
     5
100
AcDbCircle
 10
98.8842280686535
 20
81.35522387684671
 30
0.0
 40
2.0
  0
CIRCLE
  5
407
330
44A
100
AcDbEntity
  8
0
 62
     1
420
 16711680
370
     5
100
AcDbCircle
 10
113.2476320263423
 20
68.48209091261518
 30
0.0
 40
2.0
  0
CIRCLE
  5
5E
330
44A
100
AcDbEntity
  8
0
 62
     1
420
 16711680
370
     5
100
AcDbCircle
 10
40.58831695817531
 20
24.48076200000002
 30
0.0
 40
2.0
  0
CIRCLE
  5
88
330
44A
100
AcDbEntity
  8
0
 62
     1
420
 16711680
370
     5
100
AcDbCircle
 10
46.94920225630081
 20
25.4640350357685
 30
0.0
 40
2.0
  0
CIRCLE
  5
1FE
330
44A
100
AcDbEntity
  8
0
 62
     1
420
 16711680
370
     5
100
AcDbCircle
 10
102.9205640611643
 20
24.48076200000002
 30
0.0
 40
2.0
  0
CIRCLE
  5
22A
330
44A
100
AcDbEntity
  8
0
 62
     1
420
 16711680
370
     5
100
AcDbCircle
 10
109.2839680188531
 20
25.46403503576848
 30
0.0
 40
2.0
  0
CIRCLE
  5
408
330
44A
100
AcDbEntity
  8
0
 62
     1
420
 16711680
370
     5
100
AcDbCircle
 10
40.55198096566453
 20
74.42702087684671
 30
0.0
 40
2.0
  0
CIRCLE
  5
409
330
44A
100
AcDbEntity
  8
0
 62
     1
420
 16711680
370
     5
100
AcDbCircle
 10
46.91286626379004
 20
75.41029391261519
 30
0.0
 40
2.0
  0
CIRCLE
  5
40A
330
44A
100
AcDbEntity
  8
0
 62
     1
420
 16711680
370
     5
100
AcDbCircle
 10
102.8842280686535
 20
74.42702087684671
 30
0.0
 40
2.0
  0
CIRCLE
  5
40B
330
44A
100
AcDbEntity
  8
0
 62
     1
420
 16711680
370
     5
100
AcDbCircle
 10
109.2476320263423
 20
75.41029391261517
 30
0.0
 40
2.0
  0
CIRCLE
  5
5F
330
44A
100
AcDbEntity
  8
0
 62
     1
420
 16711680
370
     5
100
AcDbCircle
 10
44.58831695817531
 20
17.55255900000002
 30
0.0
 40
2.0
  0
CIRCLE
  5
89
330
44A
100
AcDbEntity
  8
0
 62
     1
420
 16711680
370
     5
100
AcDbCircle
 10
42.94920225630081
 20
32.39223803576851
 30
0.0
 40
2.0
  0
CIRCLE
  5
1FF
330
44A
100
AcDbEntity
  8
0
 62
     1
420
 16711680
370
     5
100
AcDbCircle
 10
106.9205640611643
 20
17.55255900000002
 30
0.0
 40
2.0
  0
CIRCLE
  5
22B
330
44A
100
AcDbEntity
  8
0
 62
     1
420
 16711680
370
     5
100
AcDbCircle
 10
105.2839680188531
 20
32.39223803576847
 30
0.0
 40
2.0
  0
CIRCLE
  5
40C
330
44A
100
AcDbEntity
  8
0
 62
     1
420
 16711680
370
     5
100
AcDbCircle
 10
44.55198096566453
 20
67.49881787684672
 30
0.0
 40
2.0
  0
CIRCLE
  5
40D
330
44A
100
AcDbEntity
  8
0
 62
     1
420
 16711680
370
     5
100
AcDbCircle
 10
42.91286626379004
 20
82.3384969126152
 30
0.0
 40
2.0
  0
CIRCLE
  5
40E
330
44A
100
AcDbEntity
  8
0
 62
     1
420
 16711680
370
     5
100
AcDbCircle
 10
106.8842280686535
 20
67.49881787684672
 30
0.0
 40
2.0
  0
CIRCLE
  5
40F
330
44A
100
AcDbEntity
  8
0
 62
     1
420
 16711680
370
     5
100
AcDbCircle
 10
105.2476320263423
 20
82.33849691261517
 30
0.0
 40
2.0
  0
LINE
  5
60
330
44A
100
AcDbEntity
  8
0
 62
     1
420
 16711680
370
     5
100
AcDbLine
 10
53.9420339581753
 20
5.048557000000024
 30
0.0
 11
53.8616509581753
 21
3.709327000000023
 31
0.0
  0
LINE
  5
8A
330
44A
100
AcDbEntity
  8
0
 62
     1
420
 16711680
370
     5
100
AcDbLine
 10
33.59548525630083
 20
44.89624003576849
 30
0.0
 11
33.67586825630082
 21
46.23547003576842
 31
0.0
  0
LINE
  5
200
330
44A
100
AcDbEntity
  8
0
 62
     1
420
 16711680
370
     5
100
AcDbLine
 10
116.2742810611643
 20
5.048557000000024
 30
0.0
 11
116.1938980611643
 21
3.709327000000023
 31
0.0
  0
LINE
  5
22C
330
44A
100
AcDbEntity
  8
0
 62
     1
420
 16711680
370
     5
100
AcDbLine
 10
95.93025101885313
 20
44.89624003576847
 30
0.0
 11
96.01063401885314
 21
46.23547003576851
 31
0.0
  0
LINE
  5
410
330
44A
100
AcDbEntity
  8
0
 62
     1
420
 16711680
370
     5
100
AcDbLine
 10
53.90569796566452
 20
54.99481587684672
 30
0.0
 11
53.82531496566452
 21
53.65558587684671
 31
0.0
  0
LINE
  5
411
330
44A
100
AcDbEntity
  8
0
 62
     1
420
 16711680
370
     5
100
AcDbLine
 10
33.55914926379005
 20
94.84249891261518
 30
0.0
 11
33.63953226379004
 21
96.18172891261511
 31
0.0
  0
LINE
  5
412
330
44A
100
AcDbEntity
  8
0
 62
     1
420
 16711680
370
     5
100
AcDbLine
 10
116.2379450686535
 20
54.99481587684672
 30
0.0
 11
116.1575620686535
 21
53.65558587684671
 31
0.0
  0
LINE
  5
413
330
44A
100
AcDbEntity
  8
0
 62
     1
420
 16711680
370
     5
100
AcDbLine
 10
95.89391502634234
 20
94.84249891261516
 30
0.0
 11
95.97429802634235
 21
96.1817289126152
 31
0.0
  0
LINE
  5
61
330
44A
100
AcDbEntity
  8
0
 62
     1
420
 16711680
370
     5
100
AcDbLine
 10
52.81165095817531
 20
1.890673000000021
 30
0.0
 11
51.6920339581753
 21
1.151443000000022
 31
0.0
  0
LINE
  5
8B
330
44A
100
AcDbEntity
  8
0
 62
     1
420
 16711680
370
     5
100
AcDbLine
 10
34.72586825630082
 20
48.05412403576853
 30
0.0
 11
35.84548525630083
 21
48.79335403576849
 31
0.0
  0
LINE
  5
201
330
44A
100
AcDbEntity
  8
0
 62
     1
420
 16711680
370
     5
100
AcDbLine
 10
115.1438980611643
 20
1.890673000000021
 30
0.0
 11
114.0242810611643
 21
1.151443000000022
 31
0.0
  0
LINE
  5
22D
330
44A
100
AcDbEntity
  8
0
 62
     1
420
 16711680
370
     5
100
AcDbLine
 10
97.06063401885312
 20
48.05412403576852
 30
0.0
 11
98.18025101885313
 21
48.79335403576847
 31
0.0
  0
LINE
  5
414
330
44A
100
AcDbEntity
  8
0
 62
     1
420
 16711680
370
     5
100
AcDbLine
 10
52.77531496566453
 20
51.83693187684671
 30
0.0
 11
51.65569796566452
 21
51.09770187684671
 31
0.0
  0
LINE
  5
415
330
44A
100
AcDbEntity
  8
0
 62
     1
420
 16711680
370
     5
100
AcDbLine
 10
34.68953226379004
 20
98.00038291261522
 30
0.0
 11
35.80914926379005
 21
98.73961291261519
 31
0.0
  0
LINE
  5
416
330
44A
100
AcDbEntity
  8
0
 62
     1
420
 16711680
370
     5
100
AcDbLine
 10
115.1075620686535
 20
51.83693187684671
 30
0.0
 11
113.9879450686535
 21
51.09770187684671
 31
0.0
  0
LINE
  5
417
330
44A
100
AcDbEntity
  8
0
 62
     1
420
 16711680
370
     5
100
AcDbLine
 10
97.02429802634234
 20
98.00038291261521
 30
0.0
 11
98.14391502634234
 21
98.73961291261517
 31
0.0
  0
LINE
  5
62
330
44A
100
AcDbEntity
  8
0
 62
     1
420
 16711680
370
     5
100
AcDbLine
 10
2.511133958175301
 20
3.709327000000023
 30
0.0
 11
2.430749958175306
 21
5.048557000000024
 31
0.0
  0
LINE
  5
8C
330
44A
100
AcDbEntity
  8
0
 62
     1
420
 16711680
370
     5
100
AcDbLine
 10
85.02638525630081
 20
46.23547003576852
 30
0.0
 11
85.10676925630082
 21
44.89624003576849
 31
0.0
  0
LINE
  5
202
330
44A
100
AcDbEntity
  8
0
 62
     1
420
 16711680
370
     5
100
AcDbLine
 10
64.84338106116427
 20
3.709327000000023
 30
0.0
 11
64.76299706116427
 21
5.048557000000024
 31
0.0
  0
LINE
  5
22E
330
44A
100
AcDbEntity
  8
0
 62
     1
420
 16711680
370
     5
100
AcDbLine
 10
147.3611510188531
 20
46.2354700357685
 30
0.0
 11
147.4415350188531
 21
44.89624003576847
 31
0.0
  0
LINE
  5
418
330
44A
100
AcDbEntity
  8
0
 62
     1
420
 16711680
370
     5
100
AcDbLine
 10
2.474797965664522
 20
53.65558587684671
 30
0.0
 11
2.394413965664527
 21
54.99481587684672
 31
0.0
  0
LINE
  5
419
330
44A
100
AcDbEntity
  8
0
 62
     1
420
 16711680
370
     5
100
AcDbLine
 10
84.99004926379004
 20
96.18172891261521
 30
0.0
 11
85.07043326379005
 21
94.84249891261518
 31
0.0
  0
LINE
  5
41A
330
44A
100
AcDbEntity
  8
0
 62
     1
420
 16711680
370
     5
100
AcDbLine
 10
64.80704506865348
 20
53.65558587684671
 30
0.0
 11
64.7266610686535
 21
54.99481587684672
 31
0.0
  0
LINE
  5
41B
330
44A
100
AcDbEntity
  8
0
 62
     1
420
 16711680
370
     5
100
AcDbLine
 10
147.3248150263424
 20
96.1817289126152
 30
0.0
 11
147.4051990263424
 21
94.84249891261516
 31
0.0
  0
LINE
  5
63
330
44A
100
AcDbEntity
  8
0
 62
     1
420
 16711680
370
     5
100
AcDbLine
 10
3.561133958175298
 20
1.890673000000021
 30
0.0
 11
4.680749958175302
 21
1.151443000000015
 31
0.0
  0
LINE
  5
8D
330
44A
100
AcDbEntity
  8
0
 62
     1
420
 16711680
370
     5
100
AcDbLine
 10
83.97638525630083
 20
48.05412403576849
 30
0.0
 11
82.85676925630082
 21
48.79335403576844
 31
0.0
  0
LINE
  5
203
330
44A
100
AcDbEntity
  8
0
 62
     1
420
 16711680
370
     5
100
AcDbLine
 10
65.89338106116426
 20
1.890673000000021
 30
0.0
 11
67.01299706116427
 21
1.151443000000015
 31
0.0
  0
LINE
  5
22F
330
44A
100
AcDbEntity
  8
0
 62
     1
420
 16711680
370
     5
100
AcDbLine
 10
146.3111510188531
 20
48.05412403576847
 30
0.0
 11
145.1915350188531
 21
48.79335403576842
 31
0.0
  0
LINE
  5
41C
330
44A
100
AcDbEntity
  8
0
 62
     1
420
 16711680
370
     5
100
AcDbLine
 10
3.524797965664519
 20
51.83693187684671
 30
0.0
 11
4.644413965664524
 21
51.09770187684671
 31
0.0
  0
LINE
  5
41D
330
44A
100
AcDbEntity
  8
0
 62
     1
420
 16711680
370
     5
100
AcDbLine
 10
83.94004926379006
 20
98.00038291261518
 30
0.0
 11
82.82043326379005
 21
98.73961291261513
 31
0.0
  0
LINE
  5
41E
330
44A
100
AcDbEntity
  8
0
 62
     1
420
 16711680
370
     5
100
AcDbLine
 10
65.85704506865349
 20
51.83693187684671
 30
0.0
 11
66.9766610686535
 21
51.09770187684671
 31
0.0
  0
LINE
  5
41F
330
44A
100
AcDbEntity
  8
0
 62
     1
420
 16711680
370
     5
100
AcDbLine
 10
146.2748150263424
 20
98.00038291261515
 30
0.0
 11
145.1551990263424
 21
98.73961291261512
 31
0.0
  0
LINE
  5
64
330
44A
100
AcDbEntity
  8
0
 62
     1
420
 16711680
370
     5
100
AcDbLine
 10
25.9363929581753
 20
45.80000000000002
 30
0.0
 11
27.1363929581753
 21
46.40000000000001
 31
0.0
  0
LINE
  5
8E
330
44A
100
AcDbEntity
  8
0
 62
     1
420
 16711680
370
     5
100
AcDbLine
 10
61.60112625630082
 20
4.144797035768502
 30
0.0
 11
60.40112625630082
 21
3.544797035768507
 31
0.0
  0
LINE
  5
204
330
44A
100
AcDbEntity
  8
0
 62
     1
420
 16711680
370
     5
100
AcDbLine
 10
88.26864006116426
 20
45.80000000000002
 30
0.0
 11
89.46864006116427
 21
46.40000000000001
 31
0.0
  0
LINE
  5
230
330
44A
100
AcDbEntity
  8
0
 62
     1
420
 16711680
370
     5
100
AcDbLine
 10
123.9358920188531
 20
4.14479703576848
 30
0.0
 11
122.7358920188531
 21
3.544797035768486
 31
0.0
  0
LINE
  5
420
330
44A
100
AcDbEntity
  8
0
 62
     1
420
 16711680
370
     5
100
AcDbLine
 10
25.90005696566452
 20
95.74625887684671
 30
0.0
 11
27.10005696566452
 21
96.3462588768467
 31
0.0
  0
LINE
  5
421
330
44A
100
AcDbEntity
  8
0
 62
     1
420
 16711680
370
     5
100
AcDbLine
 10
61.56479026379004
 20
54.09105591261519
 30
0.0
 11
60.36479026379004
 21
53.4910559126152
 31
0.0
  0
LINE
  5
422
330
44A
100
AcDbEntity
  8
0
 62
     1
420
 16711680
370
     5
100
AcDbLine
 10
88.23230406865349
 20
95.74625887684671
 30
0.0
 11
89.43230406865348
 21
96.3462588768467
 31
0.0
  0
LINE
  5
423
330
44A
100
AcDbEntity
  8
0
 62
     1
420
 16711680
370
     5
100
AcDbLine
 10
123.8995560263423
 20
54.09105591261518
 30
0.0
 11
122.6995560263423
 21
53.49105591261518
 31
0.0
  0
LINE
  5
65
330
44A
100
AcDbEntity
  8
0
 62
     1
420
 16711680
370
     5
100
AcDbLine
 10
29.2363929581753
 20
46.40000000000001
 30
0.0
 11
30.4363929581753
 21
45.80000000000002
 31
0.0
  0
LINE
  5
8F
330
44A
100
AcDbEntity
  8
0
 62
     1
420
 16711680
370
     5
100
AcDbLine
 10
58.30112625630081
 20
3.544797035768507
 30
0.0
 11
57.10112625630081
 21
4.144797035768509
 31
0.0
  0
LINE
  5
205
330
44A
100
AcDbEntity
  8
0
 62
     1
420
 16711680
370
     5
100
AcDbLine
 10
91.56864006116426
 20
46.40000000000001
 30
0.0
 11
92.76864006116426
 21
45.80000000000002
 31
0.0
  0
LINE
  5
231
330
44A
100
AcDbEntity
  8
0
 62
     1
420
 16711680
370
     5
100
AcDbLine
 10
120.6358920188531
 20
3.544797035768486
 30
0.0
 11
119.4358920188531
 21
4.144797035768487
 31
0.0
  0
LINE
  5
424
330
44A
100
AcDbEntity
  8
0
 62
     1
420
 16711680
370
     5
100
AcDbLine
 10
29.20005696566452
 20
96.3462588768467
 30
0.0
 11
30.40005696566452
 21
95.74625887684671
 31
0.0
  0
LINE
  5
425
330
44A
100
AcDbEntity
  8
0
 62
     1
420
 16711680
370
     5
100
AcDbLine
 10
58.26479026379003
 20
53.4910559126152
 30
0.0
 11
57.06479026379003
 21
54.0910559126152
 31
0.0
  0
LINE
  5
426
330
44A
100
AcDbEntity
  8
0
 62
     1
420
 16711680
370
     5
100
AcDbLine
 10
91.53230406865347
 20
96.3462588768467
 30
0.0
 11
92.73230406865349
 21
95.74625887684671
 31
0.0
  0
LINE
  5
427
330
44A
100
AcDbEntity
  8
0
 62
     1
420
 16711680
370
     5
100
AcDbLine
 10
120.5995560263423
 20
53.49105591261518
 30
0.0
 11
119.3995560263423
 21
54.09105591261518
 31
0.0
  0
LINE
  5
206
330
44A
100
AcDbEntity
  8
0
 62
     5
420
      255
370
     5
100
AcDbLine
 10
56.85112684730682
 20
2.313399031037501
 30
0.0
 11
55.6863929581753
 21
4.330127000000019
 31
0.0
  0
LINE
  5
428
330
44A
100
AcDbEntity
  8
0
 62
     5
420
      255
370
     5
100
AcDbLine
 10
56.81479085479604
 20
52.25965790788419
 30
0.0
 11
55.65005696566453
 21
54.27638587684671
 31
0.0
  0
LINE
  5
207
330
44A
100
AcDbEntity
  8
0
 62
     5
420
      255
370
     5
100
AcDbLine
 10
61.85112624810682
 20
2.313400040499502
 30
0.0
 11
63.01864006116426
 21
4.330127000000019
 31
0.0
  0
LINE
  5
429
330
44A
100
AcDbEntity
  8
0
 62
     5
420
      255
370
     5
100
AcDbLine
 10
61.81479025559604
 20
52.25965891734619
 30
0.0
 11
62.98230406865348
 21
54.27638587684671
 31
0.0
  0
LINE
  5
234
330
44A
100
AcDbEntity
  8
0
 62
     5
420
      255
370
     5
100
AcDbLine
 10
93.01863947015826
 20
47.63139800473102
 30
0.0
 11
94.18588995242813
 21
45.61466990179402
 31
0.0
  0
LINE
  5
42A
330
44A
100
AcDbEntity
  8
0
 62
     5
420
      255
370
     5
100
AcDbLine
 10
92.98230347764749
 20
97.57765688157771
 30
0.0
 11
94.14955395991734
 21
95.56092877864072
 31
0.0
  0
LINE
  5
42B
330
44A
100
AcDbEntity
  8
0
 62
     5
420
      255
370
     5
100
AcDbLine
 10
3.150056965664521
 20
49.94625887684671
 30
0.0
 11
34.35112525630083
 21
49.94479703576851
 31
0.0
  0
LINE
  5
42C
330
44A
100
AcDbEntity
  8
0
 62
     5
420
      255
370
     5
100
AcDbLine
 10
84.35112625630109
 20
49.9447970357685
 30
0.0
 11
96.68589101885314
 21
49.94479703576849
 31
0.0
  0
VIEWPORT
  5
507
330
446
100
AcDbEntity
 67
     1
  8
0
100
AcDbViewport
 10
128.5
 20
97.5
 30
0.0
 40
314.226
 41
222.18
 68
     1
 69
     1
 12
128.5
 22
97.5
 13
0.0
 23
0.0
 14
10.0
 24
10.0
 15
10.0
 25
10.0
 16
0.0
 26
0.0
 36
1.0
 17
0.0
 27
0.0
 37
0.0
 42
50.0
 43
0.0
 44
0.0
 45
222.18
 50
0.0
 51
0.0
 72
   100
 90
   557152
  1

281
     0
 71
     1
 74
     0
110
0.0
120
0.0
130
0.0
111
1.0
121
0.0
131
0.0
112
0.0
122
1.0
132
0.0
 79
     0
146
0.0
170
     0
 61
     5
348
45A
292
     1
282
     1
141
0.0
142
0.0
 63
   256
361
508
  0
ENDSEC
  0
SECTION
  2
OBJECTS
  0
DICTIONARY
  5
438
330
0
100
AcDbDictionary
281
     1
  3
ACAD_DETAILVIEWSTYLE
350
510
  3
ACAD_GROUP
350
439
  3
ACAD_LAYOUT
350
445
  3
ACAD_MATERIAL
350
46E
  3
ACAD_MLEADERSTYLE
350
496
  3
ACAD_MLINESTYLE
350
442
  3
ACAD_PLOTSETTINGS
350
444
  3
ACAD_PLOTSTYLENAME
350
43A
  3
ACAD_SCALELIST
350
472
  3
ACAD_SECTIONVIEWSTYLE
350
511
  3
ACAD_TABLESTYLE
350
494
  3
ACAD_VISUALSTYLE
350
455
  3
ACDB_RECOMPOSE_DATA
350
50D
  3
AcDbVariableDictionary
350
509
  3
QCAD_OBJECTS
350
49A
  0
SUN
  5
498
330
454
100
AcDbSun
 90
        1
290
     0
 63
     7
421
 16777215
 40
1.0
291
     1
 91
  2455826
 92
 54000000
292
     0
 70
     2
 71
   256
280
     1
  0
SUN
  5
508
330
507
100
AcDbSun
 90
        1
290
     0
 63
     7
421
 16777215
 40
1.0
291
     1
 91
  2455826
 92
 54000000
292
     0
 70
     2
 71
   256
280
     1
  0
DICTIONARY
  5
510
102
{ACAD_REACTORS
330
438
102
}
330
438
100
AcDbDictionary
281
     1
  0
DICTIONARY
  5
439
102
{ACAD_REACTORS
330
438
102
}
330
438
100
AcDbDictionary
281
     1
  0
DICTIONARY
  5
445
102
{ACAD_REACTORS
330
438
102
}
330
438
100
AcDbDictionary
281
     1
  3
Layout1
350
449
  3
Model
350
44D
  0
DICTIONARY
  5
46E
102
{ACAD_REACTORS
330
438
102
}
330
438
100
AcDbDictionary
281
     1
  3
ByBlock
350
470
  3
ByLayer
350
46F
  3
Global
350
471
  0
DICTIONARY
  5
496
102
{ACAD_REACTORS
330
438
102
}
330
438
100
AcDbDictionary
281
     1
  3
Standard
350
497
  0
DICTIONARY
  5
442
102
{ACAD_REACTORS
330
438
102
}
330
438
100
AcDbDictionary
281
     1
  3
Standard
350
443
  0
DICTIONARY
  5
444
102
{ACAD_REACTORS
330
438
102
}
330
438
100
AcDbDictionary
281
     1
  0
ACDBDICTIONARYWDFLT
  5
43A
102
{ACAD_REACTORS
330
438
102
}
330
438
100
AcDbDictionary
281
     1
  3
Normal
350
43B
100
AcDbDictionaryWithDefault
340
43B
  0
DICTIONARY
  5
472
102
{ACAD_REACTORS
330
438
102
}
330
438
100
AcDbDictionary
281
     1
  3
A0
350
473
  3
A1
350
474
  3
A2
350
475
  3
A3
350
476
  3
A4
350
477
  3
A5
350
478
  3
A6
350
479
  3
A7
350
47A
  3
A8
350
47B
  3
A9
350
47C
  3
B0
350
47D
  3
B1
350
47E
  3
B2
350
47F
  3
B3
350
480
  3
B4
350
481
  3
B5
350
482
  3
B6
350
483
  3
B7
350
484
  3
B8
350
485
  3
B9
350
486
  3
C0
350
487
  3
C1
350
488
  3
C2
350
489
  3
C3
350
48A
  3
C4
350
48B
  3
C5
350
48C
  3
C6
350
48D
  3
C7
350
48E
  3
C8
350
48F
  3
C9
350
490
  3
D0
350
491
  3
D1
350
492
  3
D2
350
493
  0
DICTIONARY
  5
511
102
{ACAD_REACTORS
330
438
102
}
330
438
100
AcDbDictionary
281
     1
  0
DICTIONARY
  5
494
102
{ACAD_REACTORS
330
438
102
}
330
438
100
AcDbDictionary
281
     1
  3
Standard
350
495
  0
DICTIONARY
  5
455
102
{ACAD_REACTORS
330
438
102
}
330
438
100
AcDbDictionary
281
     1
  3
2dWireframe
350
45A
  3
Basic
350
45D
  3
Brighten
350
461
  3
ColorChange
350
465
  3
Conceptual
350
45F
  3
Dim
350
460
  3
EdgeColorOff
350
468
  3
Facepattern
350
464
  3
Flat
350
456
  3
FlatWithEdges
350
457
  3
Gouraud
350
458
  3
GouraudWithEdges
350
459
  3
Hidden
350
45C
  3
JitterOff
350
466
  3
Linepattern
350
463
  3
OverhangOff
350
467
  3
Realistic
350
45E
  3
Shaded
350
46D
  3
Shaded with edges
350
46C
  3
Shades of Gray
350
469
  3
Sketchy
350
46A
  3
Thicken
350
462
  3
Wireframe
350
45B
  3
X-Ray
350
46B
  0
XRECORD
  5
50D
102
{ACAD_REACTORS
330
438
102
}
330
438
100
AcDbXrecord
280
     1
 90
        1
330
495
  0
DICTIONARY
  5
509
102
{ACAD_REACTORS
330
438
102
}
330
438
100
AcDbDictionary
281
     1
  3
CANNOSCALE
350
50A
  3
CMLEADERSTYLE
350
50F
  3
CTABLESTYLE
350
50E
  0
DICTIONARY
  5
49A
102
{ACAD_REACTORS
330
438
102
}
330
438
100
AcDbDictionary
281
     1
  3
ColorSettings/BackgroundColor
350
49C
  3
ColorSettings/ColorMode
350
49D
  3
Grid/DisplayGrid00
350
49E
  3
Grid/DisplayGrid01
350
49F
  3
Grid/DisplayGrid02
350
4A0
  3
Grid/DisplayGrid03
350
4A1
  3
Grid/GridSpacingX00
350
4A2
  3
Grid/GridSpacingX01
350
4A3
  3
Grid/GridSpacingX02
350
4A4
  3
Grid/GridSpacingX03
350
4A5
  3
Grid/GridSpacingY00
350
4A6
  3
Grid/GridSpacingY01
350
4A7
  3
Grid/GridSpacingY02
350
4A8
  3
Grid/GridSpacingY03
350
4A9
  3
Grid/IsometricGrid00
350
4AA
  3
Grid/IsometricGrid01
350
4AB
  3
Grid/IsometricGrid02
350
4AC
  3
Grid/IsometricGrid03
350
4AD
  3
Grid/IsometricProjection00
350
4AE
  3
Grid/IsometricProjection01
350
4AF
  3
Grid/IsometricProjection02
350
4B0
  3
Grid/IsometricProjection03
350
4B1
  3
Grid/MetaGridSpacingX00
350
4B2
  3
Grid/MetaGridSpacingX01
350
4B3
  3
Grid/MetaGridSpacingX02
350
4B4
  3
Grid/MetaGridSpacingX03
350
4B5
  3
Grid/MetaGridSpacingY00
350
4B6
  3
Grid/MetaGridSpacingY01
350
4B7
  3
Grid/MetaGridSpacingY02
350
4B8
  3
Grid/MetaGridSpacingY03
350
4B9
  3
MultiPageSettings/Columns
350
4BA
  3
MultiPageSettings/GlueMarginsBottom
350
4BB
  3
MultiPageSettings/GlueMarginsLeft
350
4BC
  3
MultiPageSettings/GlueMarginsRight
350
4BD
  3
MultiPageSettings/GlueMarginsTop
350
4BE
  3
MultiPageSettings/PrintCropMarks
350
4BF
  3
MultiPageSettings/Rows
350
4C0
  3
PageSettings/OffsetX
350
4C1
  3
PageSettings/OffsetY
350
4C2
  3
PageSettings/PageOrientation
350
4C3
  3
PageSettings/PaperHeight
350
4C4
  3
PageSettings/PaperWidth
350
4C5
  3
PageSettings/Scale
350
4C6
  3
PageSettings/ShowPaperBorders
350
4C7
  3
QCADVersion
350
49B
  3
UnitSettings/PaperUnit
350
4C8
  3
ViewportCenter
350
4C9
  3
ViewportHeight
350
4CA
  3
ViewportWidth
350
4CB
  0
LAYOUT
  5
449
102
{ACAD_REACTORS
330
445
102
}
330
445
100
AcDbPlotSettings
  1

  2
none_device
  4
ISO_A4_(210.00_x_297.00_MM)
  6

 40
7.5
 41
20.0
 42
7.5
 43
20.0
 44
210.0
 45
297.0
 46
0.0
 47
0.0
 48
0.0
 49
0.0
140
0.0
141
0.0
142
1.0
143
1.0
 70
   688
 72
     1
 73
     1
 74
     5
  7

 75
     0
 76
     0
 77
     2
 78
   300
147
1.0
148
0.0
149
0.0
100
AcDbLayout
  1
Layout1
 70
     1
 71
     0
 10
-20.0
 20
-7.5
 11
277.0
 21
202.5
 12
0.0
 22
0.0
 32
0.0
 14
0.0
 24
0.0
 34
0.0
 15
0.0
 25
0.0
 35
0.0
146
0.0
 13
0.0
 23
0.0
 33
0.0
 16
1.0
 26
0.0
 36
0.0
 17
0.0
 27
1.0
 37
0.0
 76
     0
330
446
331
507
  0
LAYOUT
  5
44D
102
{ACAD_REACTORS
330
445
102
}
330
445
100
AcDbPlotSettings
  1

  2
none_device
  4
Letter_(8.50_x_11.00_Inches)
  6

 40
6.35
 41
6.35
 42
6.35000508
 43
6.35000508
 44
215.9
 45
279.4
 46
0.0
 47
0.0
 48
0.0
 49
0.0
140
0.0
141
0.0
142
1.0
143
1.0
 70
  1712
 72
     0
 73
     0
 74
     0
  7

 75
     0
 76
     0
 77
     2
 78
   300
147
1.0
148
0.0
149
0.0
100
AcDbLayout
  1
Model
 70
     1
 71
     0
 10
0.0
 20
0.0
 11
12.0
 21
9.0
 12
0.0
 22
0.0
 32
0.0
 14
1.000000000000000E+20
 24
1.000000000000000E+20
 34
1.000000000000000E+20
 15
-1.000000000000000E+20
 25
-1.000000000000000E+20
 35
-1.000000000000000E+20
146
0.0
 13
0.0
 23
0.0
 33
0.0
 16
1.0
 26
0.0
 36
0.0
 17
0.0
 27
1.0
 37
0.0
 76
     0
330
44A
331
454
  0
MATERIAL
  5
470
102
{ACAD_REACTORS
330
46E
102
}
330
46E
100
AcDbMaterial
  1
ByBlock
 72
     1
 94
      127
  0
MATERIAL
  5
46F
102
{ACAD_REACTORS
330
46E
102
}
330
46E
100
AcDbMaterial
  1
ByLayer
 72
     1
 94
      127
  0
MATERIAL
  5
471
102
{ACAD_REACTORS
330
46E
102
}
330
46E
100
AcDbMaterial
  1
Global
 72
     1
 94
      127
  0
MLEADERSTYLE
  5
497
102
{ACAD_REACTORS
330
496
102
}
330
496
100
AcDbMLeaderStyle
179
     2
170
     2
171
     1
172
     0
 90
        2
 40
0.0
 41
0.0
173
     1
 91
-1056964608
340
43F
 92
       -2
290
     1
 42
0.09
291
     1
 43
0.36
  3
Standard
341
0
 44
0.18
300

342
43D
174
     1
178
     6
175
     1
176
     0
 93
-1056964608
 45
0.18
292
     0
297
     0
 46
0.18
343
0
 94
-1056964608
 47
1.0
 49
1.0
140
1.0
293
     1
141
0.0
294
     1
177
     0
142
1.0
295
     0
296
     0
143
0.125
271
     0
272
     9
273
     9
298
     0
  0
MLINESTYLE
  5
443
102
{ACAD_REACTORS
330
442
102
}
330
442
100
AcDbMlineStyle
  2
Standard
 70
     0
  3

 62
   256
 51
90.0
 52
90.0
 71
     2
 49
0.5
 62
   256
  6
BYLAYER
 49
-0.5
 62
   256
  6
BYLAYER
  0
ACDBPLACEHOLDER
  5
43B
102
{ACAD_REACTORS
330
43A
102
}
330
43A
  0
SCALE
  5
473
102
{ACAD_REACTORS
330
472
102
}
330
472
100
AcDbScale
 70
     0
300
1:1
140
1.0
141
1.0
290
     1
  0
SCALE
  5
474
102
{ACAD_REACTORS
330
472
102
}
330
472
100
AcDbScale
 70
     0
300
1:2
140
1.0
141
2.0
290
     0
  0
SCALE
  5
475
102
{ACAD_REACTORS
330
472
102
}
330
472
100
AcDbScale
 70
     0
300
1:4
140
1.0
141
4.0
290
     0
  0
SCALE
  5
476
102
{ACAD_REACTORS
330
472
102
}
330
472
100
AcDbScale
 70
     0
300
1:5
140
1.0
141
5.0
290
     0
  0
SCALE
  5
477
102
{ACAD_REACTORS
330
472
102
}
330
472
100
AcDbScale
 70
     0
300
1:8
140
1.0
141
8.0
290
     0
  0
SCALE
  5
478
102
{ACAD_REACTORS
330
472
102
}
330
472
100
AcDbScale
 70
     0
300
1:10
140
1.0
141
10.0
290
     0
  0
SCALE
  5
479
102
{ACAD_REACTORS
330
472
102
}
330
472
100
AcDbScale
 70
     0
300
1:16
140
1.0
141
16.0
290
     0
  0
SCALE
  5
47A
102
{ACAD_REACTORS
330
472
102
}
330
472
100
AcDbScale
 70
     0
300
1:20
140
1.0
141
20.0
290
     0
  0
SCALE
  5
47B
102
{ACAD_REACTORS
330
472
102
}
330
472
100
AcDbScale
 70
     0
300
1:30
140
1.0
141
30.0
290
     0
  0
SCALE
  5
47C
102
{ACAD_REACTORS
330
472
102
}
330
472
100
AcDbScale
 70
     0
300
1:40
140
1.0
141
40.0
290
     0
  0
SCALE
  5
47D
102
{ACAD_REACTORS
330
472
102
}
330
472
100
AcDbScale
 70
     0
300
1:50
140
1.0
141
50.0
290
     0
  0
SCALE
  5
47E
102
{ACAD_REACTORS
330
472
102
}
330
472
100
AcDbScale
 70
     0
300
1:100
140
1.0
141
100.0
290
     0
  0
SCALE
  5
47F
102
{ACAD_REACTORS
330
472
102
}
330
472
100
AcDbScale
 70
     0
300
2:1
140
2.0
141
1.0
290
     0
  0
SCALE
  5
480
102
{ACAD_REACTORS
330
472
102
}
330
472
100
AcDbScale
 70
     0
300
4:1
140
4.0
141
1.0
290
     0
  0
SCALE
  5
481
102
{ACAD_REACTORS
330
472
102
}
330
472
100
AcDbScale
 70
     0
300
8:1
140
8.0
141
1.0
290
     0
  0
SCALE
  5
482
102
{ACAD_REACTORS
330
472
102
}
330
472
100
AcDbScale
 70
     0
300
10:1
140
10.0
141
1.0
290
     0
  0
SCALE
  5
483
102
{ACAD_REACTORS
330
472
102
}
330
472
100
AcDbScale
 70
     0
300
100:1
140
100.0
141
1.0
290
     0
  0
SCALE
  5
484
102
{ACAD_REACTORS
330
472
102
}
330
472
100
AcDbScale
 70
     0
300
1/128" = 1'-0"
140
0.0078125
141
12.0
290
     0
  0
SCALE
  5
485
102
{ACAD_REACTORS
330
472
102
}
330
472
100
AcDbScale
 70
     0
300
1/64" = 1'-0"
140
0.015625
141
12.0
290
     0
  0
SCALE
  5
486
102
{ACAD_REACTORS
330
472
102
}
330
472
100
AcDbScale
 70
     0
300
1/32" = 1'-0"
140
0.03125
141
12.0
290
     0
  0
SCALE
  5
487
102
{ACAD_REACTORS
330
472
102
}
330
472
100
AcDbScale
 70
     0
300
1/16" = 1'-0"
140
0.0625
141
12.0
290
     0
  0
SCALE
  5
488
102
{ACAD_REACTORS
330
472
102
}
330
472
100
AcDbScale
 70
     0
300
3/32" = 1'-0"
140
0.09375
141
12.0
290
     0
  0
SCALE
  5
489
102
{ACAD_REACTORS
330
472
102
}
330
472
100
AcDbScale
 70
     0
300
1/8" = 1'-0"
140
0.125
141
12.0
290
     0
  0
SCALE
  5
48A
102
{ACAD_REACTORS
330
472
102
}
330
472
100
AcDbScale
 70
     0
300
3/16" = 1'-0"
140
0.1875
141
12.0
290
     0
  0
SCALE
  5
48B
102
{ACAD_REACTORS
330
472
102
}
330
472
100
AcDbScale
 70
     0
300
1/4" = 1'-0"
140
0.25
141
12.0
290
     0
  0
SCALE
  5
48C
102
{ACAD_REACTORS
330
472
102
}
330
472
100
AcDbScale
 70
     0
300
3/8" = 1'-0"
140
0.375
141
12.0
290
     0
  0
SCALE
  5
48D
102
{ACAD_REACTORS
330
472
102
}
330
472
100
AcDbScale
 70
     0
300
1/2" = 1'-0"
140
0.5
141
12.0
290
     0
  0
SCALE
  5
48E
102
{ACAD_REACTORS
330
472
102
}
330
472
100
AcDbScale
 70
     0
300
3/4" = 1'-0"
140
0.75
141
12.0
290
     0
  0
SCALE
  5
48F
102
{ACAD_REACTORS
330
472
102
}
330
472
100
AcDbScale
 70
     0
300
1" = 1'-0"
140
1.0
141
12.0
290
     0
  0
SCALE
  5
490
102
{ACAD_REACTORS
330
472
102
}
330
472
100
AcDbScale
 70
     0
300
1-1/2" = 1'-0"
140
1.5
141
12.0
290
     0
  0
SCALE
  5
491
102
{ACAD_REACTORS
330
472
102
}
330
472
100
AcDbScale
 70
     0
300
3" = 1'-0"
140
3.0
141
12.0
290
     0
  0
SCALE
  5
492
102
{ACAD_REACTORS
330
472
102
}
330
472
100
AcDbScale
 70
     0
300
6" = 1'-0"
140
6.0
141
12.0
290
     0
  0
SCALE
  5
493
102
{ACAD_REACTORS
330
472
102
}
330
472
100
AcDbScale
 70
     0
300
1'-0" = 1'-0"
140
12.0
141
12.0
290
     0
  0
TABLESTYLE
  5
495
102
{ACAD_REACTORS
330
494
102
}
102
{ACAD_XDICTIONARY
360
50B
102
}
330
494
100
AcDbTableStyle
  3
Standard
 70
     0
 71
     0
 40
0.06
 41
0.06
280
     0
281
     0
  7
Standard
140
0.18
170
     2
 62
     0
 63
   257
283
     0
 90
        4
 91
        0
  1

274
    -2
284
     1
 64
     0
275
    -2
285
     1
 65
     0
276
    -2
286
     1
 66
     0
277
    -2
287
     1
 67
     0
278
    -2
288
     1
 68
     0
279
    -2
289
     1
 69
     0
  7
Standard
140
0.25
170
     5
 62
     0
 63
   257
283
     0
 90
        4
 91
        0
  1

274
    -2
284
     1
 64
     0
275
    -2
285
     1
 65
     0
276
    -2
286
     1
 66
     0
277
    -2
287
     1
 67
     0
278
    -2
288
     1
 68
     0
279
    -2
289
     1
 69
     0
  7
Standard
140
0.18
170
     5
 62
     0
 63
   257
283
     0
 90
        4
 91
        0
  1

274
    -2
284
     1
 64
     0
275
    -2
285
     1
 65
     0
276
    -2
286
     1
 66
     0
277
    -2
287
     1
 67
     0
278
    -2
288
     1
 68
     0
279
    -2
289
     1
 69
     0
  0
VISUALSTYLE
  5
45A
102
{ACAD_REACTORS
330
455
102
}
330
455
100
AcDbVisualStyle
  2
2dWireframe
 70
     4
177
     3
291
     0
 70
    58
 90
        0
176
     1
 90
        2
176
     1
 90
        0
176
     1
 90
        0
176
     1
 40
0.6
176
     1
 40
30.0
176
     1
 62
     7
420
 16777215
176
     1
 90
        1
176
     1
 90
        4
176
     1
 62
     7
176
     1
 62
   257
176
     1
 90
        1
176
     1
 90
        1
176
     1
 40
1.0
176
     1
 90
        0
176
     1
 62
   257
176
     1
 40
1.0
176
     1
 90
        1
176
     1
 90
        6
176
     1
 90
        2
176
     1
 62
     7
176
     1
 90
        5
176
     1
 90
        0
176
     1
 90
        0
176
     1
290
     0
176
     1
 90
        1
176
     1
 40
0.0
176
     1
 90
        0
176
     1
290
     1
176
     1
290
     1
176
     1
290
     0
176
     1
290
     0
176
     1
290
     0
176
     1
290
     0
176
     1
290
     0
176
     1
290
     0
176
     1
290
     0
176
     1
 90
       50
176
     1
 40
0.0
176
     1
 40
1.0
176
     1
 90
        0
176
     1
 62
   178
420
        0
176
     1
 90
       50
176
     1
 90
        3
176
     1
 62
     5
420
      255
176
     1
290
     0
176
     1
 90
       50
176
     1
 90
       50
176
     1
 90
       50
176
     1
290
     0
176
     1
 90
       50
176
     1
 62
   256
176
     0
 40
1.0
176
     0
 90
        2
176
     1
  1
strokes_ogs.tif
176
     1
290
     0
176
     1
 40
1.0
176
     1
 40
1.0
176
     1
  0
VISUALSTYLE
  5
45D
102
{ACAD_REACTORS
330
455
102
}
330
455
100
AcDbVisualStyle
  2
Basic
 70
     7
177
     3
291
     1
 70
    58
 90
        1
176
     1
 90
        0
176
     1
 90
        1
176
     1
 90
        0
176
     1
 40
0.6
176
     1
 40
30.0
176
     1
 62
     7
420
 16777215
176
     1
 90
        0
176
     1
 90
        4
176
     1
 62
     7
176
     1
 62
   257
176
     1
 90
        1
176
     1
 90
        1
176
     1
 40
1.0
176
     1
 90
        8
176
     1
 62
     7
176
     1
 40
1.0
176
     1
 90
        1
176
     1
 90
        6
176
     1
 90
        2
176
     1
 62
     7
176
     1
 90
        5
176
     1
 90
        0
176
     1
 90
        0
176
     1
290
     0
176
     1
 90
        1
176
     1
 40
0.0
176
     1
 90
        0
176
     1
290
     0
176
     1
290
     1
176
     1
290
     1
176
     1
290
     0
176
     1
290
     0
176
     1
290
     0
176
     1
290
     0
176
     1
290
     0
176
     1
290
     0
176
     1
 90
       50
176
     1
 40
0.0
176
     1
 40
1.0
176
     1
 90
        0
176
     1
 62
   178
420
        0
176
     1
 90
       50
176
     1
 90
        3
176
     1
 62
     5
420
      255
176
     1
290
     0
176
     1
 90
       50
176
     1
 90
       50
176
     1
 90
       50
176
     1
290
     0
176
     1
 90
       50
176
     1
 62
   256
176
     0
 40
1.0
176
     0
 90
        2
176
     1
  1
strokes_ogs.tif
176
     1
290
     0
176
     1
 40
1.0
176
     1
 40
1.0
176
     1
  0
VISUALSTYLE
  5
461
102
{ACAD_REACTORS
330
455
102
}
330
455
100
AcDbVisualStyle
  2
Brighten
 70
    12
177
     3
291
     1
 70
    58
 90
        2
176
     1
 90
        2
176
     1
 90
        0
176
     1
 90
        0
176
     1
 40
0.6
176
     1
 40
30.0
176
     1
 62
     7
420
 16777215
176
     1
 90
        1
176
     1
 90
        4
176
     1
 62
     7
176
     1
 62
   257
176
     1
 90
        1
176
     1
 90
        1
176
     1
 40
1.0
176
     1
 90
        8
176
     1
 62
     7
176
     1
 40
1.0
176
     1
 90
        1
176
     1
 90
        6
176
     1
 90
        2
176
     1
 62
     7
176
     1
 90
        5
176
     1
 90
        0
176
     1
 90
        0
176
     1
290
     0
176
     1
 90
        1
176
     1
 40
50.0
176
     1
 90
        0
176
     1
290
     0
176
     1
290
     1
176
     1
290
     1
176
     1
290
     0
176
     1
290
     0
176
     1
290
     0
176
     1
290
     0
176
     1
290
     0
176
     1
290
     0
176
     1
 90
       50
176
     1
 40
0.0
176
     1
 40
1.0
176
     1
 90
        0
176
     1
 62
   178
420
        0
176
     1
 90
       50
176
     1
 90
        3
176
     1
 62
     5
420
      255
176
     1
290
     0
176
     1
 90
       50
176
     1
 90
       50
176
     1
 90
       50
176
     1
290
     0
176
     1
 90
       50
176
     1
 62
   256
176
     0
 40
1.0
176
     0
 90
        2
176
     1
  1
strokes_ogs.tif
176
     1
290
     0
176
     1
 40
1.0
176
     1
 40
1.0
176
     1
  0
VISUALSTYLE
  5
465
102
{ACAD_REACTORS
330
455
102
}
330
455
100
AcDbVisualStyle
  2
ColorChange
 70
    16
177
     3
291
     1
 70
    58
 90
        2
176
     1
 90
        2
176
     1
 90
        3
176
     1
 90
        0
176
     1
 40
0.6
176
     1
 40
30.0
176
     1
 62
     8
420
  8421504
176
     1
 90
        1
176
     1
 90
        4
176
     1
 62
     7
176
     1
 62
   257
176
     1
 90
        1
176
     1
 90
        1
176
     1
 40
1.0
176
     1
 90
        8
176
     1
 62
     8
420
  8421504
176
     1
 40
1.0
176
     1
 90
        1
176
     1
 90
        6
176
     1
 90
        2
176
     1
 62
     7
176
     1
 90
        5
176
     1
 90
        0
176
     1
 90
        0
176
     1
290
     0
176
     1
 90
        1
176
     1
 40
0.0
176
     1
 90
        0
176
     1
290
     0
176
     1
290
     1
176
     1
290
     1
176
     1
290
     0
176
     1
290
     0
176
     1
290
     0
176
     1
290
     0
176
     1
290
     0
176
     1
290
     0
176
     1
 90
       50
176
     1
 40
0.0
176
     1
 40
1.0
176
     1
 90
        0
176
     1
 62
   178
420
        0
176
     1
 90
       50
176
     1
 90
        3
176
     1
 62
     5
420
      255
176
     1
290
     0
176
     1
 90
       50
176
     1
 90
       50
176
     1
 90
       50
176
     1
290
     0
176
     1
 90
       50
176
     1
 62
   256
176
     0
 40
1.0
176
     0
 90
        2
176
     1
  1
strokes_ogs.tif
176
     1
290
     0
176
     1
 40
1.0
176
     1
 40
1.0
176
     1
  0
VISUALSTYLE
  5
45F
102
{ACAD_REACTORS
330
455
102
}
330
455
100
AcDbVisualStyle
  2
Conceptual
 70
     9
177
     3
291
     0
 70
    58
 90
        3
176
     1
 90
        2
176
     1
 90
        0
176
     1
 90
        0
176
     1
 40
0.6
176
     1
 40
30.0
176
     1
 62
     7
420
 16777215
176
     1
 90
        2
176
     1
 90
        2
176
     1
 62
     7
176
     1
 62
   257
176
     1
 90
        1
176
     1
 90
        1
176
     1
 40
179.0
176
     1
 90
        8
176
     1
 62
     7
176
     1
 40
1.0
176
     1
 90
        1
176
     1
 90
        6
176
     1
 90
        2
176
     1
 62
     7
176
     1
 90
        3
176
     1
 90
        0
176
     1
 90
        0
176
     1
290
     0
176
     1
 90
        1
176
     1
 40
0.0
176
     1
 90
        0
176
     1
290
     0
176
     1
290
     1
176
     1
290
     1
176
     1
290
     0
176
     1
290
     0
176
     1
290
     0
176
     1
290
     0
176
     1
290
     0
176
     1
290
     0
176
     1
 90
       50
176
     1
 40
0.0
176
     1
 40
1.0
176
     1
 90
        0
176
     1
 62
   178
420
        0
176
     1
 90
       50
176
     1
 90
        3
176
     1
 62
     5
420
      255
176
     1
290
     0
176
     1
 90
       50
176
     1
 90
       50
176
     1
 90
       50
176
     1
290
     0
176
     1
 90
       50
176
     1
 62
   256
176
     0
 40
1.0
176
     0
 90
        2
176
     1
  1
strokes_ogs.tif
176
     1
290
     0
176
     1
 40
1.0
176
     1
 40
1.0
176
     1
  0
VISUALSTYLE
  5
460
102
{ACAD_REACTORS
330
455
102
}
330
455
100
AcDbVisualStyle
  2
Dim
 70
    11
177
     3
291
     1
 70
    58
 90
        2
176
     1
 90
        2
176
     1
 90
        0
176
     1
 90
        0
176
     1
 40
0.6
176
     1
 40
30.0
176
     1
 62
     7
420
 16777215
176
     1
 90
        1
176
     1
 90
        4
176
     1
 62
     7
176
     1
 62
   257
176
     1
 90
        1
176
     1
 90
        1
176
     1
 40
1.0
176
     1
 90
        8
176
     1
 62
     7
176
     1
 40
1.0
176
     1
 90
        1
176
     1
 90
        6
176
     1
 90
        2
176
     1
 62
     7
176
     1
 90
        5
176
     1
 90
        0
176
     1
 90
        0
176
     1
290
     0
176
     1
 90
        1
176
     1
 40
-50.0
176
     1
 90
        0
176
     1
290
     0
176
     1
290
     1
176
     1
290
     1
176
     1
290
     0
176
     1
290
     0
176
     1
290
     0
176
     1
290
     0
176
     1
290
     0
176
     1
290
     0
176
     1
 90
       50
176
     1
 40
0.0
176
     1
 40
1.0
176
     1
 90
        0
176
     1
 62
   178
420
        0
176
     1
 90
       50
176
     1
 90
        3
176
     1
 62
     5
420
      255
176
     1
290
     0
176
     1
 90
       50
176
     1
 90
       50
176
     1
 90
       50
176
     1
290
     0
176
     1
 90
       50
176
     1
 62
   256
176
     0
 40
1.0
176
     0
 90
        2
176
     1
  1
strokes_ogs.tif
176
     1
290
     0
176
     1
 40
1.0
176
     1
 40
1.0
176
     1
  0
VISUALSTYLE
  5
468
102
{ACAD_REACTORS
330
455
102
}
330
455
100
AcDbVisualStyle
  2
EdgeColorOff
 70
    22
177
     3
291
     1
 70
    58
 90
        2
176
     0
 90
        2
176
     0
 90
        0
176
     0
 90
        0
176
     0
 40
0.6
176
     0
 40
30.0
176
     0
 62
     7
420
 16777215
176
     0
 90
        1
176
     0
 90
        4
176
     0
 62
     7
176
     0
 62
   257
176
     0
 90
        1
176
     0
 90
        1
176
     0
 40
1.0
176
     0
 90
        8
176
     2
 62
     7
176
     0
 40
1.0
176
     0
 90
        1
176
     0
 90
        6
176
     0
 90
        2
176
     0
 62
     7
176
     0
 90
        5
176
     0
 90
        0
176
     0
 90
        0
176
     0
290
     0
176
     0
 90
        1
176
     0
 40
0.0
176
     0
 90
        0
176
     0
290
     0
176
     0
290
     1
176
     0
290
     1
176
     0
290
     0
176
     0
290
     0
176
     0
290
     0
176
     0
290
     0
176
     0
290
     0
176
     0
290
     0
176
     0
 90
       50
176
     0
 40
0.0
176
     0
 40
1.0
176
     0
 90
        0
176
     0
 62
   178
420
        0
176
     0
 90
       50
176
     0
 90
        3
176
     0
 62
     5
420
      255
176
     0
290
     0
176
     0
 90
       50
176
     0
 90
       50
176
     0
 90
       50
176
     0
290
     0
176
     0
 90
       50
176
     0
 62
   256
176
     0
 40
1.0
176
     0
 90
        2
176
     0
  1
strokes_ogs.tif
176
     0
290
     0
176
     0
 40
1.0
176
     0
 40
1.0
176
     0
  0
VISUALSTYLE
  5
464
102
{ACAD_REACTORS
330
455
102
}
330
455
100
AcDbVisualStyle
  2
Facepattern
 70
    15
177
     3
291
     1
 70
    58
 90
        2
176
     1
 90
        2
176
     1
 90
        0
176
     1
 90
        0
176
     1
 40
0.6
176
     1
 40
30.0
176
     1
 62
     7
420
 16777215
176
     1
 90
        1
176
     1
 90
        4
176
     1
 62
     7
176
     1
 62
   257
176
     1
 90
        1
176
     1
 90
        1
176
     1
 40
1.0
176
     1
 90
        8
176
     1
 62
     7
176
     1
 40
1.0
176
     1
 90
        1
176
     1
 90
        6
176
     1
 90
        2
176
     1
 62
     7
176
     1
 90
        5
176
     1
 90
        0
176
     1
 90
        0
176
     1
290
     0
176
     1
 90
        1
176
     1
 40
0.0
176
     1
 90
        0
176
     1
290
     0
176
     1
290
     1
176
     1
290
     1
176
     1
290
     0
176
     1
290
     0
176
     1
290
     0
176
     1
290
     0
176
     1
290
     0
176
     1
290
     0
176
     1
 90
       50
176
     1
 40
0.0
176
     1
 40
1.0
176
     1
 90
        0
176
     1
 62
   178
420
        0
176
     1
 90
       50
176
     1
 90
        3
176
     1
 62
     5
420
      255
176
     1
290
     0
176
     1
 90
       50
176
     1
 90
       50
176
     1
 90
       50
176
     1
290
     0
176
     1
 90
       50
176
     1
 62
   256
176
     0
 40
1.0
176
     0
 90
        2
176
     1
  1
strokes_ogs.tif
176
     1
290
     0
176
     1
 40
1.0
176
     1
 40
1.0
176
     1
  0
VISUALSTYLE
  5
456
102
{ACAD_REACTORS
330
455
102
}
330
455
100
AcDbVisualStyle
  2
Flat
 70
     0
177
     3
291
     1
 70
    58
 90
        2
176
     1
 90
        1
176
     1
 90
        1
176
     1
 90
        2
176
     1
 40
0.6
176
     1
 40
30.0
176
     1
 62
     7
420
 16777215
176
     1
 90
        0
176
     1
 90
        0
176
     1
 62
     7
176
     1
 62
   257
176
     1
 90
        1
176
     1
 90
        1
176
     1
 40
1.0
176
     1
 90
        8
176
     1
 62
     7
176
     1
 40
1.0
176
     1
 90
        1
176
     1
 90
        6
176
     1
 90
        2
176
     1
 62
     7
176
     1
 90
        5
176
     1
 90
        0
176
     1
 90
        0
176
     1
290
     0
176
     1
 90
       13
176
     1
 40
0.0
176
     1
 90
        0
176
     1
290
     0
176
     1
290
     1
176
     1
290
     1
176
     1
290
     0
176
     1
290
     0
176
     1
290
     0
176
     1
290
     0
176
     1
290
     0
176
     1
290
     0
176
     1
 90
       50
176
     1
 40
0.0
176
     1
 40
1.0
176
     1
 90
        0
176
     1
 62
   178
420
        0
176
     1
 90
       50
176
     1
 90
        3
176
     1
 62
     5
420
      255
176
     1
290
     0
176
     1
 90
       50
176
     1
 90
       50
176
     1
 90
       50
176
     1
290
     0
176
     1
 90
       50
176
     1
 62
   256
176
     0
 40
1.0
176
     0
 90
        2
176
     1
  1
strokes_ogs.tif
176
     1
290
     0
176
     1
 40
1.0
176
     1
 40
1.0
176
     1
  0
VISUALSTYLE
  5
457
102
{ACAD_REACTORS
330
455
102
}
330
455
100
AcDbVisualStyle
  2
FlatWithEdges
 70
     1
177
     3
291
     1
 70
    58
 90
        2
176
     1
 90
        1
176
     1
 90
        1
176
     1
 90
        2
176
     1
 40
0.6
176
     1
 40
30.0
176
     1
 62
     7
420
 16777215
176
     1
 90
        1
176
     1
 90
        0
176
     1
 62
     7
176
     1
 62
   257
176
     1
 90
        1
176
     1
 90
        1
176
     1
 40
1.0
176
     1
 90
        0
176
     1
 62
   257
176
     1
 40
1.0
176
     1
 90
        1
176
     1
 90
        6
176
     1
 90
        2
176
     1
 62
     7
176
     1
 90
        5
176
     1
 90
        0
176
     1
 90
        0
176
     1
290
     0
176
     1
 90
       13
176
     1
 40
0.0
176
     1
 90
        0
176
     1
290
     0
176
     1
290
     1
176
     1
290
     1
176
     1
290
     0
176
     1
290
     0
176
     1
290
     0
176
     1
290
     0
176
     1
290
     0
176
     1
290
     0
176
     1
 90
       50
176
     1
 40
0.0
176
     1
 40
1.0
176
     1
 90
        0
176
     1
 62
   178
420
        0
176
     1
 90
       50
176
     1
 90
        3
176
     1
 62
     5
420
      255
176
     1
290
     0
176
     1
 90
       50
176
     1
 90
       50
176
     1
 90
       50
176
     1
290
     0
176
     1
 90
       50
176
     1
 62
   256
176
     0
 40
1.0
176
     0
 90
        2
176
     1
  1
strokes_ogs.tif
176
     1
290
     0
176
     1
 40
1.0
176
     1
 40
1.0
176
     1
  0
VISUALSTYLE
  5
458
102
{ACAD_REACTORS
330
455
102
}
330
455
100
AcDbVisualStyle
  2
Gouraud
 70
     2
177
     3
291
     1
 70
    58
 90
        2
176
     1
 90
        2
176
     1
 90
        1
176
     1
 90
        2
176
     1
 40
0.6
176
     1
 40
30.0
176
     1
 62
     7
420
 16777215
176
     1
 90
        0
176
     1
 90
        0
176
     1
 62
     7
176
     1
 62
   257
176
     1
 90
        1
176
     1
 90
        1
176
     1
 40
1.0
176
     1
 90
        0
176
     1
 62
     7
176
     1
 40
1.0
176
     1
 90
        1
176
     1
 90
        6
176
     1
 90
        2
176
     1
 62
     7
176
     1
 90
        5
176
     1
 90
        0
176
     1
 90
        0
176
     1
290
     0
176
     1
 90
       13
176
     1
 40
0.0
176
     1
 90
        0
176
     1
290
     0
176
     1
290
     1
176
     1
290
     1
176
     1
290
     0
176
     1
290
     0
176
     1
290
     0
176
     1
290
     0
176
     1
290
     0
176
     1
290
     0
176
     1
 90
       50
176
     1
 40
0.0
176
     1
 40
1.0
176
     1
 90
        0
176
     1
 62
   178
420
        0
176
     1
 90
       50
176
     1
 90
        3
176
     1
 62
     5
420
      255
176
     1
290
     0
176
     1
 90
       50
176
     1
 90
       50
176
     1
 90
       50
176
     1
290
     0
176
     1
 90
       50
176
     1
 62
   256
176
     0
 40
1.0
176
     0
 90
        2
176
     1
  1
strokes_ogs.tif
176
     1
290
     0
176
     1
 40
1.0
176
     1
 40
1.0
176
     1
  0
VISUALSTYLE
  5
459
102
{ACAD_REACTORS
330
455
102
}
330
455
100
AcDbVisualStyle
  2
GouraudWithEdges
 70
     3
177
     3
291
     1
 70
    58
 90
        2
176
     1
 90
        2
176
     1
 90
        1
176
     1
 90
        2
176
     1
 40
0.6
176
     1
 40
30.0
176
     1
 62
     7
420
 16777215
176
     1
 90
        1
176
     1
 90
        0
176
     1
 62
     7
176
     1
 62
   257
176
     1
 90
        1
176
     1
 90
        1
176
     1
 40
1.0
176
     1
 90
        0
176
     1
 62
   257
176
     1
 40
1.0
176
     1
 90
        1
176
     1
 90
        6
176
     1
 90
        2
176
     1
 62
     7
176
     1
 90
        5
176
     1
 90
        0
176
     1
 90
        0
176
     1
290
     0
176
     1
 90
       13
176
     1
 40
0.0
176
     1
 90
        0
176
     1
290
     0
176
     1
290
     1
176
     1
290
     1
176
     1
290
     0
176
     1
290
     0
176
     1
290
     0
176
     1
290
     0
176
     1
290
     0
176
     1
290
     0
176
     1
 90
       50
176
     1
 40
0.0
176
     1
 40
1.0
176
     1
 90
        0
176
     1
 62
   178
420
        0
176
     1
 90
       50
176
     1
 90
        3
176
     1
 62
     5
420
      255
176
     1
290
     0
176
     1
 90
       50
176
     1
 90
       50
176
     1
 90
       50
176
     1
290
     0
176
     1
 90
       50
176
     1
 62
   256
176
     0
 40
1.0
176
     0
 90
        2
176
     1
  1
strokes_ogs.tif
176
     1
290
     0
176
     1
 40
1.0
176
     1
 40
1.0
176
     1
  0
VISUALSTYLE
  5
45C
102
{ACAD_REACTORS
330
455
102
}
330
455
100
AcDbVisualStyle
  2
Hidden
 70
     6
177
     3
291
     0
 70
    58
 90
        1
176
     1
 90
        2
176
     1
 90
        2
176
     1
 90
        0
176
     1
 40
0.6
176
     1
 40
30.0
176
     1
 62
     7
420
 16777215
176
     1
 90
        2
176
     1
 90
        2
176
     1
 62
     7
176
     1
 62
   257
176
     1
 90
        2
176
     1
 90
        1
176
     1
 40
40.0
176
     1
 90
        0
176
     1
 62
   257
176
     1
 40
1.0
176
     1
 90
        1
176
     1
 90
        6
176
     1
 90
        2
176
     1
 62
     7
176
     1
 90
        3
176
     1
 90
        0
176
     1
 90
        0
176
     1
290
     0
176
     1
 90
        1
176
     1
 40
0.0
176
     1
 90
        0
176
     1
290
     0
176
     1
290
     1
176
     1
290
     1
176
     1
290
     0
176
     1
290
     0
176
     1
290
     0
176
     1
290
     0
176
     1
290
     0
176
     1
290
     0
176
     1
 90
       50
176
     1
 40
0.0
176
     1
 40
1.0
176
     1
 90
        0
176
     1
 62
   178
420
        0
176
     1
 90
       50
176
     1
 90
        3
176
     1
 62
     5
420
      255
176
     1
290
     0
176
     1
 90
       50
176
     1
 90
       50
176
     1
 90
       50
176
     1
290
     0
176
     1
 90
       50
176
     1
 62
   256
176
     0
 40
1.0
176
     0
 90
        2
176
     1
  1
strokes_ogs.tif
176
     1
290
     0
176
     1
 40
1.0
176
     1
 40
1.0
176
     1
  0
VISUALSTYLE
  5
466
102
{ACAD_REACTORS
330
455
102
}
330
455
100
AcDbVisualStyle
  2
JitterOff
 70
    20
177
     3
291
     1
 70
    58
 90
        2
176
     0
 90
        2
176
     0
 90
        0
176
     0
 90
        0
176
     0
 40
0.6
176
     0
 40
30.0
176
     0
 62
     7
420
 16777215
176
     0
 90
        1
176
     0
 90
        4
176
     0
 62
     7
176
     0
 62
   257
176
     0
 90
        1
176
     0
 90
        1
176
     0
 40
1.0
176
     0
 90
       10
176
     2
 62
     7
176
     0
 40
1.0
176
     0
 90
        1
176
     0
 90
        6
176
     0
 90
        2
176
     0
 62
     7
176
     0
 90
        5
176
     0
 90
        0
176
     0
 90
        0
176
     0
290
     0
176
     0
 90
        1
176
     0
 40
0.0
176
     0
 90
        0
176
     0
290
     0
176
     0
290
     1
176
     0
290
     1
176
     0
290
     0
176
     0
290
     0
176
     0
290
     0
176
     0
290
     0
176
     0
290
     0
176
     0
290
     0
176
     0
 90
       50
176
     0
 40
0.0
176
     0
 40
1.0
176
     0
 90
        0
176
     0
 62
   178
420
        0
176
     0
 90
       50
176
     0
 90
        3
176
     0
 62
     5
420
      255
176
     0
290
     0
176
     0
 90
       50
176
     0
 90
       50
176
     0
 90
       50
176
     0
290
     0
176
     0
 90
       50
176
     0
 62
   256
176
     0
 40
1.0
176
     0
 90
        2
176
     0
  1
strokes_ogs.tif
176
     0
290
     0
176
     0
 40
1.0
176
     0
 40
1.0
176
     0
  0
VISUALSTYLE
  5
463
102
{ACAD_REACTORS
330
455
102
}
330
455
100
AcDbVisualStyle
  2
Linepattern
 70
    14
177
     3
291
     1
 70
    58
 90
        2
176
     1
 90
        2
176
     1
 90
        0
176
     1
 90
        0
176
     1
 40
0.6
176
     1
 40
30.0
176
     1
 62
     7
420
 16777215
176
     1
 90
        1
176
     1
 90
        4
176
     1
 62
     7
176
     1
 62
   257
176
     1
 90
        7
176
     1
 90
        7
176
     1
 40
1.0
176
     1
 90
        8
176
     1
 62
     7
176
     1
 40
1.0
176
     1
 90
        1
176
     1
 90
        6
176
     1
 90
        2
176
     1
 62
     7
176
     1
 90
        5
176
     1
 90
        0
176
     1
 90
        0
176
     1
290
     0
176
     1
 90
        1
176
     1
 40
0.0
176
     1
 90
        0
176
     1
290
     0
176
     1
290
     1
176
     1
290
     1
176
     1
290
     0
176
     1
290
     0
176
     1
290
     0
176
     1
290
     0
176
     1
290
     0
176
     1
290
     0
176
     1
 90
       50
176
     1
 40
0.0
176
     1
 40
1.0
176
     1
 90
        0
176
     1
 62
   178
420
        0
176
     1
 90
       50
176
     1
 90
        3
176
     1
 62
     5
420
      255
176
     1
290
     0
176
     1
 90
       50
176
     1
 90
       50
176
     1
 90
       50
176
     1
290
     0
176
     1
 90
       50
176
     1
 62
   256
176
     0
 40
1.0
176
     0
 90
        2
176
     1
  1
strokes_ogs.tif
176
     1
290
     0
176
     1
 40
1.0
176
     1
 40
1.0
176
     1
  0
VISUALSTYLE
  5
467
102
{ACAD_REACTORS
330
455
102
}
330
455
100
AcDbVisualStyle
  2
OverhangOff
 70
    21
177
     3
291
     1
 70
    58
 90
        2
176
     0
 90
        2
176
     0
 90
        0
176
     0
 90
        0
176
     0
 40
0.6
176
     0
 40
30.0
176
     0
 62
     7
420
 16777215
176
     0
 90
        1
176
     0
 90
        4
176
     0
 62
     7
176
     0
 62
   257
176
     0
 90
        1
176
     0
 90
        1
176
     0
 40
1.0
176
     0
 90
        9
176
     2
 62
     7
176
     0
 40
1.0
176
     0
 90
        1
176
     0
 90
        6
176
     0
 90
        2
176
     0
 62
     7
176
     0
 90
        5
176
     0
 90
        0
176
     0
 90
        0
176
     0
290
     0
176
     0
 90
        1
176
     0
 40
0.0
176
     0
 90
        0
176
     0
290
     0
176
     0
290
     1
176
     0
290
     1
176
     0
290
     0
176
     0
290
     0
176
     0
290
     0
176
     0
290
     0
176
     0
290
     0
176
     0
290
     0
176
     0
 90
       50
176
     0
 40
0.0
176
     0
 40
1.0
176
     0
 90
        0
176
     0
 62
   178
420
        0
176
     0
 90
       50
176
     0
 90
        3
176
     0
 62
     5
420
      255
176
     0
290
     0
176
     0
 90
       50
176
     0
 90
       50
176
     0
 90
       50
176
     0
290
     0
176
     0
 90
       50
176
     0
 62
   256
176
     0
 40
1.0
176
     0
 90
        2
176
     0
  1
strokes_ogs.tif
176
     0
290
     0
176
     0
 40
1.0
176
     0
 40
1.0
176
     0
  0
VISUALSTYLE
  5
45E
102
{ACAD_REACTORS
330
455
102
}
330
455
100
AcDbVisualStyle
  2
Realistic
 70
     8
177
     3
291
     0
 70
    58
 90
        2
176
     1
 90
        3
176
     1
 90
        0
176
     1
 90
        2
176
     1
 40
0.6
176
     1
 40
30.0
176
     1
 62
     7
420
 16777215
176
     1
 90
        0
176
     1
 90
        0
176
     1
 62
     7
176
     1
 62
   257
176
     1
 90
        1
176
     1
 90
        1
176
     1
 40
1.0
176
     1
 90
        8
176
     1
 62
   257
176
     1
 40
1.0
176
     1
 90
        1
176
     1
 90
        6
176
     1
 90
        2
176
     1
 62
     7
176
     1
 90
        3
176
     1
 90
        0
176
     1
 90
        0
176
     1
290
     0
176
     1
 90
       13
176
     1
 40
0.0
176
     1
 90
        0
176
     1
290
     0
176
     1
290
     1
176
     1
290
     1
176
     1
290
     0
176
     1
290
     0
176
     1
290
     0
176
     1
290
     0
176
     1
290
     0
176
     1
290
     0
176
     1
 90
       50
176
     1
 40
0.0
176
     1
 40
1.0
176
     1
 90
        0
176
     1
 62
   178
420
        0
176
     1
 90
       50
176
     1
 90
        3
176
     1
 62
     5
420
      255
176
     1
290
     0
176
     1
 90
       50
176
     1
 90
       50
176
     1
 90
       50
176
     1
290
     0
176
     1
 90
       50
176
     1
 62
   256
176
     0
 40
1.0
176
     0
 90
        2
176
     1
  1
strokes_ogs.tif
176
     1
290
     0
176
     1
 40
1.0
176
     1
 40
1.0
176
     1
  0
VISUALSTYLE
  5
46D
102
{ACAD_REACTORS
330
455
102
}
330
455
100
AcDbVisualStyle
  2
Shaded
 70
    27
177
     3
291
     0
 70
    58
 90
        2
176
     1
 90
        2
176
     1
 90
        1
176
     1
 90
        2
176
     1
 40
0.6
176
     1
 40
30.0
176
     1
 62
     7
420
 16777215
176
     1
 90
        0
176
     1
 90
        4
176
     1
 62
     7
176
     1
 62
   257
176
     1
 90
        1
176
     1
 90
        1
176
     1
 40
1.0
176
     1
 90
        8
176
     1
 62
   257
176
     1
 40
1.0
176
     1
 90
        1
176
     1
 90
        6
176
     1
 90
        2
176
     1
 62
     8
420
  7895160
176
     1
 90
        3
176
     1
 90
        0
176
     1
 90
        0
176
     1
290
     0
176
     1
 90
        5
176
     1
 40
0.0
176
     1
 90
        0
176
     1
290
     0
176
     1
290
     1
176
     1
290
     1
176
     1
290
     0
176
     1
290
     0
176
     1
290
     0
176
     1
290
     0
176
     1
290
     0
176
     1
290
     0
176
     1
 90
       50
176
     1
 40
0.0
176
     1
 40
1.0
176
     1
 90
        0
176
     1
 62
   178
420
        0
176
     1
 90
       50
176
     1
 90
        3
176
     1
 62
     5
420
      255
176
     1
290
     0
176
     1
 90
       50
176
     1
 90
       50
176
     1
 90
       50
176
     1
290
     0
176
     1
 90
       50
176
     1
 62
   256
176
     0
 40
1.0
176
     0
 90
        2
176
     1
  1
strokes_ogs.tif
176
     1
290
     0
176
     1
 40
1.0
176
     1
 40
1.0
176
     1
  0
VISUALSTYLE
  5
46C
102
{ACAD_REACTORS
330
455
102
}
330
455
100
AcDbVisualStyle
  2
Shaded with edges
 70
    26
177
     3
291
     0
 70
    58
 90
        2
176
     1
 90
        2
176
     1
 90
        1
176
     1
 90
        2
176
     1
 40
0.6
176
     1
 40
30.0
176
     1
 62
     7
420
 16777215
176
     1
 90
        1
176
     1
 90
       10
176
     1
 62
     7
176
     1
 62
   257
176
     1
 90
        2
176
     1
 90
        1
176
     1
 40
1.0
176
     1
 90
        8
176
     1
 62
   257
176
     1
 40
1.0
176
     1
 90
        1
176
     1
 90
        6
176
     1
 90
        2
176
     1
 62
     7
176
     1
 90
        3
176
     1
 90
        0
176
     1
 90
        0
176
     1
290
     0
176
     1
 90
        5
176
     1
 40
0.0
176
     1
 90
        0
176
     1
290
     0
176
     1
290
     1
176
     1
290
     1
176
     1
290
     0
176
     1
290
     0
176
     1
290
     0
176
     1
290
     0
176
     1
290
     0
176
     1
290
     0
176
     1
 90
       50
176
     1
 40
0.0
176
     1
 40
1.0
176
     1
 90
        0
176
     1
 62
   178
420
        0
176
     1
 90
       50
176
     1
 90
        3
176
     1
 62
     5
420
      255
176
     1
290
     0
176
     1
 90
       50
176
     1
 90
       50
176
     1
 90
       50
176
     1
290
     0
176
     1
 90
       50
176
     1
 62
   256
176
     0
 40
1.0
176
     0
 90
        2
176
     1
  1
strokes_ogs.tif
176
     1
290
     0
176
     1
 40
1.0
176
     1
 40
1.0
176
     1
  0
VISUALSTYLE
  5
469
102
{ACAD_REACTORS
330
455
102
}
330
455
100
AcDbVisualStyle
  2
Shades of Gray
 70
    23
177
     3
291
     0
 70
    58
 90
        2
176
     1
 90
        2
176
     1
 90
        3
176
     1
 90
        0
176
     1
 40
0.6
176
     1
 40
30.0
176
     1
 62
     7
420
 16777215
176
     1
 90
        2
176
     1
 90
        2
176
     1
 62
     7
176
     1
 62
     7
176
     1
 90
        1
176
     1
 90
        1
176
     1
 40
40.0
176
     1
 90
        8
176
     1
 62
     7
176
     1
 40
1.0
176
     1
 90
        1
176
     1
 90
        6
176
     1
 90
        2
176
     1
 62
     7
176
     1
 90
        3
176
     1
 90
        0
176
     1
 90
        0
176
     1
290
     0
176
     1
 90
        1
176
     1
 40
0.0
176
     1
 90
        0
176
     1
290
     0
176
     1
290
     1
176
     1
290
     1
176
     1
290
     0
176
     1
290
     0
176
     1
290
     0
176
     1
290
     0
176
     1
290
     0
176
     1
290
     0
176
     1
 90
       50
176
     1
 40
0.0
176
     1
 40
1.0
176
     1
 90
        0
176
     1
 62
   178
420
        0
176
     1
 90
       50
176
     1
 90
        3
176
     1
 62
     5
420
      255
176
     1
290
     0
176
     1
 90
       50
176
     1
 90
       50
176
     1
 90
       50
176
     1
290
     0
176
     1
 90
       50
176
     1
 62
   256
176
     0
 40
1.0
176
     0
 90
        2
176
     1
  1
strokes_ogs.tif
176
     1
290
     0
176
     1
 40
1.0
176
     1
 40
1.0
176
     1
  0
VISUALSTYLE
  5
46A
102
{ACAD_REACTORS
330
455
102
}
330
455
100
AcDbVisualStyle
  2
Sketchy
 70
    24
177
     3
291
     0
 70
    58
 90
        1
176
     1
 90
        2
176
     1
 90
        2
176
     1
 90
        0
176
     1
 40
0.6
176
     1
 40
30.0
176
     1
 62
     7
420
 16777215
176
     1
 90
        2
176
     1
 90
        2
176
     1
 62
     7
176
     1
 62
     7
176
     1
 90
        1
176
     1
 90
        1
176
     1
 40
40.0
176
     1
 90
       11
176
     1
 62
     7
176
     1
 40
1.0
176
     1
 90
        1
176
     1
 90
        6
176
     1
 90
        2
176
     1
 62
     7
176
     1
 90
        6
176
     1
 90
        0
176
     1
 90
        0
176
     1
290
     0
176
     1
 90
        1
176
     1
 40
0.0
176
     1
 90
        0
176
     1
290
     0
176
     1
290
     1
176
     1
290
     1
176
     1
290
     0
176
     1
290
     0
176
     1
290
     0
176
     1
290
     0
176
     1
290
     0
176
     1
290
     0
176
     1
 90
       50
176
     1
 40
0.0
176
     1
 40
1.0
176
     1
 90
        0
176
     1
 62
   178
420
        0
176
     1
 90
       50
176
     1
 90
        3
176
     1
 62
     5
420
      255
176
     1
290
     0
176
     1
 90
       50
176
     1
 90
       50
176
     1
 90
       50
176
     1
290
     0
176
     1
 90
       50
176
     1
 62
   256
176
     0
 40
1.0
176
     0
 90
        2
176
     1
  1
strokes_ogs.tif
176
     1
290
     0
176
     1
 40
1.0
176
     1
 40
1.0
176
     1
  0
VISUALSTYLE
  5
462
102
{ACAD_REACTORS
330
455
102
}
330
455
100
AcDbVisualStyle
  2
Thicken
 70
    13
177
     3
291
     1
 70
    58
 90
        2
176
     1
 90
        2
176
     1
 90
        0
176
     1
 90
        0
176
     1
 40
0.6
176
     1
 40
30.0
176
     1
 62
     7
420
 16777215
176
     1
 90
        1
176
     1
 90
        4
176
     1
 62
     7
176
     1
 62
   257
176
     1
 90
        1
176
     1
 90
        1
176
     1
 40
1.0
176
     1
 90
       12
176
     1
 62
     7
176
     1
 40
1.0
176
     1
 90
        1
176
     1
 90
        6
176
     1
 90
        2
176
     1
 62
     7
176
     1
 90
        5
176
     1
 90
        0
176
     1
 90
        0
176
     1
290
     0
176
     1
 90
        1
176
     1
 40
0.0
176
     1
 90
        0
176
     1
290
     0
176
     1
290
     1
176
     1
290
     1
176
     1
290
     0
176
     1
290
     0
176
     1
290
     0
176
     1
290
     0
176
     1
290
     0
176
     1
290
     0
176
     1
 90
       50
176
     1
 40
0.0
176
     1
 40
1.0
176
     1
 90
        0
176
     1
 62
   178
420
        0
176
     1
 90
       50
176
     1
 90
        3
176
     1
 62
     5
420
      255
176
     1
290
     0
176
     1
 90
       50
176
     1
 90
       50
176
     1
 90
       50
176
     1
290
     0
176
     1
 90
       50
176
     1
 62
   256
176
     0
 40
1.0
176
     0
 90
        2
176
     1
  1
strokes_ogs.tif
176
     1
290
     0
176
     1
 40
1.0
176
     1
 40
1.0
176
     1
  0
VISUALSTYLE
  5
45B
102
{ACAD_REACTORS
330
455
102
}
330
455
100
AcDbVisualStyle
  2
Wireframe
 70
     5
177
     3
291
     0
 70
    58
 90
        0
176
     1
 90
        2
176
     1
 90
        0
176
     1
 90
        0
176
     1
 40
0.6
176
     1
 40
30.0
176
     1
 62
     7
420
 16777215
176
     1
 90
        1
176
     1
 90
        4
176
     1
 62
     7
176
     1
 62
   257
176
     1
 90
        1
176
     1
 90
        1
176
     1
 40
1.0
176
     1
 90
        0
176
     1
 62
   257
176
     1
 40
1.0
176
     1
 90
        1
176
     1
 90
        6
176
     1
 90
        2
176
     1
 62
     7
176
     1
 90
        3
176
     1
 90
        0
176
     1
 90
        0
176
     1
290
     0
176
     1
 90
        1
176
     1
 40
0.0
176
     1
 90
        0
176
     1
290
     0
176
     1
290
     1
176
     1
290
     1
176
     1
290
     0
176
     1
290
     0
176
     1
290
     0
176
     1
290
     0
176
     1
290
     0
176
     1
290
     0
176
     1
 90
       50
176
     1
 40
0.0
176
     1
 40
1.0
176
     1
 90
        0
176
     1
 62
   178
420
        0
176
     1
 90
       50
176
     1
 90
        3
176
     1
 62
     5
420
      255
176
     1
290
     0
176
     1
 90
       50
176
     1
 90
       50
176
     1
 90
       50
176
     1
290
     0
176
     1
 90
       50
176
     1
 62
   256
176
     0
 40
1.0
176
     0
 90
        2
176
     1
  1
strokes_ogs.tif
176
     1
290
     0
176
     1
 40
1.0
176
     1
 40
1.0
176
     1
  0
VISUALSTYLE
  5
46B
102
{ACAD_REACTORS
330
455
102
}
330
455
100
AcDbVisualStyle
  2
X-Ray
 70
    25
177
     3
291
     0
 70
    58
 90
        2
176
     1
 90
        2
176
     1
 90
        1
176
     1
 90
        1
176
     1
 40
0.5
176
     1
 40
30.0
176
     1
 62
     7
420
 16777215
176
     1
 90
        1
176
     1
 90
        0
176
     1
 62
     7
176
     1
 62
   257
176
     1
 90
        1
176
     1
 90
        1
176
     1
 40
1.0
176
     1
 90
        8
176
     1
 62
     7
176
     1
 40
1.0
176
     1
 90
        1
176
     1
 90
        6
176
     1
 90
        2
176
     1
 62
     7
176
     1
 90
        3
176
     1
 90
        0
176
     1
 90
        0
176
     1
290
     0
176
     1
 90
       13
176
     1
 40
0.0
176
     1
 90
        0
176
     1
290
     0
176
     1
290
     1
176
     1
290
     1
176
     1
290
     0
176
     1
290
     0
176
     1
290
     0
176
     1
290
     0
176
     1
290
     0
176
     1
290
     0
176
     1
 90
       50
176
     1
 40
0.0
176
     1
 40
1.0
176
     1
 90
        0
176
     1
 62
   178
420
        0
176
     1
 90
       50
176
     1
 90
        3
176
     1
 62
     5
420
      255
176
     1
290
     0
176
     1
 90
       50
176
     1
 90
       50
176
     1
 90
       50
176
     1
290
     0
176
     1
 90
       50
176
     1
 62
   256
176
     0
 40
1.0
176
     0
 90
        2
176
     1
  1
strokes_ogs.tif
176
     1
290
     0
176
     1
 40
1.0
176
     1
 40
1.0
176
     1
  0
DICTIONARYVAR
  5
50A
102
{ACAD_REACTORS
330
509
102
}
330
509
100
DictionaryVariables
280
     0
  1
1:1
  0
DICTIONARYVAR
  5
50F
102
{ACAD_REACTORS
330
509
102
}
330
509
100
DictionaryVariables
280
     0
  1
Standard
  0
DICTIONARYVAR
  5
50E
102
{ACAD_REACTORS
330
509
102
}
330
509
100
DictionaryVariables
280
     0
  1
Standard
  0
XRECORD
  5
49C
102
{ACAD_REACTORS
330
49A
102
}
330
49A
100
AcDbXrecord
280
     1
1000
#ffffff
  0
XRECORD
  5
49D
102
{ACAD_REACTORS
330
49A
102
}
330
49A
100
AcDbXrecord
280
     1
1000
FullColor
  0
XRECORD
  5
49E
102
{ACAD_REACTORS
330
49A
102
}
330
49A
100
AcDbXrecord
280
     1
290
     1
  0
XRECORD
  5
49F
102
{ACAD_REACTORS
330
49A
102
}
330
49A
100
AcDbXrecord
280
     1
290
     1
  0
XRECORD
  5
4A0
102
{ACAD_REACTORS
330
49A
102
}
330
49A
100
AcDbXrecord
280
     1
290
     1
  0
XRECORD
  5
4A1
102
{ACAD_REACTORS
330
49A
102
}
330
49A
100
AcDbXrecord
280
     1
290
     1
  0
XRECORD
  5
4A2
102
{ACAD_REACTORS
330
49A
102
}
330
49A
100
AcDbXrecord
280
     1
1000
auto
  0
XRECORD
  5
4A3
102
{ACAD_REACTORS
330
49A
102
}
330
49A
100
AcDbXrecord
280
     1
1000
auto
  0
XRECORD
  5
4A4
102
{ACAD_REACTORS
330
49A
102
}
330
49A
100
AcDbXrecord
280
     1
1000
auto
  0
XRECORD
  5
4A5
102
{ACAD_REACTORS
330
49A
102
}
330
49A
100
AcDbXrecord
280
     1
1000
auto
  0
XRECORD
  5
4A6
102
{ACAD_REACTORS
330
49A
102
}
330
49A
100
AcDbXrecord
280
     1
1000
auto
  0
XRECORD
  5
4A7
102
{ACAD_REACTORS
330
49A
102
}
330
49A
100
AcDbXrecord
280
     1
1000
auto
  0
XRECORD
  5
4A8
102
{ACAD_REACTORS
330
49A
102
}
330
49A
100
AcDbXrecord
280
     1
1000
auto
  0
XRECORD
  5
4A9
102
{ACAD_REACTORS
330
49A
102
}
330
49A
100
AcDbXrecord
280
     1
1000
auto
  0
XRECORD
  5
4AA
102
{ACAD_REACTORS
330
49A
102
}
330
49A
100
AcDbXrecord
280
     1
290
     0
  0
XRECORD
  5
4AB
102
{ACAD_REACTORS
330
49A
102
}
330
49A
100
AcDbXrecord
280
     1
290
     0
  0
XRECORD
  5
4AC
102
{ACAD_REACTORS
330
49A
102
}
330
49A
100
AcDbXrecord
280
     1
290
     0
  0
XRECORD
  5
4AD
102
{ACAD_REACTORS
330
49A
102
}
330
49A
100
AcDbXrecord
280
     1
290
     0
  0
XRECORD
  5
4AE
102
{ACAD_REACTORS
330
49A
102
}
330
49A
100
AcDbXrecord
280
     1
 90
    65537
  0
XRECORD
  5
4AF
102
{ACAD_REACTORS
330
49A
102
}
330
49A
100
AcDbXrecord
280
     1
 90
    65537
  0
XRECORD
  5
4B0
102
{ACAD_REACTORS
330
49A
102
}
330
49A
100
AcDbXrecord
280
     1
 90
    65537
  0
XRECORD
  5
4B1
102
{ACAD_REACTORS
330
49A
102
}
330
49A
100
AcDbXrecord
280
     1
 90
    65537
  0
XRECORD
  5
4B2
102
{ACAD_REACTORS
330
49A
102
}
330
49A
100
AcDbXrecord
280
     1
1000
auto
  0
XRECORD
  5
4B3
102
{ACAD_REACTORS
330
49A
102
}
330
49A
100
AcDbXrecord
280
     1
1000
auto
  0
XRECORD
  5
4B4
102
{ACAD_REACTORS
330
49A
102
}
330
49A
100
AcDbXrecord
280
     1
1000
auto
  0
XRECORD
  5
4B5
102
{ACAD_REACTORS
330
49A
102
}
330
49A
100
AcDbXrecord
280
     1
1000
auto
  0
XRECORD
  5
4B6
102
{ACAD_REACTORS
330
49A
102
}
330
49A
100
AcDbXrecord
280
     1
1000
auto
  0
XRECORD
  5
4B7
102
{ACAD_REACTORS
330
49A
102
}
330
49A
100
AcDbXrecord
280
     1
1000
auto
  0
XRECORD
  5
4B8
102
{ACAD_REACTORS
330
49A
102
}
330
49A
100
AcDbXrecord
280
     1
1000
auto
  0
XRECORD
  5
4B9
102
{ACAD_REACTORS
330
49A
102
}
330
49A
100
AcDbXrecord
280
     1
1000
auto
  0
XRECORD
  5
4BA
102
{ACAD_REACTORS
330
49A
102
}
330
49A
100
AcDbXrecord
280
     1
 90
        1
  0
XRECORD
  5
4BB
102
{ACAD_REACTORS
330
49A
102
}
330
49A
100
AcDbXrecord
280
     1
 40
10.0
  0
XRECORD
  5
4BC
102
{ACAD_REACTORS
330
49A
102
}
330
49A
100
AcDbXrecord
280
     1
 40
10.0
  0
XRECORD
  5
4BD
102
{ACAD_REACTORS
330
49A
102
}
330
49A
100
AcDbXrecord
280
     1
 40
10.0
  0
XRECORD
  5
4BE
102
{ACAD_REACTORS
330
49A
102
}
330
49A
100
AcDbXrecord
280
     1
 40
10.0
  0
XRECORD
  5
4BF
102
{ACAD_REACTORS
330
49A
102
}
330
49A
100
AcDbXrecord
280
     1
290
     0
  0
XRECORD
  5
4C0
102
{ACAD_REACTORS
330
49A
102
}
330
49A
100
AcDbXrecord
280
     1
 90
        1
  0
XRECORD
  5
4C1
102
{ACAD_REACTORS
330
49A
102
}
330
49A
100
AcDbXrecord
280
     1
 40
0.0
  0
XRECORD
  5
4C2
102
{ACAD_REACTORS
330
49A
102
}
330
49A
100
AcDbXrecord
280
     1
 40
0.0
  0
XRECORD
  5
4C3
102
{ACAD_REACTORS
330
49A
102
}
330
49A
100
AcDbXrecord
280
     1
1000
Portrait
  0
XRECORD
  5
4C4
102
{ACAD_REACTORS
330
49A
102
}
330
49A
100
AcDbXrecord
280
     1
 40
297.0
  0
XRECORD
  5
4C5
102
{ACAD_REACTORS
330
49A
102
}
330
49A
100
AcDbXrecord
280
     1
 40
210.0
  0
XRECORD
  5
4C6
102
{ACAD_REACTORS
330
49A
102
}
330
49A
100
AcDbXrecord
280
     1
1000
1:1
  0
XRECORD
  5
4C7
102
{ACAD_REACTORS
330
49A
102
}
330
49A
100
AcDbXrecord
280
     1
290
     1
  0
XRECORD
  5
49B
102
{ACAD_REACTORS
330
49A
102
}
330
49A
100
AcDbXrecord
280
     1
1000
3.21.2
  0
XRECORD
  5
4C8
102
{ACAD_REACTORS
330
49A
102
}
330
49A
100
AcDbXrecord
280
     1
 90
        4
  0
XRECORD
  5
4C9
102
{ACAD_REACTORS
330
49A
102
}
330
49A
100
AcDbXrecord
280
     1
  0
XRECORD
  5
4CA
102
{ACAD_REACTORS
330
49A
102
}
330
49A
100
AcDbXrecord
280
     1
 40
186.20928
  0
XRECORD
  5
4CB
102
{ACAD_REACTORS
330
49A
102
}
330
49A
100
AcDbXrecord
280
     1
 40
307.5148799999999
  0
DICTIONARY
  5
50B
330
495
100
AcDbDictionary
280
     1
281
     1
  3
ACAD_ROUNDTRIP_2008_TABLESTYLE_CELLSTYLEMAP
360
50C
  0
CELLSTYLEMAP
  5
50C
102
{ACAD_REACTORS
330
50B
102
}
330
50B
100
AcDbCellStyleMap
 90
        3
300
CELLSTYLE
  1
TABLEFORMAT_BEGIN
 90
        5
170
     1
 91
        0
 92
    32768
 62
   257
 93
        1
300
CONTENTFORMAT
  1
CONTENTFORMAT_BEGIN
 90
        0
 91
        0
 92
        4
 93
        0
300

 40
0.0
140
1.0
 94
        5
 62
     0
340
43D
144
0.25
309
CONTENTFORMAT_END
171
     1
301
MARGIN
  1
CELLMARGIN_BEGIN
 40
0.06
 40
0.06
 40
0.06
 40
0.06
 40
0.06
 40
0.06
309
CELLMARGIN_END
 94
        6
 95
        1
302
GRIDFORMAT
  1
GRIDFORMAT_BEGIN
 90
        0
 91
        1
 62
     0
 92
       -2
340
43F
 93
        0
 40
0.045
309
GRIDFORMAT_END
 95
        2
302
GRIDFORMAT
  1
GRIDFORMAT_BEGIN
 90
        0
 91
        1
 62
     0
 92
       -2
340
43F
 93
        0
 40
0.045
309
GRIDFORMAT_END
 95
        4
302
GRIDFORMAT
  1
GRIDFORMAT_BEGIN
 90
        0
 91
        1
 62
     0
 92
       -2
340
43F
 93
        0
 40
0.045
309
GRIDFORMAT_END
 95
        8
302
GRIDFORMAT
  1
GRIDFORMAT_BEGIN
 90
        0
 91
        1
 62
     0
 92
       -2
340
43F
 93
        0
 40
0.045
309
GRIDFORMAT_END
 95
       16
302
GRIDFORMAT
  1
GRIDFORMAT_BEGIN
 90
        0
 91
        1
 62
     0
 92
       -2
340
43F
 93
        0
 40
0.045
309
GRIDFORMAT_END
 95
       32
302
GRIDFORMAT
  1
GRIDFORMAT_BEGIN
 90
        0
 91
        1
 62
     0
 92
       -2
340
43F
 93
        0
 40
0.045
309
GRIDFORMAT_END
309
TABLEFORMAT_END
  1
CELLSTYLE_BEGIN
 90
        1
 91
        1
300
_TITLE
309
CELLSTYLE_END
300
CELLSTYLE
  1
TABLEFORMAT_BEGIN
 90
        5
170
     1
 91
        0
 92
        0
 62
   257
 93
        1
300
CONTENTFORMAT
  1
CONTENTFORMAT_BEGIN
 90
        0
 91
        0
 92
        4
 93
        0
300

 40
0.0
140
1.0
 94
        5
 62
     0
340
43D
144
0.18
309
CONTENTFORMAT_END
171
     1
301
MARGIN
  1
CELLMARGIN_BEGIN
 40
0.06
 40
0.06
 40
0.06
 40
0.06
 40
0.06
 40
0.06
309
CELLMARGIN_END
 94
        6
 95
        1
302
GRIDFORMAT
  1
GRIDFORMAT_BEGIN
 90
        0
 91
        1
 62
     0
 92
       -2
340
43F
 93
        0
 40
0.045
309
GRIDFORMAT_END
 95
        2
302
GRIDFORMAT
  1
GRIDFORMAT_BEGIN
 90
        0
 91
        1
 62
     0
 92
       -2
340
43F
 93
        0
 40
0.045
309
GRIDFORMAT_END
 95
        4
302
GRIDFORMAT
  1
GRIDFORMAT_BEGIN
 90
        0
 91
        1
 62
     0
 92
       -2
340
43F
 93
        0
 40
0.045
309
GRIDFORMAT_END
 95
        8
302
GRIDFORMAT
  1
GRIDFORMAT_BEGIN
 90
        0
 91
        1
 62
     0
 92
       -2
340
43F
 93
        0
 40
0.045
309
GRIDFORMAT_END
 95
       16
302
GRIDFORMAT
  1
GRIDFORMAT_BEGIN
 90
        0
 91
        1
 62
     0
 92
       -2
340
43F
 93
        0
 40
0.045
309
GRIDFORMAT_END
 95
       32
302
GRIDFORMAT
  1
GRIDFORMAT_BEGIN
 90
        0
 91
        1
 62
     0
 92
       -2
340
43F
 93
        0
 40
0.045
309
GRIDFORMAT_END
309
TABLEFORMAT_END
  1
CELLSTYLE_BEGIN
 90
        2
 91
        1
300
_HEADER
309
CELLSTYLE_END
300
CELLSTYLE
  1
TABLEFORMAT_BEGIN
 90
        5
170
     1
 91
        0
 92
        0
 62
   257
 93
        1
300
CONTENTFORMAT
  1
CONTENTFORMAT_BEGIN
 90
        0
 91
        0
 92
        4
 93
        0
300

 40
0.0
140
1.0
 94
        2
 62
     0
340
43D
144
0.18
309
CONTENTFORMAT_END
171
     1
301
MARGIN
  1
CELLMARGIN_BEGIN
 40
0.06
 40
0.06
 40
0.06
 40
0.06
 40
0.06
 40
0.06
309
CELLMARGIN_END
 94
        6
 95
        1
302
GRIDFORMAT
  1
GRIDFORMAT_BEGIN
 90
        0
 91
        1
 62
     0
 92
       -2
340
43F
 93
        0
 40
0.045
309
GRIDFORMAT_END
 95
        2
302
GRIDFORMAT
  1
GRIDFORMAT_BEGIN
 90
        0
 91
        1
 62
     0
 92
       -2
340
43F
 93
        0
 40
0.045
309
GRIDFORMAT_END
 95
        4
302
GRIDFORMAT
  1
GRIDFORMAT_BEGIN
 90
        0
 91
        1
 62
     0
 92
       -2
340
43F
 93
        0
 40
0.045
309
GRIDFORMAT_END
 95
        8
302
GRIDFORMAT
  1
GRIDFORMAT_BEGIN
 90
        0
 91
        1
 62
     0
 92
       -2
340
43F
 93
        0
 40
0.045
309
GRIDFORMAT_END
 95
       16
302
GRIDFORMAT
  1
GRIDFORMAT_BEGIN
 90
        0
 91
        1
 62
     0
 92
       -2
340
43F
 93
        0
 40
0.045
309
GRIDFORMAT_END
 95
       32
302
GRIDFORMAT
  1
GRIDFORMAT_BEGIN
 90
        0
 91
        1
 62
     0
 92
       -2
340
43F
 93
        0
 40
0.045
309
GRIDFORMAT_END
309
TABLEFORMAT_END
  1
CELLSTYLE_BEGIN
 90
        3
 91
        2
300
_DATA
309
CELLSTYLE_END
  0
ENDSEC
  0
EOF
